<svg width="186" height="17" viewBox="0 0 186 17" fill="none" xmlns="http://www.w3.org/2000/svg">
<path d="M10.8842 1.50199L10.3068 5.85346C10.1074 5.79846 9.90809 5.76065 9.70873 5.74003C9.50938 5.71941 9.31002 5.70909 9.11066 5.70909C8.60196 5.70909 8.11732 5.77784 7.65674 5.91532C7.19616 6.04594 6.78713 6.24873 6.42967 6.5237C6.07907 6.79868 5.79723 7.1424 5.58412 7.55486C5.37789 7.96732 5.27477 8.45196 5.27477 9.00878C5.27477 9.36625 5.32977 9.6756 5.43976 9.93682C5.55662 10.198 5.71817 10.4146 5.9244 10.5864C6.13063 10.7583 6.37467 10.8855 6.65652 10.968C6.93837 11.0505 7.24771 11.0917 7.58456 11.0917C7.83891 11.0917 8.10357 11.0642 8.37854 11.0092C8.65352 10.9542 8.92506 10.882 9.19316 10.7927C9.46126 10.7033 9.72248 10.6002 9.97683 10.4833C10.2312 10.3665 10.4649 10.2462 10.678 10.1224L10.2656 14.9688C9.99745 15.1063 9.70529 15.2301 9.38907 15.3401C9.07973 15.4432 8.76007 15.536 8.4301 15.6185C8.10013 15.6941 7.77016 15.7525 7.4402 15.7938C7.11023 15.835 6.79401 15.8556 6.49154 15.8556C5.61849 15.8556 4.80388 15.6941 4.0477 15.371C3.29152 15.0479 2.63502 14.6045 2.0782 14.0408C1.52138 13.4771 1.08142 12.8137 0.758325 12.0507C0.442105 11.2808 0.283995 10.4524 0.283995 9.56561C0.283995 8.39009 0.452416 7.28332 0.78926 6.24529C1.1261 5.20039 1.62106 4.2861 2.27412 3.50243C2.92718 2.71875 3.73492 2.10006 4.69733 1.64635C5.66661 1.19264 6.78026 0.965791 8.03826 0.965791C8.51259 0.965791 8.99724 1.0036 9.49219 1.07922C9.99402 1.15484 10.458 1.29576 10.8842 1.50199ZM24.1552 8.72006C24.1552 9.34563 24.083 9.95057 23.9386 10.5349C23.7943 11.1123 23.5846 11.6554 23.3096 12.1641C23.0415 12.6728 22.7116 13.1403 22.3197 13.5665C21.9348 13.9858 21.4982 14.3467 21.0102 14.6492C20.529 14.9517 20.0031 15.1888 19.4325 15.3607C18.8619 15.5257 18.257 15.6082 17.6177 15.6082C16.999 15.6082 16.4078 15.5291 15.8441 15.371C15.2873 15.2129 14.7648 14.9929 14.2767 14.7111C13.7887 14.4223 13.3453 14.0786 12.9466 13.6799C12.5547 13.2743 12.2179 12.8275 11.936 12.3394C11.661 11.8445 11.4445 11.3151 11.2864 10.7514C11.1352 10.1877 11.0595 9.59998 11.0595 8.98816C11.0595 8.39009 11.1317 7.80577 11.2761 7.2352C11.4204 6.65775 11.6267 6.11468 11.8948 5.60598C12.1698 5.09728 12.4997 4.62982 12.8847 4.20361C13.2696 3.7774 13.6993 3.40962 14.1736 3.10028C14.6548 2.79093 15.1738 2.55033 15.7307 2.37847C16.2875 2.20661 16.8752 2.12068 17.4939 2.12068C18.4907 2.12068 19.3981 2.27535 20.2162 2.5847C21.0411 2.89405 21.7423 3.33744 22.3197 3.91489C22.9041 4.48546 23.3543 5.17977 23.6705 5.99782C23.9936 6.80899 24.1552 7.71641 24.1552 8.72006ZM19.5769 8.98816C19.5769 8.69256 19.5322 8.40728 19.4428 8.1323C19.3603 7.85045 19.2366 7.60298 19.0716 7.38987C18.9066 7.16989 18.7004 6.9946 18.4529 6.86399C18.2123 6.7265 17.9339 6.65775 17.6177 6.65775C17.2946 6.65775 17.0059 6.71619 16.7515 6.83305C16.4972 6.94991 16.2772 7.11146 16.0916 7.31769C15.9128 7.51705 15.7753 7.75421 15.6791 8.02919C15.5829 8.29729 15.5347 8.58257 15.5347 8.88504C15.5347 9.17377 15.576 9.46249 15.6585 9.75121C15.741 10.0399 15.8647 10.3012 16.0297 10.5349C16.1947 10.7686 16.3975 10.9577 16.6381 11.102C16.8856 11.2464 17.1708 11.3186 17.4939 11.3186C17.817 11.3186 18.1058 11.2567 18.3601 11.133C18.6213 11.0023 18.8413 10.8305 19.02 10.6174C19.1988 10.3974 19.3363 10.1465 19.4325 9.86464C19.5287 9.58279 19.5769 9.29063 19.5769 8.98816ZM40.8186 0.965791L39.87 16.1031L35.1679 16.3093L35.2091 8.32822L33.085 14.7626H31.2701L29.6409 9.00878L29.6203 15.6907L24.8564 15.835L25.0626 1.58448L30.3627 1.37825L32.4663 8.20448L35.271 0.965791H40.8186ZM53.5946 6.08031C53.5946 6.74712 53.4949 7.33832 53.2956 7.85389C53.0962 8.36947 52.8212 8.81974 52.4706 9.2047C52.1269 9.58967 51.7213 9.9162 51.2539 10.1843C50.7864 10.4524 50.2846 10.6724 49.7484 10.8442C49.2191 11.0092 48.6691 11.133 48.0986 11.2155C47.528 11.2911 46.9677 11.3323 46.4178 11.3392V16.1444H41.6126C41.6126 14.5701 41.616 13.0028 41.6229 11.4423C41.6298 9.88183 41.6401 8.3076 41.6539 6.71962C41.6676 5.88095 41.671 5.04228 41.6642 4.20361C41.6573 3.36494 41.6745 2.51939 41.7157 1.66697C42.5956 1.40575 43.4756 1.20983 44.3555 1.07922C45.2354 0.948605 46.1428 0.883298 47.0777 0.883298C47.607 0.883298 48.1364 0.927982 48.6657 1.01735C49.195 1.09984 49.7003 1.23389 50.1815 1.4195C50.6696 1.60511 51.1198 1.83883 51.5323 2.12068C51.9516 2.39566 52.3125 2.72562 52.615 3.11059C52.9175 3.49555 53.1546 3.93551 53.3265 4.43046C53.5052 4.91854 53.5946 5.46849 53.5946 6.08031ZM49.0163 6.4309C49.0163 5.98407 48.8788 5.63691 48.6038 5.38944C48.3357 5.13509 47.9851 5.00791 47.552 5.00791C47.4077 5.00791 47.2564 5.02166 47.0983 5.04916C46.9471 5.06978 46.8027 5.09728 46.6653 5.13165L46.5415 8.14261C46.6378 8.15636 46.7306 8.16324 46.8199 8.16324C46.9093 8.16324 47.0021 8.16324 47.0983 8.16324C47.3458 8.16324 47.583 8.12199 47.8098 8.0395C48.0436 7.95701 48.2498 7.84014 48.4285 7.68891C48.6073 7.5308 48.7482 7.34863 48.8513 7.1424C48.9613 6.92929 49.0163 6.69213 49.0163 6.4309ZM66.2468 6.05969C66.2468 6.59589 66.1987 7.08396 66.1025 7.52392C66.0131 7.95701 65.8688 8.35572 65.6694 8.72006C65.47 9.0844 65.2123 9.42124 64.896 9.73059C64.5798 10.0399 64.1983 10.3355 63.7515 10.6174L66.2056 14.9895L61.5654 15.8969L59.9774 11.5042L58.6988 11.5454L58.5132 15.835H54.0792C54.1136 14.2677 54.1446 12.7072 54.172 11.1536C54.2064 9.59998 54.2442 8.0395 54.2855 6.47215C54.2992 5.6816 54.313 4.89792 54.3267 4.12112C54.3405 3.34432 54.368 2.56064 54.4092 1.77009C54.8904 1.59136 55.3647 1.44356 55.8322 1.32669C56.2997 1.20983 56.7671 1.12046 57.2346 1.05859C57.7089 0.989851 58.1867 0.945168 58.6679 0.924545C59.156 0.897047 59.6543 0.883298 60.163 0.883298C60.9467 0.883298 61.7029 0.993288 62.4316 1.21327C63.1671 1.42637 63.8168 1.74947 64.3805 2.18255C64.9442 2.61564 65.3944 3.15527 65.7313 3.80146C66.075 4.44765 66.2468 5.20039 66.2468 6.05969ZM61.6273 6.38965C61.6273 6.10093 61.586 5.83627 61.5035 5.59567C61.4279 5.35506 61.3111 5.14883 61.153 4.97698C61.0017 4.79824 60.8092 4.66076 60.5755 4.56451C60.3487 4.4614 60.0806 4.40984 59.7712 4.40984C59.6337 4.40984 59.4997 4.42015 59.3691 4.44078C59.2384 4.45452 59.1113 4.47858 58.9875 4.51296L58.8225 8.34885H59.07C59.3656 8.34885 59.6647 8.31104 59.9671 8.23542C60.2765 8.1598 60.5514 8.04294 60.7921 7.88483C61.0395 7.72672 61.2389 7.52392 61.3901 7.27645C61.5482 7.02897 61.6273 6.73337 61.6273 6.38965ZM79.9715 15.1132L74.857 15.7731L74.2383 13.4427H71.8873L71.3717 15.7731L66.1128 15.2576L70.2168 1.52261L75.95 1.23389L79.9715 15.1132ZM73.8671 10.2874L73.0834 6.699L72.3203 10.2874H73.8671ZM92.2731 6.05969C92.2731 6.59589 92.225 7.08396 92.1288 7.52392C92.0394 7.95701 91.8951 8.35572 91.6957 8.72006C91.4963 9.0844 91.2386 9.42124 90.9223 9.73059C90.6061 10.0399 90.2246 10.3355 89.7778 10.6174L92.2319 14.9895L87.5917 15.8969L86.0037 11.5042L84.7251 11.5454L84.5395 15.835H80.1055C80.1399 14.2677 80.1708 12.7072 80.1983 11.1536C80.2327 9.59998 80.2705 8.0395 80.3118 6.47215C80.3255 5.6816 80.3393 4.89792 80.353 4.12112C80.3668 3.34432 80.3943 2.56064 80.4355 1.77009C80.9167 1.59136 81.391 1.44356 81.8585 1.32669C82.326 1.20983 82.7934 1.12046 83.2609 1.05859C83.7352 0.989851 84.213 0.945168 84.6942 0.924545C85.1823 0.897047 85.6806 0.883298 86.1893 0.883298C86.973 0.883298 87.7292 0.993288 88.4579 1.21327C89.1934 1.42637 89.8431 1.74947 90.4068 2.18255C90.9705 2.61564 91.4207 3.15527 91.7576 3.80146C92.1013 4.44765 92.2731 5.20039 92.2731 6.05969ZM87.6536 6.38965C87.6536 6.10093 87.6123 5.83627 87.5298 5.59567C87.4542 5.35506 87.3374 5.14883 87.1793 4.97698C87.028 4.79824 86.8355 4.66076 86.6018 4.56451C86.375 4.4614 86.1069 4.40984 85.7975 4.40984C85.66 4.40984 85.526 4.42015 85.3954 4.44078C85.2647 4.45452 85.1376 4.47858 85.0138 4.51296L84.8488 8.34885H85.0963C85.3919 8.34885 85.691 8.31104 85.9934 8.23542C86.3028 8.1598 86.5777 8.04294 86.8183 7.88483C87.0658 7.72672 87.2652 7.52392 87.4164 7.27645C87.5745 7.02897 87.6536 6.73337 87.6536 6.38965ZM109.452 4.53358C109.452 5.04228 109.428 5.60254 109.38 6.21436C109.332 6.82618 109.253 7.45862 109.143 8.11168C109.033 8.76474 108.888 9.42812 108.71 10.1018C108.538 10.7686 108.321 11.4114 108.06 12.0301C107.799 12.6488 107.493 13.2296 107.142 13.7727C106.799 14.3089 106.4 14.7798 105.946 15.1854C105.499 15.5841 104.998 15.8969 104.441 16.1237C103.884 16.3575 103.265 16.4743 102.585 16.4743C101.787 16.4743 101.093 16.3437 100.502 16.0825C99.9174 15.8281 99.4156 15.4844 98.9963 15.0513C98.5769 14.6114 98.2332 14.1027 97.9651 13.5252C97.697 12.9409 97.4873 12.3257 97.3361 11.6795C97.1849 11.0264 97.0783 10.363 97.0164 9.68934C96.9615 9.00878 96.934 8.35572 96.934 7.73015C96.934 6.76774 96.9821 5.80877 97.0783 4.85324C97.1746 3.89083 97.312 2.93186 97.4908 1.97632L102.317 2.16193C102.131 3.2412 101.969 4.32735 101.832 5.42037C101.701 6.50652 101.636 7.59954 101.636 8.69944C101.636 8.8163 101.639 8.9916 101.646 9.22533C101.66 9.45218 101.681 9.70997 101.708 9.99869C101.736 10.2805 101.773 10.5727 101.822 10.8752C101.877 11.1708 101.949 11.4423 102.038 11.6898C102.128 11.9373 102.234 12.1401 102.358 12.2982C102.488 12.4563 102.64 12.5353 102.812 12.5353C103.011 12.5353 103.19 12.4425 103.348 12.2569C103.506 12.0644 103.643 11.8101 103.76 11.4939C103.884 11.1776 103.99 10.8133 104.08 10.4008C104.169 9.98838 104.245 9.55873 104.307 9.1119C104.369 8.66507 104.417 8.21823 104.451 7.7714C104.492 7.32457 104.523 6.90867 104.544 6.5237C104.571 6.13874 104.589 5.79846 104.595 5.50286C104.602 5.20727 104.606 4.98729 104.606 4.84293C104.606 4.30673 104.595 3.77396 104.575 3.24464C104.561 2.70844 104.537 2.17568 104.503 1.64635H109.328C109.411 2.59501 109.452 3.55742 109.452 4.53358ZM126.219 0.965791L125.27 16.1031L120.568 16.3093L120.609 8.32822L118.485 14.7626H116.67L115.041 9.00878L115.02 15.6907L110.256 15.835L110.463 1.58448L115.763 1.37825L117.866 8.20448L120.671 0.965791H126.219ZM139.799 15.1132L134.684 15.7731L134.066 13.4427H131.715L131.199 15.7731L125.94 15.2576L130.044 1.52261L135.777 1.23389L139.799 15.1132ZM133.695 10.2874L132.911 6.699L132.148 10.2874H133.695ZM156.225 6.05969C156.225 6.59589 156.177 7.08396 156.081 7.52392C155.992 7.95701 155.847 8.35572 155.648 8.72006C155.448 9.0844 155.191 9.42124 154.874 9.73059C154.558 10.0399 154.177 10.3355 153.73 10.6174L156.184 14.9895L151.544 15.8969L149.956 11.5042L148.677 11.5454L148.492 15.835H144.058C144.092 14.2677 144.123 12.7072 144.15 11.1536C144.185 9.59998 144.223 8.0395 144.264 6.47215C144.278 5.6816 144.291 4.89792 144.305 4.12112C144.319 3.34432 144.346 2.56064 144.388 1.77009C144.869 1.59136 145.343 1.44356 145.811 1.32669C146.278 1.20983 146.746 1.12046 147.213 1.05859C147.687 0.989851 148.165 0.945168 148.646 0.924545C149.134 0.897047 149.633 0.883298 150.141 0.883298C150.925 0.883298 151.681 0.993288 152.41 1.21327C153.146 1.42637 153.795 1.74947 154.359 2.18255C154.923 2.61564 155.373 3.15527 155.71 3.80146C156.053 4.44765 156.225 5.20039 156.225 6.05969ZM151.606 6.38965C151.606 6.10093 151.564 5.83627 151.482 5.59567C151.406 5.35506 151.289 5.14883 151.131 4.97698C150.98 4.79824 150.788 4.66076 150.554 4.56451C150.327 4.4614 150.059 4.40984 149.75 4.40984C149.612 4.40984 149.478 4.42015 149.347 4.44078C149.217 4.45452 149.09 4.47858 148.966 4.51296L148.801 8.34885H149.048C149.344 8.34885 149.643 8.31104 149.946 8.23542C150.255 8.1598 150.53 8.04294 150.77 7.88483C151.018 7.72672 151.217 7.52392 151.369 7.27645C151.527 7.02897 151.606 6.73337 151.606 6.38965ZM162.515 1.48137L161.381 15.5257L157.03 15.7525V1.77009L162.515 1.48137ZM173.002 1.13078C172.961 1.77696 172.923 2.41628 172.889 3.04872C172.854 3.68116 172.81 4.32047 172.755 4.96666L168.383 5.19352V6.49277H172.177L171.971 9.68934L168.362 9.79246L168.383 15.8969L163.165 16L163.495 1.13078H173.002ZM185.17 15.1132L180.055 15.7731L179.437 13.4427H177.085L176.57 15.7731L171.311 15.2576L175.415 1.52261L181.148 1.23389L185.17 15.1132ZM179.065 10.2874L178.282 6.699L177.519 10.2874H179.065Z" fill="#CBCBCB"/>
</svg>
