<svg width="113" height="34" viewBox="0 0 113 34" fill="none" xmlns="http://www.w3.org/2000/svg">
<path d="M26.6497 11.5816C26.6497 12.7369 26.546 13.7886 26.3386 14.7366C26.146 15.6697 25.835 16.5289 25.4054 17.3139C24.9759 18.0989 24.4204 18.8247 23.7391 19.4913C23.0577 20.1578 22.2356 20.7948 21.2728 21.4021L26.5608 30.8226L16.5626 32.7778L13.1409 23.3128L10.3859 23.4017L9.98595 32.6445H0.432093C0.506154 29.2673 0.572809 25.905 0.632058 22.5574C0.706119 19.2099 0.787586 15.8475 0.876459 12.4703C0.906083 10.7669 0.935708 9.07832 0.965332 7.40455C0.994956 5.73077 1.05421 4.04218 1.14308 2.33878C2.17993 1.95366 3.20197 1.6352 4.2092 1.38339C5.21643 1.13159 6.22366 0.939028 7.23089 0.805718C8.25293 0.657597 9.28237 0.561317 10.3192 0.516881C11.3709 0.457632 12.4448 0.428008 13.5409 0.428008C15.2295 0.428008 16.8588 0.665003 18.4289 1.13899C20.0138 1.59817 21.4136 2.29434 22.6282 3.22751C23.8427 4.16068 24.8129 5.32343 25.5387 6.71578C26.2794 8.10812 26.6497 9.73006 26.6497 11.5816ZM16.6959 12.2926C16.6959 11.6705 16.607 11.1002 16.4293 10.5818C16.2663 10.0633 16.0145 9.61897 15.6738 9.24866C15.348 8.86355 14.9332 8.5673 14.4296 8.35993C13.9408 8.13775 13.3631 8.02666 12.6966 8.02666C12.4003 8.02666 12.1115 8.04888 11.8301 8.09331C11.5486 8.12294 11.2746 8.17478 11.008 8.24884L10.6525 16.514H11.1857C11.8227 16.514 12.467 16.4326 13.1187 16.2696C13.7853 16.1067 14.3778 15.8549 14.8962 15.5142C15.4294 15.1735 15.859 14.7366 16.1849 14.2033C16.5255 13.6701 16.6959 13.0332 16.6959 12.2926ZM40.2028 1.71667L37.7588 31.978L28.3827 32.4668V2.33878L40.2028 1.71667ZM62.7988 0.961246C62.7099 2.35359 62.6285 3.73112 62.5544 5.09385C62.4803 6.45657 62.3841 7.8341 62.2656 9.22644L52.845 9.71525V12.5147H61.0213L60.577 19.4024L52.8006 19.6246L52.845 32.7778L41.6026 33L42.3135 0.961246H62.7988ZM89.0164 31.0892L77.9961 32.5112L76.663 27.4899H71.5972L70.4863 32.5112L59.155 31.4003L67.9979 1.80554L80.3512 1.18343L89.0164 31.0892ZM75.8631 20.6911L74.1746 12.9591L72.5304 20.6911H75.8631ZM112.234 21.1799C112.234 23.2091 111.879 24.9866 111.168 26.5123C110.472 28.0231 109.509 29.2821 108.28 30.2894C107.065 31.2966 105.636 32.052 103.991 32.5556C102.362 33.0592 100.607 33.3111 98.7257 33.3111C97.9999 33.3111 97.2001 33.2148 96.3262 33.0222C95.4671 32.8297 94.5931 32.5927 93.7044 32.3112C92.8157 32.015 91.9566 31.7039 91.1271 31.3781C90.3124 31.0374 89.5866 30.7189 88.9497 30.4227L89.9273 21.2688C91.1863 22.0242 92.5787 22.6018 94.1043 23.0018C95.6448 23.3869 97.1557 23.5795 98.6369 23.5795C98.9183 23.5795 99.259 23.572 99.6589 23.5572C100.059 23.5276 100.437 23.461 100.792 23.3573C101.162 23.2388 101.473 23.0684 101.725 22.8462C101.977 22.6241 102.103 22.3056 102.103 21.8909C102.103 21.6094 102.014 21.3724 101.836 21.1799C101.659 20.9725 101.429 20.8096 101.148 20.6911C100.866 20.5578 100.548 20.4615 100.192 20.4022C99.8367 20.3282 99.4886 20.2763 99.1479 20.2467C98.8072 20.2171 98.4887 20.2023 98.1925 20.2023C97.8963 20.2023 97.6593 20.2023 97.4815 20.2023C96.2077 20.2023 95.0449 19.9801 93.9932 19.5357C92.9564 19.0914 92.0603 18.4767 91.3048 17.6916C90.5642 16.8918 89.9866 15.9512 89.5718 14.8699C89.1571 13.7738 88.9497 12.5888 88.9497 11.315C88.9497 9.56713 89.2978 8.00444 89.994 6.62691C90.7049 5.23456 91.6455 4.05699 92.8157 3.0942C94.0007 2.1166 95.356 1.36858 96.8816 0.850155C98.4073 0.331728 99.9848 0.0725152 101.614 0.0725152C102.34 0.0725152 103.088 0.10214 103.858 0.161388C104.628 0.205825 105.391 0.294698 106.147 0.428008C106.917 0.561317 107.665 0.731657 108.391 0.939028C109.116 1.1464 109.805 1.40561 110.457 1.71667L109.613 10.7373C108.605 10.3966 107.546 10.1152 106.435 9.89299C105.339 9.656 104.265 9.5375 103.214 9.5375C103.021 9.5375 102.769 9.54491 102.458 9.55972C102.162 9.55972 101.844 9.58194 101.503 9.62637C101.177 9.656 100.844 9.70784 100.503 9.7819C100.163 9.85596 99.8589 9.95965 99.5923 10.093C99.3256 10.2115 99.1109 10.3744 98.9479 10.5818C98.785 10.7891 98.7109 11.0335 98.7257 11.315C98.7406 11.6408 98.8591 11.9075 99.0812 12.1148C99.3182 12.3074 99.6145 12.4629 99.97 12.5814C100.34 12.6851 100.74 12.7592 101.17 12.8036C101.614 12.848 102.051 12.8776 102.481 12.8925C102.91 12.8925 103.31 12.8925 103.68 12.8925C104.051 12.8776 104.354 12.8851 104.591 12.9147C105.776 12.9887 106.843 13.2405 107.791 13.6701C108.739 14.0997 109.539 14.6699 110.19 15.3809C110.857 16.0919 111.361 16.9436 111.701 17.936C112.057 18.9136 112.234 19.9949 112.234 21.1799Z" fill="#114823"/>
</svg>
