<svg width="492" height="394" viewBox="0 0 492 394" fill="none" xmlns="http://www.w3.org/2000/svg">
<path d="M77.1599 96.9906C77.4314 100.967 77.0777 104.533 76.0989 107.689C75.12 110.844 73.6636 113.642 71.7296 116.08C69.8367 118.516 67.551 120.628 64.8726 122.417C62.1942 124.206 59.2912 125.722 56.1636 126.965C53.0743 128.165 49.8452 129.127 46.4763 129.851C43.1046 130.534 39.7804 131.008 36.5037 131.273L38.4603 159.928L9.80556 161.884C9.16457 152.497 8.54687 143.149 7.95246 133.84C7.35806 124.532 6.77855 115.14 6.21394 105.665C5.95444 100.658 5.63344 95.6556 5.25096 90.6571C4.86847 85.6587 4.62666 80.6094 4.52554 75.5094C9.66638 73.5934 14.8338 72.0668 20.0278 70.9296C25.2219 69.7924 30.6065 69.0335 36.1816 68.6528C39.3382 68.4373 42.5129 68.4882 45.7058 68.8056C48.8959 69.082 51.9635 69.6756 54.9087 70.5865C57.8948 71.4946 60.6751 72.7051 63.2495 74.2179C65.8621 75.6869 68.1486 77.5076 70.1091 79.6801C72.0696 81.8526 73.663 84.3797 74.8894 87.2612C76.1539 90.099 76.9108 93.3421 77.1599 96.9906ZM50.0008 100.945C49.8188 98.2809 48.8576 96.2667 47.1171 94.9029C45.4148 93.4953 43.2723 92.8796 40.6897 93.056C39.8288 93.1148 38.9325 93.2583 38.0009 93.4867C37.1074 93.6712 36.2577 93.894 35.4519 94.1549L35.94 112.161C36.5195 112.203 37.0757 112.207 37.6086 112.17C38.1415 112.134 38.695 112.096 39.2689 112.057C40.7446 111.956 42.1421 111.614 43.4613 111.029C44.8216 110.442 46.0038 109.661 47.008 108.687C48.0095 107.671 48.7757 106.527 49.3066 105.256C49.8758 103.94 50.1071 102.503 50.0008 100.945ZM155.242 145.776L125.011 151.794L120.373 138.149L106.353 139.106L104.227 153.213L72.657 152.28L91.5377 68.7032L125.609 64.647L155.242 145.776ZM116.874 119.484L110.74 98.4044L107.651 120.114L116.874 119.484ZM184.187 62.1299L183.142 146.342L157.285 149.467L151.592 66.0853L184.187 62.1299Z" fill="#31B55C"/>
<path d="M85.5791 321.618C85.7259 327.245 84.8687 332.2 83.0075 336.482C81.1863 340.722 78.6075 344.284 75.2711 347.166C71.9758 350.047 68.0667 352.245 63.5438 353.76C59.062 355.275 54.2128 356.1 48.9962 356.236C46.9835 356.289 44.7585 356.08 42.3211 355.609C39.9248 355.137 37.4842 354.543 34.9993 353.827C32.5134 353.07 30.1085 352.269 27.7847 351.426C25.5009 350.54 23.4652 349.709 21.6775 348.934L23.7261 323.479C27.2722 325.482 31.175 326.984 35.4347 327.982C39.7344 328.939 43.9381 329.363 48.0456 329.256C48.826 329.236 49.7702 329.191 50.8782 329.121C51.9851 329.01 53.0277 328.797 54.006 328.484C55.0243 328.129 55.8745 327.634 56.5567 326.999C57.2389 326.365 57.565 325.473 57.535 324.323C57.5147 323.542 57.2511 322.892 56.7442 322.37C56.2363 321.808 55.5879 321.373 54.7989 321.065C54.0088 320.716 53.1187 320.472 52.1286 320.333C51.1374 320.153 50.1684 320.035 49.2215 319.977C48.2747 319.92 47.3905 319.902 46.569 319.923C45.7475 319.945 45.0902 319.962 44.5973 319.975C41.0649 320.067 37.8244 319.535 34.8759 318.379C31.9685 317.221 29.4389 315.582 27.2873 313.459C25.1756 311.295 23.5056 308.728 22.2773 305.76C21.0479 302.75 20.3871 299.479 20.2949 295.947C20.1684 291.1 21.0206 286.741 22.8515 282.871C24.7224 278.958 27.2454 275.625 30.4207 272.87C33.636 270.074 37.3403 267.901 41.5335 266.353C45.7268 264.805 50.0825 263.972 54.6008 263.854C56.6135 263.802 58.6899 263.83 60.8302 263.938C62.9693 264.006 65.0911 264.197 67.1956 264.512C69.3411 264.826 71.4278 265.244 73.4555 265.767C75.4832 266.289 77.4119 266.958 79.2417 267.774L77.5532 292.85C74.7354 291.978 71.7781 291.274 68.6814 290.738C65.6247 290.16 62.6382 289.91 59.7218 289.986C59.1878 290 58.4901 290.038 57.6286 290.102C56.8071 290.123 55.9256 290.208 54.984 290.356C54.0825 290.462 53.1621 290.629 52.2227 290.859C51.2833 291.09 50.4488 291.399 49.7191 291.788C48.9883 292.136 48.4045 292.603 47.9677 293.19C47.5309 293.777 47.3432 294.46 47.4046 295.239C47.4693 296.142 47.8172 296.873 48.4483 297.432C49.1194 297.949 49.9522 298.358 50.9466 298.661C51.981 298.922 53.0953 299.098 54.2897 299.191C55.5252 299.282 56.7391 299.332 57.9313 299.342C59.1225 299.311 60.2316 299.282 61.2584 299.255C62.2842 299.188 63.1268 299.186 63.7862 299.251C67.0776 299.371 70.0532 299.992 72.7131 301.114C75.373 302.237 77.6323 303.761 79.4911 305.685C81.3909 307.608 82.8491 309.934 83.8657 312.661C84.9222 315.346 85.4933 318.332 85.5791 321.618ZM165.396 308.807C165.494 312.545 165.157 316.171 164.385 319.685C163.613 323.158 162.445 326.436 160.881 329.518C159.358 332.599 157.46 335.444 155.185 338.052C152.95 340.617 150.398 342.842 147.529 344.725C144.701 346.608 141.595 348.107 138.213 349.223C134.829 350.297 131.228 350.885 127.408 350.984C123.711 351.081 120.166 350.7 116.773 349.844C113.421 348.986 110.265 347.753 107.305 346.145C104.344 344.496 101.641 342.511 99.1962 340.191C96.7917 337.828 94.7093 335.211 92.9491 332.339C91.229 329.424 89.8526 326.295 88.8199 322.952C87.8284 319.607 87.2849 316.107 87.1895 312.451C87.0963 308.878 87.4365 305.375 88.2101 301.943C88.9827 298.47 90.1303 295.193 91.6529 292.112C93.2166 289.029 95.1153 286.185 97.3491 283.578C99.5828 280.971 102.093 278.707 104.879 276.785C107.706 274.861 110.769 273.343 114.07 272.229C117.37 271.115 120.869 270.51 124.565 270.414C130.521 270.258 135.967 271.041 140.903 272.762C145.881 274.482 150.14 277.022 153.68 280.382C157.26 283.7 160.059 287.779 162.076 292.617C164.133 297.414 165.24 302.81 165.396 308.807ZM138.082 311.123C138.036 309.357 137.724 307.659 137.147 306.03C136.611 304.359 135.833 302.9 134.814 301.652C133.794 300.363 132.534 299.348 131.035 298.606C129.576 297.822 127.902 297.455 126.012 297.504C124.082 297.555 122.365 297.949 120.864 298.687C119.362 299.425 118.073 300.424 116.996 301.685C115.959 302.904 115.175 304.343 114.643 306.001C114.109 307.618 113.866 309.33 113.913 311.137C113.959 312.862 114.25 314.581 114.788 316.293C115.326 318.006 116.106 319.547 117.128 320.918C118.15 322.289 119.392 323.387 120.852 324.212C122.353 325.036 124.069 325.423 125.999 325.373C127.93 325.322 129.645 324.907 131.146 324.128C132.686 323.307 133.974 322.246 135.009 320.945C136.042 319.603 136.825 318.082 137.356 316.383C137.887 314.684 138.129 312.931 138.082 311.123ZM241.505 290.915C241.588 294.118 241.377 297.042 240.87 299.686C240.404 302.288 239.604 304.693 238.469 306.901C237.335 309.109 235.847 311.162 234.006 313.059C232.165 314.957 229.931 316.783 227.305 318.537L242.651 344.278L215.066 350.423L204.893 324.424L197.259 324.87L196.819 350.529L170.326 351.221C170.287 341.85 170.228 332.521 170.15 323.234C170.113 313.946 170.096 304.616 170.098 295.244C170.057 290.518 170.017 285.833 169.978 281.19C169.939 276.546 169.981 271.859 170.104 267.129C172.952 265.986 175.763 265.029 178.538 264.258C181.313 263.487 184.092 262.88 186.875 262.437C189.699 261.953 192.547 261.611 195.419 261.413C198.331 261.173 201.306 261.013 204.346 260.933C209.029 260.811 213.564 261.351 217.952 262.551C222.381 263.71 226.313 265.539 229.748 268.039C233.184 270.539 235.959 273.693 238.072 277.502C240.227 281.309 241.371 285.78 241.505 290.915ZM213.954 293.606C213.909 291.881 213.621 290.306 213.09 288.882C212.601 287.456 211.871 286.242 210.899 285.239C209.968 284.195 208.796 283.404 207.384 282.865C206.013 282.284 204.403 282.018 202.555 282.066C201.733 282.088 200.934 282.17 200.156 282.314C199.378 282.416 198.622 282.58 197.888 282.804L197.5 305.75L198.979 305.712C200.745 305.666 202.526 305.393 204.322 304.894C206.158 304.394 207.783 303.653 209.196 302.671C210.65 301.687 211.81 300.444 212.675 298.942C213.581 297.439 214.007 295.66 213.954 293.606ZM310.193 260.391L310.259 286.531L291.918 287.75L288.759 346.281L262.794 348.315L261.393 289.902L243.058 291.367L243.038 262.267L310.193 260.391ZM371.91 258.041C371.765 261.908 371.638 265.734 371.532 269.519C371.425 273.303 371.257 277.13 371.03 281L344.941 283.037L344.527 290.816L362.888 290.337L362.031 309.472L343.563 310.571L343.182 319.582L358.462 319.184L369.306 318.901C369.177 323.425 369.028 327.93 368.857 332.415C368.726 336.857 368.617 341.32 368.528 345.802L315.45 348.421L315.103 259.523L371.91 258.041ZM407.392 259.211L402.805 343.305L376.839 345.339L374.659 261.792L407.392 259.211ZM488.002 300.39C488.099 304.128 487.762 307.753 486.991 311.267C486.218 314.74 485.05 318.018 483.486 321.1C481.964 324.182 480.065 327.026 477.79 329.634C475.555 332.2 473.003 334.424 470.134 336.308C467.306 338.19 464.201 339.689 460.818 340.805C457.435 341.88 453.833 342.467 450.013 342.566C446.316 342.663 442.771 342.283 439.379 341.426C436.027 340.568 432.871 339.335 429.91 337.727C426.949 336.078 424.246 334.093 421.802 331.773C419.397 329.411 417.315 326.793 415.555 323.921C413.834 321.006 412.458 317.877 411.425 314.534C410.434 311.189 409.89 307.689 409.795 304.033C409.702 300.46 410.042 296.957 410.816 293.525C411.588 290.053 412.736 286.776 414.258 283.694C415.822 280.612 417.721 277.767 419.955 275.16C422.188 272.554 424.698 270.289 427.484 268.367C430.311 266.444 433.375 264.925 436.675 263.811C439.975 262.698 443.474 262.092 447.171 261.996C453.127 261.841 458.573 262.623 463.509 264.344C468.486 266.064 472.745 268.604 476.285 271.964C479.866 275.282 482.664 279.361 484.681 284.2C486.738 288.996 487.845 294.393 488.002 300.39ZM460.687 302.706C460.641 300.939 460.33 299.242 459.753 297.613C459.216 295.941 458.438 294.482 457.419 293.234C456.399 291.946 455.139 290.93 453.64 290.188C452.181 289.404 450.507 289.037 448.618 289.086C446.687 289.137 444.971 289.531 443.469 290.269C441.968 291.007 440.679 292.006 439.602 293.268C438.565 294.487 437.78 295.925 437.248 297.583C436.715 299.2 436.472 300.912 436.519 302.72C436.564 304.445 436.855 306.163 437.393 307.876C437.931 309.588 438.711 311.13 439.734 312.5C440.756 313.871 441.997 314.969 443.457 315.794C444.958 316.618 446.674 317.005 448.605 316.955C450.535 316.904 452.251 316.49 453.751 315.711C455.292 314.89 456.579 313.828 457.614 312.527C458.648 311.185 459.43 309.664 459.961 307.965C460.492 306.266 460.734 304.513 460.687 302.706Z" fill="#31B55C"/>
<path fill-rule="evenodd" clip-rule="evenodd" d="M206.625 107.979C192.836 141.996 197.724 181.033 219.489 210.729C236.669 234.166 263.523 249.772 292.225 252.996C323.361 256.494 352.422 247.126 376.721 225.758C384.313 219.083 399.296 197.403 402.892 187.891C418.932 145.461 409.364 101.988 377.121 70.7884C369.797 63.7031 366.882 61.4761 359.247 57.1432C342.598 47.6928 326.114 42.7589 308.706 42.0169C287.254 41.1032 261.419 48.7146 243.881 61.1152C228.333 72.1077 213.71 90.5028 206.625 107.979ZM234.057 79.706C242.019 71.5706 250.183 65.5875 260.379 60.414C286.265 47.282 314.763 46.0307 341.981 56.8311C354.558 61.8213 370.109 72.9227 379.345 83.5037C390.777 96.5987 398.371 112.556 401.768 130.614C405.082 148.235 403.506 166.497 397.209 183.453C394.663 190.307 392.728 193.548 383.942 205.671C374.468 218.743 373.049 220.324 365.978 225.665C315.36 263.91 245.421 248.214 216.883 192.205C198.147 155.433 205.208 109.187 234.057 79.706ZM223.261 106.863C214.178 125.25 211.627 145.223 215.689 166.172C224.54 211.815 265.531 242.677 312.656 239.175C329.273 237.94 344.384 232.227 359.322 221.533C366.266 216.562 368.993 213.886 375.496 205.667C388.173 189.642 394.005 175.866 395.828 157.64C399.163 124.299 385.465 93.9069 358.224 74.2062C337.932 59.5312 316.37 54.314 291.603 58.0883C277.646 60.2148 268.893 63.249 257.96 69.7513C244.23 77.9159 230.093 93.038 223.261 106.863ZM256.366 106.919C261.794 104.682 270.968 106.423 276.86 110.812C279.192 112.548 285.28 119.272 290.389 125.754C295.499 132.236 299.844 137.512 300.045 137.48C300.245 137.447 297.68 131.099 294.345 123.371C291.008 115.643 287.926 106.874 287.492 103.885C286.678 98.2592 288.226 90.8859 291.019 87.0913C293.7 83.449 300.655 80.1422 304.927 80.4794C309.266 80.822 315.482 84.6796 317.124 88.0482C317.948 89.7395 318.488 89.8543 320.248 88.7167C327.502 84.0257 338.912 87.837 341.846 95.931C344.771 103.998 342.677 113.682 336.671 119.858C334.845 121.737 328.822 126.794 323.286 131.096C317.75 135.397 313.101 139.319 312.953 139.809C312.805 140.298 318.492 138.188 325.592 135.12C346.656 126.017 354.751 125.6 363.357 133.178C370.666 139.612 370.32 150.98 362.653 156.371C359.219 158.784 359.143 158.948 360.623 160.707C361.467 161.713 362.365 164.715 362.618 167.378C363.022 171.638 362.644 172.818 359.474 177.201C356.193 181.738 355.393 182.285 350.509 183.325C342.949 184.935 337.086 183.152 329.95 177.072C326.818 174.402 322.594 169.833 320.563 166.916C313.541 156.833 315.879 161.821 323.89 174.012C333.826 189.135 336.201 192.099 344.803 200.128L351.643 206.511L349.532 209.429C347.516 212.217 347.269 212.254 343.977 210.261C337.269 206.2 330.565 197.203 322.609 181.589C314.952 166.562 312.109 162.149 317.153 173.117C322.914 185.646 323.049 194.738 317.587 202.382C314.13 207.221 308.57 209.877 302.986 209.358C299.385 209.024 293.309 205.052 291.866 202.09C291.083 200.484 290.267 200.437 287.105 201.817C275.656 206.813 264.187 197.676 265.433 184.55C266.227 176.175 271.775 169 285.723 158.31C291.549 153.844 296.272 149.928 296.221 149.606C296.169 149.285 290.558 151.498 283.752 154.525C276.945 157.552 268.935 160.617 265.952 161.336C251.821 164.744 238.966 155.881 240.262 143.625C240.8 138.545 242.635 135.389 246.543 132.821C248.392 131.607 248.923 130.854 248.422 130.157C246.902 128.042 245.736 120.908 246.387 117.71C247.284 113.308 251.237 109.033 256.366 106.919Z" fill="#114823"/>
<path d="M171.192 202.11C171.256 207.862 170.573 213.027 169.145 217.604C167.716 222.181 165.686 226.251 163.055 229.814C160.464 233.336 157.354 236.349 153.725 238.855C150.096 241.361 146.112 243.439 141.775 245.09C137.437 246.7 132.807 247.902 127.885 248.696C123.004 249.49 117.975 249.916 112.798 249.973C110.867 249.995 108.976 249.975 107.126 249.913C105.276 249.81 103.384 249.667 101.451 249.483L102.285 169.221C106.789 167.733 111.42 166.675 116.18 166.047C120.98 165.377 125.743 165.016 130.468 164.963C136.343 164.898 141.755 165.66 146.704 167.249C151.653 168.837 155.932 171.214 159.542 174.379C163.152 177.503 165.969 181.396 167.993 186.058C170.058 190.679 171.124 196.029 171.192 202.11ZM129.546 226.241C132.007 225.844 134.238 225.08 136.239 223.948C138.281 222.775 140.032 221.358 141.493 219.698C142.953 217.997 144.062 216.095 144.819 213.991C145.617 211.845 146.003 209.581 145.977 207.198C145.951 204.856 145.68 202.681 145.165 200.673C144.649 198.624 143.828 196.867 142.702 195.4C141.576 193.892 140.104 192.717 138.287 191.874C136.469 190.99 134.245 190.522 131.614 190.469L129.546 226.241ZM251.268 202.946C251.31 206.685 250.919 210.306 250.095 213.808C249.27 217.268 248.053 220.528 246.443 223.587C244.875 226.645 242.934 229.461 240.62 232.034C238.347 234.566 235.762 236.752 232.865 238.592C230.009 240.432 226.882 241.885 223.483 242.95C220.083 243.974 216.473 244.507 212.652 244.549C208.954 244.59 205.416 244.157 202.036 243.25C198.698 242.342 195.56 241.061 192.625 239.409C189.688 237.716 187.015 235.691 184.606 233.335C182.237 230.936 180.194 228.288 178.477 225.39C176.801 222.45 175.471 219.3 174.489 215.942C173.548 212.583 173.057 209.075 173.016 205.418C172.976 201.844 173.369 198.346 174.194 194.927C175.018 191.466 176.215 188.206 177.783 185.148C179.393 182.089 181.334 179.274 183.607 176.701C185.879 174.128 188.423 171.901 191.237 170.021C194.093 168.14 197.179 166.667 200.496 165.603C203.812 164.539 207.319 163.986 211.017 163.945C216.975 163.879 222.409 164.743 227.318 166.538C232.269 168.332 236.49 170.936 239.979 174.349C243.51 177.72 246.247 181.84 248.191 186.708C250.176 191.535 251.202 196.948 251.268 202.946ZM223.922 204.853C223.903 203.086 223.617 201.384 223.064 199.746C222.553 198.067 221.797 196.596 220.796 195.334C219.796 194.03 218.552 192.996 217.064 192.232C215.617 191.426 213.948 191.033 212.058 191.054C210.127 191.076 208.405 191.444 206.893 192.16C205.38 192.875 204.076 193.855 202.981 195.1C201.926 196.303 201.12 197.73 200.563 199.38C200.005 200.989 199.737 202.697 199.757 204.505C199.776 206.23 200.041 207.953 200.554 209.673C201.066 211.394 201.823 212.947 202.824 214.333C203.826 215.719 205.051 216.835 206.498 217.682C207.987 218.528 209.697 218.941 211.628 218.919C213.559 218.898 215.281 218.509 216.793 217.753C218.345 216.955 219.648 215.913 220.703 214.627C221.756 213.301 222.561 211.792 223.118 210.101C223.674 208.41 223.943 206.661 223.922 204.853Z" fill="#31B55C"/>
</svg>