<svg width="186" height="22" viewBox="0 0 186 22" fill="none" xmlns="http://www.w3.org/2000/svg">
<path d="M16.2988 7.79655C16.2988 8.6841 16.1661 9.471 15.9008 10.1572C15.6354 10.8435 15.2694 11.4428 14.8028 11.9552C14.3453 12.4676 13.8054 12.9022 13.1832 13.2591C12.561 13.6159 11.8931 13.9087 11.1794 14.1375C10.4748 14.3571 9.74282 14.5218 8.98337 14.6316C8.22392 14.7322 7.47819 14.7871 6.74619 14.7963V21.1922H0.350342C0.350342 19.0968 0.354917 17.0106 0.364067 14.9335C0.373217 12.8565 0.386942 10.7611 0.405242 8.6475C0.423542 7.5312 0.428117 6.4149 0.418967 5.2986C0.409817 4.1823 0.432692 3.05685 0.487592 1.92225C1.65879 1.57455 2.82999 1.31377 4.00119 1.13992C5.17239 0.966073 6.38019 0.879148 7.62459 0.879148C8.32914 0.879148 9.03369 0.938623 9.73824 1.05757C10.4428 1.16737 11.1153 1.3458 11.7558 1.59285C12.4055 1.8399 13.0048 2.151 13.5538 2.52615C14.1119 2.89215 14.5923 3.33135 14.9949 3.84375C15.3975 4.35615 15.7132 4.94175 15.9419 5.60055C16.1798 6.2502 16.2988 6.9822 16.2988 7.79655ZM10.2049 8.2632C10.2049 7.66845 10.0219 7.20637 9.65589 6.87697C9.29904 6.53842 8.83239 6.36915 8.25594 6.36915C8.06379 6.36915 7.86249 6.38745 7.65204 6.42405C7.45074 6.4515 7.25859 6.4881 7.07559 6.53385L6.91089 10.5415C7.03899 10.5598 7.16252 10.569 7.28147 10.569C7.40042 10.569 7.52394 10.569 7.65204 10.569C7.98144 10.569 8.29712 10.5141 8.59907 10.4043C8.91017 10.2945 9.18467 10.1389 9.42257 9.93765C9.66047 9.7272 9.84804 9.48472 9.98529 9.21022C10.1317 8.92657 10.2049 8.6109 10.2049 8.2632ZM32.906 19.8196L26.0984 20.698L25.2749 17.5962H22.1456L21.4594 20.698L14.4596 20.0118L19.9222 1.7301L27.5533 1.3458L32.906 19.8196ZM24.7808 13.3963L23.7377 8.62005L22.7221 13.3963H24.7808ZM40.6058 1.6752L39.096 20.3686L33.3041 20.6706V2.0595L40.6058 1.6752ZM57.1169 10.1023C57.1169 11.3833 56.9522 12.5408 56.6228 13.5748C56.2934 14.5996 55.8314 15.5146 55.2366 16.3198C54.651 17.1158 53.951 17.8021 53.1367 18.3785C52.3223 18.955 51.4302 19.4308 50.4603 19.8059C49.4904 20.1719 48.4565 20.4464 47.3585 20.6294C46.2696 20.8033 45.1487 20.8902 43.9958 20.8902C43.5658 20.8902 43.1449 20.881 42.7331 20.8627C42.3214 20.8353 41.9005 20.7987 41.4704 20.7529L41.8547 2.334C42.8612 2.01375 43.8952 1.78957 44.9566 1.66147C46.0271 1.52422 47.0885 1.4556 48.1408 1.4556C49.4492 1.4556 50.6525 1.65232 51.7505 2.04577C52.8485 2.43922 53.7955 3.00652 54.5915 3.74767C55.3876 4.48882 56.0052 5.39467 56.4444 6.46522C56.8928 7.53577 57.1169 8.74815 57.1169 10.1023ZM51.4897 10.9807C51.4988 10.4866 51.4439 10.0108 51.325 9.55335C51.2152 9.09585 51.0276 8.69325 50.7623 8.34555C50.5061 7.9887 50.1767 7.70505 49.7741 7.4946C49.3715 7.275 48.8911 7.15605 48.3329 7.13775L47.7839 15.6472C48.3329 15.5649 48.8316 15.3865 49.28 15.112C49.7283 14.8283 50.1126 14.4852 50.4329 14.0826C50.7623 13.6708 51.0139 13.2179 51.1877 12.7238C51.3707 12.2206 51.4714 11.7036 51.4897 11.1729V10.9807ZM74.9183 11.3101C74.9183 12.1428 74.8222 12.948 74.63 13.7257C74.4379 14.4943 74.1588 15.2172 73.7928 15.8943C73.436 16.5714 72.9968 17.1936 72.4752 17.7609C71.9628 18.319 71.3818 18.7994 70.7321 19.202C70.0916 19.6046 69.3917 19.9203 68.6322 20.149C67.8728 20.3686 67.0676 20.4784 66.2166 20.4784C65.3931 20.4784 64.6062 20.3732 63.8559 20.1628C63.1148 19.9523 62.4194 19.6595 61.7697 19.2844C61.1201 18.9001 60.5299 18.4426 59.9992 17.9119C59.4776 17.372 59.0293 16.7773 58.6541 16.1276C58.2881 15.4688 57.9999 14.7643 57.7895 14.014C57.5882 13.2637 57.4875 12.4813 57.4875 11.667C57.4875 10.8709 57.5836 10.0932 57.7757 9.33375C57.9679 8.56515 58.2424 7.8423 58.5992 7.1652C58.9652 6.4881 59.4044 5.8659 59.9168 5.2986C60.4292 4.7313 61.0011 4.24177 61.6325 3.83002C62.273 3.41827 62.9638 3.09802 63.7049 2.86927C64.4461 2.64052 65.2284 2.52615 66.0519 2.52615C67.3787 2.52615 68.5865 2.73202 69.6753 3.14377C70.7733 3.55552 71.7066 4.1457 72.4752 4.9143C73.253 5.67375 73.8523 6.5979 74.2732 7.68675C74.7032 8.76645 74.9183 9.97425 74.9183 11.3101ZM68.8244 11.667C68.8244 11.2735 68.7649 10.8938 68.6459 10.5278C68.5361 10.1527 68.3714 9.82327 68.1518 9.53962C67.9322 9.24682 67.6577 9.0135 67.3283 8.83965C67.0081 8.65665 66.6375 8.56515 66.2166 8.56515C65.7866 8.56515 65.4023 8.64292 65.0637 8.79847C64.7252 8.95402 64.4324 9.16905 64.1853 9.44355C63.9474 9.7089 63.7644 10.0246 63.6363 10.3906C63.5082 10.7474 63.4442 11.1271 63.4442 11.5297C63.4442 11.914 63.4991 12.2983 63.6089 12.6826C63.7187 13.0669 63.8834 13.4146 64.103 13.7257C64.3226 14.0368 64.5925 14.2885 64.9127 14.4806C65.2421 14.6728 65.6219 14.7688 66.0519 14.7688C66.482 14.7688 66.8663 14.6865 67.2048 14.5218C67.5525 14.3479 67.8453 14.1192 68.0832 13.8355C68.3211 13.5427 68.5041 13.2088 68.6322 12.8336C68.7603 12.4585 68.8244 12.0696 68.8244 11.667ZM95.4234 13.6983C95.4234 14.9518 95.2038 16.0498 94.7646 16.9923C94.3346 17.9256 93.7398 18.7033 92.9804 19.3255C92.2301 19.9477 91.3471 20.4144 90.3315 20.7255C89.325 21.0366 88.2407 21.1922 87.0786 21.1922C86.6303 21.1922 86.1362 21.1327 85.5963 21.0137C85.0656 20.8948 84.5258 20.7484 83.9768 20.5745C83.4278 20.3915 82.8971 20.1994 82.3847 19.9981C81.8814 19.7876 81.4331 19.5909 81.0396 19.4079L81.6435 13.7532C82.4213 14.2198 83.2814 14.5767 84.2238 14.8237C85.1754 15.0616 86.1087 15.1806 87.0237 15.1806C87.1976 15.1806 87.408 15.176 87.6551 15.1669C87.9021 15.1486 88.1355 15.1074 88.3551 15.0433C88.5838 14.9701 88.776 14.8649 88.9315 14.7277C89.0871 14.5904 89.1648 14.3937 89.1648 14.1375C89.1648 13.9636 89.1099 13.8172 89.0001 13.6983C88.8903 13.5702 88.7485 13.4695 88.5747 13.3963C88.4008 13.314 88.2041 13.2545 87.9845 13.2179C87.7649 13.1722 87.5499 13.1401 87.3394 13.1218C87.129 13.1035 86.9322 13.0944 86.7492 13.0944C86.5662 13.0944 86.4198 13.0944 86.31 13.0944C85.5231 13.0944 84.8049 12.9571 84.1552 12.6826C83.5147 12.4081 82.9611 12.0284 82.4945 11.5435C82.037 11.0494 81.6801 10.4683 81.4239 9.8004C81.1677 9.1233 81.0396 8.3913 81.0396 7.6044C81.0396 6.5247 81.2547 5.55937 81.6847 4.70842C82.1239 3.84832 82.7049 3.1209 83.4278 2.52615C84.1598 1.92225 84.997 1.46017 85.9395 1.13992C86.8819 0.819673 87.8564 0.659548 88.8629 0.659548C89.3112 0.659548 89.7733 0.677848 90.2491 0.714448C90.7249 0.741898 91.1961 0.796798 91.6628 0.879148C92.1386 0.961498 92.6007 1.06672 93.049 1.19482C93.4974 1.32292 93.9228 1.48305 94.3254 1.6752L93.8039 7.24755C93.1817 7.0371 92.5275 6.86325 91.8412 6.726C91.1641 6.5796 90.5007 6.5064 89.8511 6.5064C89.7321 6.5064 89.5766 6.51097 89.3844 6.52012C89.2014 6.52012 89.0047 6.53385 88.7943 6.5613C88.593 6.5796 88.3871 6.61162 88.1766 6.65737C87.9662 6.70312 87.7786 6.76717 87.6139 6.84952C87.4492 6.92272 87.3165 7.02337 87.2159 7.15147C87.1152 7.27957 87.0695 7.43055 87.0786 7.6044C87.0878 7.8057 87.161 7.9704 87.2982 8.0985C87.4446 8.21745 87.6276 8.31352 87.8472 8.38672C88.076 8.45077 88.323 8.49652 88.5884 8.52397C88.8629 8.55142 89.1328 8.56972 89.3982 8.57887C89.6635 8.57887 89.9106 8.57887 90.1393 8.57887C90.3681 8.56972 90.5556 8.5743 90.702 8.5926C91.434 8.63835 92.0928 8.7939 92.6784 9.05925C93.264 9.3246 93.7581 9.67687 94.1607 10.1161C94.5725 10.5553 94.8836 11.0814 95.094 11.6944C95.3136 12.2983 95.4234 12.9663 95.4234 13.6983ZM113.266 11.3101C113.266 12.1428 113.17 12.948 112.978 13.7257C112.786 14.4943 112.506 15.2172 112.14 15.8943C111.784 16.5714 111.344 17.1936 110.823 17.7609C110.31 18.319 109.729 18.7994 109.08 19.202C108.439 19.6046 107.739 19.9203 106.98 20.149C106.22 20.3686 105.415 20.4784 104.564 20.4784C103.741 20.4784 102.954 20.3732 102.204 20.1628C101.462 19.9523 100.767 19.6595 100.117 19.2844C99.4677 18.9001 98.8776 18.4426 98.3469 17.9119C97.8253 17.372 97.377 16.7773 97.0018 16.1276C96.6358 15.4688 96.3476 14.7643 96.1371 14.014C95.9358 13.2637 95.8352 12.4813 95.8352 11.667C95.8352 10.8709 95.9313 10.0932 96.1234 9.33375C96.3156 8.56515 96.5901 7.8423 96.9469 7.1652C97.3129 6.4881 97.7521 5.8659 98.2645 5.2986C98.7769 4.7313 99.3488 4.24177 99.9801 3.83002C100.621 3.41827 101.311 3.09802 102.053 2.86927C102.794 2.64052 103.576 2.52615 104.4 2.52615C105.726 2.52615 106.934 2.73202 108.023 3.14377C109.121 3.55552 110.054 4.1457 110.823 4.9143C111.601 5.67375 112.2 6.5979 112.621 7.68675C113.051 8.76645 113.266 9.97425 113.266 11.3101ZM107.172 11.667C107.172 11.2735 107.113 10.8938 106.994 10.5278C106.884 10.1527 106.719 9.82327 106.5 9.53962C106.28 9.24682 106.005 9.0135 105.676 8.83965C105.356 8.65665 104.985 8.56515 104.564 8.56515C104.134 8.56515 103.75 8.64292 103.411 8.79847C103.073 8.95402 102.78 9.16905 102.533 9.44355C102.295 9.7089 102.112 10.0246 101.984 10.3906C101.856 10.7474 101.792 11.1271 101.792 11.5297C101.792 11.914 101.847 12.2983 101.957 12.6826C102.066 13.0669 102.231 13.4146 102.451 13.7257C102.67 14.0368 102.94 14.2885 103.26 14.4806C103.59 14.6728 103.97 14.7688 104.4 14.7688C104.83 14.7688 105.214 14.6865 105.552 14.5218C105.9 14.3479 106.193 14.1192 106.431 13.8355C106.669 13.5427 106.852 13.2088 106.98 12.8336C107.108 12.4585 107.172 12.0696 107.172 11.667ZM130.312 7.7691C130.312 8.4828 130.248 9.13245 130.12 9.71805C130.001 10.2945 129.809 10.8252 129.544 11.3101C129.278 11.7951 128.935 12.2434 128.514 12.6552C128.094 13.0669 127.586 13.4604 126.991 13.8355L130.257 19.6549L124.081 20.8627L121.968 15.0159L120.266 15.0708L120.019 20.7804H114.117C114.163 18.6942 114.204 16.6171 114.24 14.5492C114.286 12.4813 114.336 10.4043 114.391 8.3181C114.41 7.26585 114.428 6.22275 114.446 5.1888C114.465 4.15485 114.501 3.11175 114.556 2.0595C115.197 1.8216 115.828 1.62487 116.45 1.46932C117.072 1.31377 117.695 1.19482 118.317 1.11247C118.948 1.02097 119.584 0.961498 120.225 0.934048C120.874 0.897448 121.538 0.879148 122.215 0.879148C123.258 0.879148 124.264 1.02555 125.234 1.31835C126.213 1.602 127.078 2.03205 127.828 2.6085C128.578 3.18495 129.178 3.90322 129.626 4.76332C130.084 5.62342 130.312 6.62535 130.312 7.7691ZM124.164 8.2083C124.164 7.824 124.109 7.47172 123.999 7.15147C123.898 6.83122 123.743 6.55672 123.532 6.32797C123.331 6.09007 123.075 5.90707 122.764 5.77897C122.462 5.64172 122.105 5.5731 121.693 5.5731C121.51 5.5731 121.332 5.58682 121.158 5.61427C120.984 5.63257 120.815 5.6646 120.65 5.71035L120.43 10.816H120.76C121.153 10.816 121.551 10.7657 121.954 10.6651C122.366 10.5644 122.732 10.4089 123.052 10.1984C123.381 9.98797 123.647 9.71805 123.848 9.38865C124.058 9.05925 124.164 8.6658 124.164 8.2083ZM145.78 1.37325L145.643 7.19265L141.553 7.35735L140.51 20.3686L134.718 20.6706L134.746 7.6593L130.656 7.8789L130.82 1.4007L145.78 1.37325ZM159.533 1.20855C159.478 2.06865 159.428 2.9196 159.382 3.7614C159.336 4.6032 159.277 5.45415 159.204 6.31425L153.384 6.6162L153.247 8.34555H157.337L157.035 12.6003L152.917 12.7375L152.78 14.7414H156.184H158.6C158.545 15.7479 158.485 16.7498 158.421 17.7472C158.366 18.7354 158.316 19.7281 158.27 20.7255L146.439 21L146.878 1.20855H159.533ZM167.425 1.6752L165.915 20.3686L160.123 20.6706V2.0595L167.425 1.6752ZM185.13 11.3101C185.13 12.1428 185.034 12.948 184.842 13.7257C184.65 14.4943 184.371 15.2172 184.005 15.8943C183.648 16.5714 183.209 17.1936 182.687 17.7609C182.175 18.319 181.594 18.7994 180.944 19.202C180.303 19.6046 179.603 19.9203 178.844 20.149C178.085 20.3686 177.279 20.4784 176.428 20.4784C175.605 20.4784 174.818 20.3732 174.068 20.1628C173.327 19.9523 172.631 19.6595 171.981 19.2844C171.332 18.9001 170.742 18.4426 170.211 17.9119C169.689 17.372 169.241 16.7773 168.866 16.1276C168.5 15.4688 168.212 14.7643 168.001 14.014C167.8 13.2637 167.699 12.4813 167.699 11.667C167.699 10.8709 167.795 10.0932 167.988 9.33375C168.18 8.56515 168.454 7.8423 168.811 7.1652C169.177 6.4881 169.616 5.8659 170.129 5.2986C170.641 4.7313 171.213 4.24177 171.844 3.83002C172.485 3.41827 173.176 3.09802 173.917 2.86927C174.658 2.64052 175.44 2.52615 176.264 2.52615C177.59 2.52615 178.798 2.73202 179.887 3.14377C180.985 3.55552 181.918 4.1457 182.687 4.9143C183.465 5.67375 184.064 6.5979 184.485 7.68675C184.915 8.76645 185.13 9.97425 185.13 11.3101ZM179.036 11.667C179.036 11.2735 178.977 10.8938 178.858 10.5278C178.748 10.1527 178.583 9.82327 178.364 9.53962C178.144 9.24682 177.87 9.0135 177.54 8.83965C177.22 8.65665 176.849 8.56515 176.428 8.56515C175.998 8.56515 175.614 8.64292 175.275 8.79847C174.937 8.95402 174.644 9.16905 174.397 9.44355C174.159 9.7089 173.976 10.0246 173.848 10.3906C173.72 10.7474 173.656 11.1271 173.656 11.5297C173.656 11.914 173.711 12.2983 173.821 12.6826C173.93 13.0669 174.095 13.4146 174.315 13.7257C174.534 14.0368 174.804 14.2885 175.125 14.4806C175.454 14.6728 175.834 14.7688 176.264 14.7688C176.694 14.7688 177.078 14.6865 177.417 14.5218C177.764 14.3479 178.057 14.1192 178.295 13.8355C178.533 13.5427 178.716 13.2088 178.844 12.8336C178.972 12.4585 179.036 12.0696 179.036 11.667Z" fill="#31B55C"/>
</svg>
