<svg width="89" height="92" viewBox="0 0 89 92" fill="none" xmlns="http://www.w3.org/2000/svg">
<path fill-rule="evenodd" clip-rule="evenodd" d="M37.4365 0.542312C37.059 0.835391 33.0081 7.59241 28.4354 15.5584C23.8622 23.5243 17.9989 33.7195 15.4056 38.2141C12.8106 42.7108 10.7559 46.7339 10.8367 47.1598C10.9388 47.6992 11.3573 47.9334 12.2197 47.9334C13.4019 47.9334 13.8254 47.2932 21.8389 33.3796C26.469 25.3412 30.7337 18.4172 31.3656 17.9124C32.0866 17.336 32.4804 16.6412 32.431 16.0329C32.3733 15.3211 37.8922 4.84564 39.0497 3.47098C39.1234 3.3828 40.9726 4.34127 43.1587 5.60092L47.1339 7.8906L47.1184 10.6595C47.095 14.8619 48.2236 17.0161 50.1268 16.4014C50.9253 16.1437 50.9927 15.9264 50.6993 14.5556C50.5169 13.7015 50.3445 11.6606 50.3168 10.0205C50.2892 8.38048 50.229 6.82265 50.1829 6.55854C50.1369 6.29442 48.3575 5.02541 46.2283 3.7385C39.6268 -0.252156 38.8333 -0.540549 37.4365 0.542312ZM63.4906 13.1C62.7858 13.3735 59.4355 15.7726 49.053 23.4396C45.1402 26.3286 39.6791 30.3474 36.9171 32.37C6.15723 54.8949 3.62753 56.8144 3.38062 57.8151C3.23918 58.3893 3.32455 59.3082 3.5702 59.8573C4.28789 61.4607 10.4492 69.94 11.0744 70.1841C11.3878 70.3063 12.3809 70.0682 13.281 69.655C19.0447 67.0092 23.8447 73.2328 20.224 78.6574C19.6231 79.5571 19.1318 80.7106 19.1318 81.221C19.1318 81.7313 20.6877 84.3226 22.5897 86.9795C25.8186 91.4903 26.1501 91.8187 27.5951 91.9414C29.2451 92.0811 27.3549 93.3902 58.2596 70.7102C61.2517 68.5146 69.161 62.7144 75.8357 57.821C82.5104 52.9277 88.2072 48.6163 88.4947 48.2406C89.5777 46.8263 89.0479 45.4009 85.6478 40.5779C81.9434 35.3234 81.3542 34.9357 78.3717 35.7855C76.1508 36.4186 74.3313 36.0624 72.7151 34.678C70.3327 32.6371 70.0653 29.2709 72.0727 26.5915C73.7215 24.3912 73.4604 23.3923 69.9573 18.499C66.114 13.1311 65.2565 12.415 63.4906 13.1ZM66.0801 18.4389C66.9292 19.6662 68.1282 21.3778 68.745 22.243L69.8669 23.8157L68.7709 26.0539C66.6501 30.387 67.7067 35.0592 71.4069 37.7097C73.0629 38.8957 73.4592 38.9881 76.9124 38.9949L80.634 39.0026L83.152 42.4944C84.5367 44.4152 85.667 46.137 85.6633 46.3211C85.6503 46.9571 74.864 54.5362 73.9718 54.5362C73.4357 54.5362 72.8101 55.0057 72.4113 55.7077C72.0418 56.3582 66.5153 60.7101 59.9808 65.4961C53.5103 70.2356 43.7907 77.3717 38.3818 81.3543C32.973 85.3373 28.3471 88.6003 28.1023 88.6055C27.8571 88.611 26.4736 86.9637 25.0277 84.9454L22.3988 81.2755L23.4856 79.2435C24.8532 76.6851 24.9666 73.1817 23.7597 70.7728C21.8071 66.8771 18.0186 65.2149 13.2731 66.1725C11.8134 66.4669 11.7996 66.455 9.14141 62.6134C7.67464 60.4933 6.54474 58.6879 6.63053 58.6019C6.71632 58.5158 16.579 51.2485 28.5475 42.4523C40.5161 33.656 50.7751 26.4023 51.345 26.3333C51.9251 26.2635 52.5909 25.7782 52.8566 25.2321C53.2462 24.4326 63.6249 16.2826 64.3275 16.2246C64.4426 16.2153 65.2314 17.2116 66.0801 18.4389ZM34.6301 18.7252C33.9367 20.0445 34.0932 20.3593 36.0124 21.5043C38.106 22.7533 39.0246 22.8645 39.3832 21.9133C39.8829 20.588 39.6138 20.0266 37.9717 18.9718C35.9714 17.6862 35.206 17.63 34.6301 18.7252ZM42.385 22.833C41.4057 23.8294 41.7238 24.9301 42.9909 24.9301C43.8614 24.9301 44.0313 24.7269 44.0313 23.6875C44.0313 22.2076 43.3479 21.8528 42.385 22.833ZM53.7973 28.5216L52.8511 29.3012L54.0057 31.0771C55.4654 33.3225 56.2827 33.6607 57.2649 32.4258C58.0039 31.4971 57.9959 31.4307 56.9556 29.8307C55.629 27.7902 55.0009 27.5295 53.7973 28.5216ZM58.5646 35.0137C57.8164 35.7753 57.929 36.6218 58.9919 38.2265C60.031 39.7954 61.5773 40.0058 62.387 38.6891C62.7411 38.1136 62.5674 37.6301 61.5471 36.3461C60.1348 34.5685 59.3476 34.2166 58.5646 35.0137ZM63.1558 41.8418C62.4335 42.5771 62.5201 43.0056 63.7567 44.822C64.8841 46.4783 65.8621 46.8399 66.7547 45.9313C67.5117 45.1607 67.369 44.405 66.1609 42.793C65.026 41.2782 64.0216 40.9604 63.1558 41.8418ZM67.9495 48.4996C67.007 49.5594 67.0619 49.8142 68.6462 51.72C69.8753 53.1987 70.1222 53.323 70.9416 52.8766C72.161 52.2125 72.1012 50.9673 70.7642 49.1829C69.5221 47.5253 68.9408 47.3843 67.9495 48.4996ZM1.50584 63.059C1.13339 63.2805 0.592714 64.0413 0.304382 64.7497C-0.529229 66.7983 0.291829 68.1623 3.48315 70.0307C6.62635 71.871 7.97804 71.9263 8.17137 70.222C8.28562 69.2188 7.99519 68.9108 5.76219 67.666C3.41368 66.357 3.24211 66.1619 3.47269 65.062C3.61497 64.3842 3.50408 63.606 3.21533 63.2515C2.62904 62.5325 2.429 62.5099 1.50584 63.059Z" fill="#114823"/>
</svg>
