<svg width="63" height="20" viewBox="0 0 63 20" fill="none" xmlns="http://www.w3.org/2000/svg">
<path d="M15.3745 7.23242C15.3745 7.86719 15.3175 8.44499 15.2036 8.96582C15.0978 9.47852 14.9269 9.95052 14.6909 10.3818C14.4549 10.8132 14.1497 11.2119 13.7754 11.5781C13.401 11.9443 12.9494 12.2943 12.4204 12.6279L15.3257 17.8037L9.83252 18.8779L7.95264 13.6777L6.43896 13.7266L6.21924 18.8047H0.970215C1.0109 16.9492 1.04753 15.1019 1.08008 13.2627C1.12077 11.4235 1.16553 9.57617 1.21436 7.7207C1.23063 6.78483 1.24691 5.8571 1.26318 4.9375C1.27946 4.0179 1.31201 3.09017 1.36084 2.1543C1.9305 1.94271 2.49202 1.76774 3.04541 1.62939C3.5988 1.49105 4.15218 1.38525 4.70557 1.31201C5.26709 1.23063 5.83268 1.17773 6.40234 1.15332C6.98014 1.12077 7.57015 1.10449 8.17236 1.10449C9.1001 1.10449 9.99528 1.2347 10.8579 1.49512C11.7287 1.7474 12.4977 2.12988 13.165 2.64258C13.8324 3.15527 14.3654 3.79411 14.7642 4.55908C15.1711 5.32406 15.3745 6.21517 15.3745 7.23242ZM9.90576 7.62305C9.90576 7.28125 9.85693 6.96794 9.75928 6.68311C9.66976 6.39827 9.53141 6.15413 9.34424 5.95068C9.1652 5.7391 8.93734 5.57633 8.66064 5.4624C8.39209 5.34033 8.07471 5.2793 7.7085 5.2793C7.54574 5.2793 7.38704 5.2915 7.23242 5.31592C7.0778 5.33219 6.92725 5.36068 6.78076 5.40137L6.58545 9.94238H6.87842C7.22835 9.94238 7.58236 9.89762 7.94043 9.80811C8.30664 9.71859 8.63216 9.58024 8.91699 9.39307C9.20996 9.20589 9.44596 8.96582 9.625 8.67285C9.81217 8.37988 9.90576 8.02995 9.90576 7.62305ZM22.8208 1.8125L21.478 18.4385L16.3267 18.707V2.1543L22.8208 1.8125ZM35.2354 1.39746C35.1865 2.16243 35.1418 2.91927 35.1011 3.66797C35.0604 4.41667 35.0075 5.1735 34.9424 5.93848L29.7666 6.20703V7.74512H34.2588L34.0146 11.5293L29.7422 11.6514L29.7666 18.8779L23.5898 19L23.9805 1.39746H35.2354ZM49.6396 17.9502L43.585 18.7314L42.8525 15.9727H40.0693L39.459 18.7314L33.2334 18.1211L38.0918 1.86133L44.8789 1.51953L49.6396 17.9502ZM42.4131 12.2373L41.4854 7.98926L40.582 12.2373H42.4131ZM62.396 12.5059C62.396 13.6208 62.2007 14.5973 61.8101 15.4355C61.4276 16.2656 60.8986 16.9574 60.2231 17.5107C59.5558 18.0641 58.7705 18.4792 57.8672 18.7559C56.972 19.0326 56.0076 19.1709 54.9741 19.1709C54.5754 19.1709 54.1359 19.118 53.6558 19.0122C53.1838 18.9064 52.7036 18.7762 52.2153 18.6216C51.7271 18.4588 51.255 18.2879 50.7993 18.1089C50.3517 17.9217 49.953 17.7467 49.603 17.584L50.1401 12.5547C50.8319 12.9697 51.5968 13.2871 52.4351 13.5068C53.2814 13.7184 54.1115 13.8242 54.9253 13.8242C55.0799 13.8242 55.2671 13.8201 55.4868 13.812C55.7065 13.7957 55.9141 13.7591 56.1094 13.7021C56.3128 13.637 56.4837 13.5435 56.6221 13.4214C56.7604 13.2993 56.8296 13.1243 56.8296 12.8965C56.8296 12.7419 56.7808 12.6117 56.6831 12.5059C56.5854 12.3919 56.4593 12.3024 56.3047 12.2373C56.1501 12.1641 55.9751 12.1112 55.7798 12.0786C55.5845 12.0379 55.3932 12.0094 55.2061 11.9932C55.0189 11.9769 54.8439 11.9688 54.6812 11.9688C54.5184 11.9688 54.3882 11.9688 54.2905 11.9688C53.5907 11.9688 52.9518 11.8467 52.374 11.6025C51.8044 11.3584 51.312 11.0207 50.897 10.5894C50.4901 10.1499 50.1727 9.63314 49.9448 9.03906C49.717 8.43685 49.603 7.78581 49.603 7.08594C49.603 6.12565 49.7943 5.26709 50.1768 4.51025C50.5674 3.74528 51.0841 3.09831 51.7271 2.56934C52.3781 2.03223 53.1227 1.62126 53.9609 1.33643C54.7992 1.0516 55.6659 0.90918 56.561 0.90918C56.9598 0.90918 57.3708 0.925456 57.7939 0.958008C58.2171 0.982422 58.6362 1.03125 59.0513 1.10449C59.4744 1.17773 59.8854 1.27132 60.2842 1.38525C60.6829 1.49919 61.0614 1.6416 61.4194 1.8125L60.9556 6.76855C60.4022 6.58138 59.8203 6.42676 59.21 6.30469C58.6077 6.17448 58.0177 6.10938 57.4399 6.10938C57.3341 6.10938 57.1958 6.11344 57.0249 6.12158C56.8621 6.12158 56.6872 6.13379 56.5 6.1582C56.321 6.17448 56.1379 6.20296 55.9507 6.24365C55.7635 6.28434 55.5967 6.34131 55.4502 6.41455C55.3037 6.47965 55.1857 6.56917 55.0962 6.68311C55.0067 6.79704 54.966 6.93132 54.9741 7.08594C54.9823 7.26497 55.0474 7.41146 55.1694 7.52539C55.2996 7.63118 55.4624 7.71663 55.6577 7.78174C55.8612 7.8387 56.0809 7.87939 56.3169 7.90381C56.561 7.92822 56.8011 7.9445 57.0371 7.95264C57.2731 7.95264 57.4928 7.95264 57.6963 7.95264C57.8997 7.9445 58.0666 7.94857 58.1968 7.96484C58.8478 8.00553 59.4338 8.14388 59.9546 8.37988C60.4754 8.61589 60.9149 8.9292 61.2729 9.31982C61.6392 9.71045 61.9159 10.1784 62.103 10.7236C62.2983 11.2607 62.396 11.8548 62.396 12.5059Z" fill="#CBCBCB"/>
</svg>
