<svg width="484" height="72" viewBox="0 0 484 72" fill="none" xmlns="http://www.w3.org/2000/svg">
<path d="M30.5156 23.5816C30.5156 24.7369 30.4119 25.7886 30.2045 26.7366C30.012 27.6697 29.7009 28.5289 29.2714 29.3139C28.8418 30.0989 28.2864 30.8247 27.605 31.4913C26.9236 32.1578 26.1016 32.7948 25.1388 33.4021L30.4267 42.8226L20.4285 44.7778L17.0069 35.3128L14.2518 35.4017L13.8519 44.6445H4.29804C4.3721 41.2673 4.43875 37.905 4.498 34.5574C4.57206 31.2099 4.65353 27.8475 4.7424 24.4703C4.77203 22.7669 4.80165 21.0783 4.83128 19.4045C4.8609 17.7308 4.92015 16.0422 5.00902 14.3388C6.04587 13.9537 7.06792 13.6352 8.07514 13.3834C9.08237 13.1316 10.0896 12.939 11.0968 12.8057C12.1189 12.6576 13.1483 12.5613 14.1852 12.5169C15.2368 12.4576 16.3107 12.428 17.4068 12.428C19.0954 12.428 20.7247 12.665 22.2948 13.139C23.8797 13.5982 25.2795 14.2943 26.4941 15.2275C27.7087 16.1607 28.6789 17.3234 29.4047 18.7158C30.1453 20.1081 30.5156 21.7301 30.5156 23.5816ZM20.5618 24.2926C20.5618 23.6705 20.4729 23.1002 20.2952 22.5818C20.1323 22.0633 19.8805 21.619 19.5398 21.2487C19.2139 20.8635 18.7992 20.5673 18.2956 20.3599C17.8067 20.1377 17.2291 20.0267 16.5625 20.0267C16.2663 20.0267 15.9774 20.0489 15.696 20.0933C15.4146 20.1229 15.1406 20.1748 14.8739 20.2488L14.5184 28.514H15.0517C15.6886 28.514 16.3329 28.4326 16.9847 28.2696C17.6512 28.1067 18.2437 27.8549 18.7621 27.5142C19.2954 27.1735 19.7249 26.7366 20.0508 26.2033C20.3915 25.6701 20.5618 25.0332 20.5618 24.2926ZM44.0688 13.7167L41.6247 43.978L32.2486 44.4668V14.3388L44.0688 13.7167ZM66.6647 12.9612C66.5759 14.3536 66.4944 15.7311 66.4203 17.0938C66.3463 18.4566 66.25 19.8341 66.1315 21.2264L56.7109 21.7152V24.5147H64.8873L64.4429 31.4024L56.6665 31.6246L56.7109 44.7778L45.4685 45L46.1795 12.9612H66.6647ZM92.8823 43.0892L81.862 44.5112L80.5289 39.4899H75.4632L74.3523 44.5112L63.0209 43.4003L71.8638 13.8055L84.2172 13.1834L92.8823 43.0892ZM79.7291 32.6911L78.0405 24.9591L76.3963 32.6911H79.7291ZM116.1 33.1799C116.1 35.2091 115.745 36.9866 115.034 38.5123C114.338 40.0231 113.375 41.2821 112.146 42.2894C110.931 43.2966 109.502 44.052 107.857 44.5556C106.228 45.0592 104.473 45.3111 102.592 45.3111C101.866 45.3111 101.066 45.2148 100.192 45.0222C99.333 44.8297 98.4591 44.5927 97.5704 44.3112C96.6816 44.015 95.8225 43.7039 94.993 43.3781C94.1784 43.0374 93.4526 42.7189 92.8156 42.4227L93.7932 33.2688C95.0523 34.0242 96.4446 34.6018 97.9703 35.0018C99.5108 35.3869 101.022 35.5795 102.503 35.5795C102.784 35.5795 103.125 35.572 103.525 35.5572C103.925 35.5276 104.302 35.461 104.658 35.3573C105.028 35.2388 105.339 35.0684 105.591 34.8462C105.843 34.6241 105.969 34.3056 105.969 33.8909C105.969 33.6094 105.88 33.3724 105.702 33.1799C105.524 32.9725 105.295 32.8096 105.013 32.6911C104.732 32.5578 104.414 32.4615 104.058 32.4022C103.703 32.3282 103.355 32.2763 103.014 32.2467C102.673 32.2171 102.355 32.2023 102.058 32.2023C101.762 32.2023 101.525 32.2023 101.347 32.2023C100.074 32.2023 98.9109 31.9801 97.8592 31.5357C96.8223 31.0914 95.9262 30.4767 95.1708 29.6916C94.4302 28.8918 93.8525 27.9512 93.4378 26.8699C93.023 25.7738 92.8156 24.5888 92.8156 23.315C92.8156 21.5671 93.1637 20.0044 93.8599 18.6269C94.5709 17.2346 95.5115 16.057 96.6816 15.0942C97.8666 14.1166 99.2219 13.3686 100.748 12.8502C102.273 12.3317 103.851 12.0725 105.48 12.0725C106.206 12.0725 106.954 12.1021 107.724 12.1614C108.494 12.2058 109.257 12.2947 110.013 12.428C110.783 12.5613 111.531 12.7317 112.257 12.939C112.982 13.1464 113.671 13.4056 114.323 13.7167L113.479 22.7373C112.471 22.3966 111.412 22.1152 110.301 21.893C109.205 21.656 108.131 21.5375 107.08 21.5375C106.887 21.5375 106.635 21.5449 106.324 21.5597C106.028 21.5597 105.71 21.5819 105.369 21.6264C105.043 21.656 104.71 21.7078 104.369 21.7819C104.028 21.856 103.725 21.9596 103.458 22.093C103.192 22.2115 102.977 22.3744 102.814 22.5818C102.651 22.7891 102.577 23.0335 102.592 23.315C102.606 23.6408 102.725 23.9075 102.947 24.1148C103.184 24.3074 103.48 24.4629 103.836 24.5814C104.206 24.6851 104.606 24.7592 105.036 24.8036C105.48 24.848 105.917 24.8776 106.347 24.8925C106.776 24.8925 107.176 24.8925 107.546 24.8925C107.917 24.8776 108.22 24.8851 108.457 24.9147C109.642 24.9887 110.709 25.2405 111.657 25.6701C112.605 26.0997 113.405 26.6699 114.056 27.3809C114.723 28.0919 115.226 28.9436 115.567 29.936C115.923 30.9136 116.1 31.9949 116.1 33.1799ZM151.583 27.3587C151.583 29.4324 151.316 31.3061 150.783 32.9799C150.25 34.6389 149.502 36.1201 148.539 37.4236C147.591 38.7122 146.458 39.8231 145.14 40.7563C143.821 41.6895 142.377 42.4597 140.807 43.067C139.237 43.6595 137.563 44.1039 135.786 44.4001C134.023 44.6815 132.209 44.8223 130.342 44.8223C129.646 44.8223 128.965 44.8074 128.298 44.7778C127.632 44.7334 126.95 44.6741 126.254 44.6001L126.876 14.7831C128.506 14.2647 130.179 13.9018 131.898 13.6944C133.631 13.4723 135.349 13.3612 137.052 13.3612C139.17 13.3612 141.118 13.6796 142.896 14.3166C144.673 14.9535 146.206 15.8718 147.495 17.0716C148.783 18.2714 149.783 19.7378 150.494 21.4708C151.22 23.2039 151.583 25.1665 151.583 27.3587ZM142.473 28.7807C142.488 27.9808 142.399 27.2106 142.207 26.47C142.029 25.7293 141.725 25.0776 141.296 24.5147C140.881 23.9371 140.348 23.4779 139.696 23.1372C139.044 22.7817 138.267 22.5892 137.363 22.5595L136.475 36.3349C137.363 36.2016 138.171 35.9127 138.896 35.4684C139.622 35.0092 140.244 34.4537 140.763 33.802C141.296 33.1354 141.703 32.4022 141.985 31.6024C142.281 30.7877 142.444 29.9508 142.473 29.0917V28.7807ZM173.979 12.9612C173.89 14.3536 173.809 15.7311 173.735 17.0938C173.661 18.4566 173.564 19.8341 173.446 21.2264L164.025 21.7152L163.803 24.5147H170.424L169.935 31.4024L163.27 31.6246L163.048 34.8685H168.558H172.468C172.379 36.4978 172.283 38.1197 172.179 39.7343C172.09 41.334 172.009 42.9411 171.935 44.5556L152.783 45L153.494 12.9612H173.979Z" fill="#114823"/>
<path d="M217.993 12.6058L215.949 45.2222L205.818 45.6665L205.907 28.4696L201.33 42.3338H197.419L193.909 29.936L193.864 44.3335L183.6 44.6445L184.044 13.9389L195.464 13.4945L199.997 28.203L206.04 12.6058H217.993ZM247.255 43.0892L236.235 44.5112L234.902 39.4899H229.836L228.725 44.5112L217.394 43.4003L226.236 13.8055L238.59 13.1834L247.255 43.0892ZM234.102 32.6911L232.413 24.9591L230.769 32.6911H234.102ZM277.938 13.139L276.339 43.267L264.696 44.3335L258.475 28.203L257.498 44.6445H247.499L248.299 13.139L259.408 12.6058L267.096 28.6029L267.451 13.4945L277.938 13.139ZM300.801 12.9612C300.712 14.3536 300.631 15.7311 300.557 17.0938C300.482 18.4566 300.386 19.8341 300.268 21.2264L290.847 21.7152L290.625 24.5147H297.246L296.757 31.4024L290.092 31.6246L289.87 34.8685H295.38H299.29C299.201 36.4978 299.105 38.1197 299.001 39.7343C298.912 41.334 298.831 42.9411 298.757 44.5556L279.605 45L280.316 12.9612H300.801ZM313.576 13.7167L311.132 43.978L301.756 44.4668V14.3388L313.576 13.7167ZM341.172 23.5816C341.172 24.7369 341.068 25.7886 340.86 26.7366C340.668 27.6697 340.357 28.5289 339.927 29.3139C339.498 30.0989 338.942 30.8247 338.261 31.4913C337.58 32.1578 336.758 32.7948 335.795 33.4021L341.083 42.8226L331.084 44.7778L327.663 35.3128L324.908 35.4017L324.508 44.6445H314.954C315.028 41.2673 315.095 37.905 315.154 34.5574C315.228 31.2099 315.309 27.8475 315.398 24.4703C315.428 22.7669 315.458 21.0783 315.487 19.4045C315.517 17.7308 315.576 16.0422 315.665 14.3388C316.702 13.9537 317.724 13.6352 318.731 13.3834C319.738 13.1316 320.746 12.939 321.753 12.8057C322.775 12.6576 323.804 12.5613 324.841 12.5169C325.893 12.4576 326.967 12.428 328.063 12.428C329.751 12.428 331.381 12.665 332.951 13.139C334.536 13.5982 335.935 14.2943 337.15 15.2275C338.365 16.1607 339.335 17.3234 340.061 18.7158C340.801 20.1081 341.172 21.7301 341.172 23.5816ZM331.218 24.2926C331.218 23.6705 331.129 23.1002 330.951 22.5818C330.788 22.0633 330.536 21.619 330.196 21.2487C329.87 20.8635 329.455 20.5673 328.951 20.3599C328.463 20.1377 327.885 20.0267 327.218 20.0267C326.922 20.0267 326.633 20.0489 326.352 20.0933C326.071 20.1229 325.797 20.1748 325.53 20.2488L325.174 28.514H325.708C326.345 28.514 326.989 28.4326 327.641 28.2696C328.307 28.1067 328.9 27.8549 329.418 27.5142C329.951 27.1735 330.381 26.7366 330.707 26.2033C331.047 25.6701 331.218 25.0332 331.218 24.2926ZM370.744 43.0892L359.724 44.5112L358.391 39.4899H353.325L352.214 44.5112L340.883 43.4003L349.726 13.8055L362.079 13.1834L370.744 43.0892ZM357.591 32.6911L355.902 24.9591L354.258 32.6911H357.591ZM401.139 12.9612C401.05 14.3536 400.968 15.7311 400.894 17.0938C400.82 18.4566 400.724 19.8341 400.605 21.2264L391.185 21.7152V24.5147H399.361L398.917 31.4024L391.14 31.6246L391.185 44.7778L379.942 45L380.653 12.9612H401.139ZM427.356 43.0892L416.336 44.5112L415.003 39.4899H409.937L408.826 44.5112L397.495 43.4003L406.338 13.8055L418.691 13.1834L427.356 43.0892ZM414.203 32.6911L412.514 24.9591L410.87 32.6911H414.203ZM424.379 6.25133C422.616 7.21412 420.898 8.19172 419.224 9.18414C417.551 10.1617 415.877 11.2282 414.203 12.3836L411.359 9.27301C411.655 8.91752 412.011 8.525 412.426 8.09544C412.84 7.65108 413.277 7.19931 413.736 6.74013C414.21 6.28095 414.699 5.82177 415.203 5.3626C415.706 4.88861 416.195 4.43683 416.669 4.00728C417.795 2.98524 418.973 1.95579 420.202 0.918941L424.379 6.25133ZM449.263 13.7611L448.019 23.1372C447.59 23.0187 447.16 22.9373 446.731 22.8928C446.301 22.8484 445.871 22.8262 445.442 22.8262C444.346 22.8262 443.302 22.9743 442.309 23.2705C441.317 23.552 440.435 23.9889 439.665 24.5814C438.91 25.1739 438.302 25.9145 437.843 26.8032C437.399 27.692 437.177 28.7362 437.177 29.936C437.177 30.7062 437.295 31.3728 437.532 31.9357C437.784 32.4985 438.132 32.9651 438.576 33.3354C439.021 33.7057 439.547 33.9797 440.154 34.1575C440.761 34.3352 441.428 34.4241 442.154 34.4241C442.702 34.4241 443.272 34.3649 443.864 34.2464C444.457 34.1279 445.042 33.9723 445.62 33.7798C446.197 33.5872 446.76 33.365 447.308 33.1132C447.856 32.8614 448.36 32.6022 448.819 32.3356L447.93 42.7782C447.353 43.0744 446.723 43.341 446.042 43.578C445.375 43.8002 444.686 44.0002 443.975 44.1779C443.265 44.3409 442.554 44.4668 441.843 44.5556C441.132 44.6445 440.45 44.6889 439.798 44.6889C437.917 44.6889 436.162 44.3409 434.533 43.6447C432.903 42.9485 431.489 41.9931 430.289 40.7785C429.089 39.5639 428.141 38.1346 427.445 36.4904C426.764 34.8314 426.423 33.0466 426.423 31.1358C426.423 28.6029 426.786 26.2182 427.512 23.9815C428.238 21.7301 429.304 19.76 430.711 18.0714C432.118 16.3829 433.859 15.0498 435.932 14.0722C438.021 13.0946 440.421 12.6058 443.131 12.6058C444.153 12.6058 445.197 12.6872 446.264 12.8502C447.345 13.0131 448.345 13.3167 449.263 13.7611ZM462.661 13.7167L460.217 43.978L450.841 44.4668V14.3388L462.661 13.7167ZM483.746 32.3356L482.813 42.2005L464.105 43.6669C464.194 38.4975 464.29 33.3576 464.394 28.2474C464.513 23.1372 464.653 17.9974 464.816 12.8279H476.37C476.029 16.0718 475.703 19.3157 475.392 22.5595C475.081 25.7886 474.859 29.0473 474.726 32.3356C475.422 32.3652 476.111 32.38 476.792 32.38C477.473 32.38 478.162 32.38 478.858 32.38C479.688 32.38 480.502 32.3726 481.302 32.3578C482.102 32.343 482.917 32.3356 483.746 32.3356Z" fill="#31B55C"/>
<path d="M3 69H167" stroke="#31B55C" stroke-width="6" stroke-linecap="round"/>
</svg>
