<svg width="107" height="20" viewBox="0 0 107 20" fill="none" xmlns="http://www.w3.org/2000/svg">
<path d="M13.4731 12.5059C13.4731 13.6208 13.2778 14.5973 12.8872 15.4355C12.5047 16.2656 11.9757 16.9574 11.3003 17.5107C10.633 18.0641 9.84766 18.4792 8.94434 18.7559C8.04915 19.0326 7.0848 19.1709 6.05127 19.1709C5.65251 19.1709 5.21305 19.118 4.73291 19.0122C4.2609 18.9064 3.78076 18.7762 3.29248 18.6216C2.8042 18.4588 2.33219 18.2879 1.87646 18.1089C1.42887 17.9217 1.03011 17.7467 0.680176 17.584L1.21729 12.5547C1.90902 12.9697 2.67399 13.2871 3.51221 13.5068C4.35856 13.7184 5.18864 13.8242 6.00244 13.8242C6.15706 13.8242 6.34424 13.8201 6.56396 13.812C6.78369 13.7957 6.99121 13.7591 7.18652 13.7021C7.38997 13.637 7.56087 13.5435 7.69922 13.4214C7.83757 13.2993 7.90674 13.1243 7.90674 12.8965C7.90674 12.7419 7.85791 12.6117 7.76025 12.5059C7.6626 12.3919 7.53646 12.3024 7.38184 12.2373C7.22721 12.1641 7.05225 12.1112 6.85693 12.0786C6.66162 12.0379 6.47038 12.0094 6.2832 11.9932C6.09603 11.9769 5.92106 11.9688 5.7583 11.9688C5.59554 11.9688 5.46533 11.9688 5.36768 11.9688C4.66781 11.9688 4.02897 11.8467 3.45117 11.6025C2.88151 11.3584 2.38916 11.0207 1.97412 10.5894C1.56722 10.1499 1.24984 9.63314 1.02197 9.03906C0.794108 8.43685 0.680176 7.78581 0.680176 7.08594C0.680176 6.12565 0.871419 5.26709 1.25391 4.51025C1.64453 3.74528 2.1613 3.09831 2.8042 2.56934C3.45524 2.03223 4.19987 1.62126 5.03809 1.33643C5.8763 1.0516 6.743 0.90918 7.63818 0.90918C8.03695 0.90918 8.44792 0.925456 8.87109 0.958008C9.29427 0.982422 9.71338 1.03125 10.1284 1.10449C10.5516 1.17773 10.9626 1.27132 11.3613 1.38525C11.7601 1.49919 12.1385 1.6416 12.4966 1.8125L12.0327 6.76855C11.4793 6.58138 10.8975 6.42676 10.2871 6.30469C9.6849 6.17448 9.09489 6.10938 8.51709 6.10938C8.4113 6.10938 8.27295 6.11344 8.10205 6.12158C7.93929 6.12158 7.76432 6.13379 7.57715 6.1582C7.39811 6.17448 7.21501 6.20296 7.02783 6.24365C6.84066 6.28434 6.67383 6.34131 6.52734 6.41455C6.38086 6.47965 6.26286 6.56917 6.17334 6.68311C6.08382 6.79704 6.04313 6.93132 6.05127 7.08594C6.05941 7.26497 6.12451 7.41146 6.24658 7.52539C6.37679 7.63118 6.53955 7.71663 6.73486 7.78174C6.93831 7.8387 7.15804 7.87939 7.39404 7.90381C7.63818 7.92822 7.87826 7.9445 8.11426 7.95264C8.35026 7.95264 8.56999 7.95264 8.77344 7.95264C8.97689 7.9445 9.14372 7.94857 9.27393 7.96484C9.92497 8.00553 10.5109 8.14388 11.0317 8.37988C11.5526 8.61589 11.992 8.9292 12.3501 9.31982C12.7163 9.71045 12.993 10.1784 13.1802 10.7236C13.3755 11.2607 13.4731 11.8548 13.4731 12.5059ZM29.3423 10.3818C29.3423 11.1224 29.2568 11.8385 29.0859 12.5303C28.915 13.2139 28.6668 13.8568 28.3413 14.459C28.0239 15.0612 27.6333 15.6146 27.1694 16.1191C26.7137 16.6156 26.1969 17.0428 25.6191 17.4009C25.0495 17.759 24.4269 18.0397 23.7515 18.2432C23.076 18.4385 22.3599 18.5361 21.603 18.5361C20.8706 18.5361 20.1707 18.4425 19.5034 18.2554C18.8442 18.0682 18.2257 17.8078 17.6479 17.4741C17.0701 17.1323 16.5452 16.7254 16.0732 16.2534C15.6094 15.7733 15.2106 15.2443 14.877 14.6665C14.5514 14.0806 14.2951 13.4539 14.1079 12.7866C13.9289 12.1193 13.8394 11.4235 13.8394 10.6992C13.8394 9.99121 13.9248 9.29948 14.0957 8.62402C14.2666 7.94043 14.5107 7.29753 14.8281 6.69531C15.1536 6.0931 15.5443 5.53971 16 5.03516C16.4557 4.5306 16.9644 4.09521 17.5259 3.729C18.0955 3.36279 18.71 3.07796 19.3691 2.87451C20.0283 2.67106 20.7241 2.56934 21.4565 2.56934C22.6366 2.56934 23.7108 2.75244 24.6792 3.11865C25.6558 3.48486 26.4858 4.00977 27.1694 4.69336C27.8612 5.36882 28.3942 6.19076 28.7686 7.15918C29.151 8.11947 29.3423 9.19368 29.3423 10.3818ZM23.9224 10.6992C23.9224 10.3493 23.8695 10.0116 23.7637 9.68604C23.666 9.35238 23.5195 9.05941 23.3242 8.80713C23.1289 8.54671 22.8848 8.33919 22.5918 8.18457C22.307 8.02181 21.9774 7.94043 21.603 7.94043C21.2205 7.94043 20.8787 8.0096 20.5776 8.14795C20.2765 8.2863 20.0161 8.47754 19.7964 8.72168C19.5848 8.95768 19.422 9.23844 19.3081 9.56396C19.1942 9.88135 19.1372 10.2191 19.1372 10.5771C19.1372 10.9189 19.186 11.2607 19.2837 11.6025C19.3813 11.9443 19.5278 12.2536 19.7231 12.5303C19.9185 12.807 20.1585 13.0308 20.4434 13.2017C20.7363 13.3726 21.0741 13.458 21.4565 13.458C21.839 13.458 22.1808 13.3848 22.4819 13.2383C22.7912 13.0837 23.0516 12.8802 23.2632 12.6279C23.4748 12.3675 23.6375 12.0705 23.7515 11.7368C23.8654 11.4032 23.9224 11.0573 23.9224 10.6992ZM44.5034 7.23242C44.5034 7.86719 44.4465 8.44499 44.3325 8.96582C44.2267 9.47852 44.0558 9.95052 43.8198 10.3818C43.5838 10.8132 43.2786 11.2119 42.9043 11.5781C42.5299 11.9443 42.0783 12.2943 41.5493 12.6279L44.4546 17.8037L38.9614 18.8779L37.0815 13.6777L35.5679 13.7266L35.3481 18.8047H30.0991C30.1398 16.9492 30.1764 15.1019 30.209 13.2627C30.2497 11.4235 30.2944 9.57617 30.3433 7.7207C30.3595 6.78483 30.3758 5.8571 30.3921 4.9375C30.4084 4.0179 30.4409 3.09017 30.4897 2.1543C31.0594 1.94271 31.6209 1.76774 32.1743 1.62939C32.7277 1.49105 33.2811 1.38525 33.8345 1.31201C34.396 1.23063 34.9616 1.17773 35.5312 1.15332C36.109 1.12077 36.6991 1.10449 37.3013 1.10449C38.229 1.10449 39.1242 1.2347 39.9868 1.49512C40.8576 1.7474 41.6266 2.12988 42.2939 2.64258C42.9613 3.15527 43.4943 3.79411 43.8931 4.55908C44.3 5.32406 44.5034 6.21517 44.5034 7.23242ZM39.0347 7.62305C39.0347 7.28125 38.9858 6.96794 38.8882 6.68311C38.7987 6.39827 38.6603 6.15413 38.4731 5.95068C38.2941 5.7391 38.0662 5.57633 37.7896 5.4624C37.521 5.34033 37.2036 5.2793 36.8374 5.2793C36.6746 5.2793 36.516 5.2915 36.3613 5.31592C36.2067 5.33219 36.0562 5.36068 35.9097 5.40137L35.7144 9.94238H36.0073C36.3573 9.94238 36.7113 9.89762 37.0693 9.80811C37.4355 9.71859 37.7611 9.58024 38.0459 9.39307C38.3389 9.20589 38.5749 8.96582 38.7539 8.67285C38.9411 8.37988 39.0347 8.02995 39.0347 7.62305ZM58.2607 1.54395L58.1387 6.71973L54.501 6.86621L53.5732 18.4385L48.4219 18.707L48.4463 7.13477L44.8086 7.33008L44.9551 1.56836L58.2607 1.54395ZM70.4922 1.39746C70.4434 2.16243 70.3986 2.91927 70.3579 3.66797C70.3172 4.41667 70.2643 5.1735 70.1992 5.93848L65.0234 6.20703L64.9014 7.74512H68.5391L68.2705 11.5293L64.6084 11.6514L64.4863 13.4336H67.5137H69.6621C69.6133 14.3288 69.5604 15.2199 69.5034 16.1069C69.4546 16.9858 69.4098 17.8688 69.3691 18.7559L58.8467 19L59.2373 1.39746H70.4922ZM77.5112 1.8125L76.1685 18.4385L71.0171 18.707V2.1543L77.5112 1.8125ZM93.2583 10.3818C93.2583 11.1224 93.1729 11.8385 93.002 12.5303C92.8311 13.2139 92.5828 13.8568 92.2573 14.459C91.9399 15.0612 91.5493 15.6146 91.0854 16.1191C90.6297 16.6156 90.113 17.0428 89.5352 17.4009C88.9655 17.759 88.3429 18.0397 87.6675 18.2432C86.992 18.4385 86.2759 18.5361 85.519 18.5361C84.7866 18.5361 84.0868 18.4425 83.4194 18.2554C82.7603 18.0682 82.1418 17.8078 81.564 17.4741C80.9862 17.1323 80.4613 16.7254 79.9893 16.2534C79.5254 15.7733 79.1266 15.2443 78.793 14.6665C78.4674 14.0806 78.2111 13.4539 78.0239 12.7866C77.8449 12.1193 77.7554 11.4235 77.7554 10.6992C77.7554 9.99121 77.8408 9.29948 78.0117 8.62402C78.1826 7.94043 78.4268 7.29753 78.7441 6.69531C79.0697 6.0931 79.4603 5.53971 79.916 5.03516C80.3717 4.5306 80.8804 4.09521 81.4419 3.729C82.0116 3.36279 82.626 3.07796 83.2852 2.87451C83.9443 2.67106 84.6401 2.56934 85.3726 2.56934C86.5526 2.56934 87.6268 2.75244 88.5952 3.11865C89.5718 3.48486 90.4019 4.00977 91.0854 4.69336C91.7772 5.36882 92.3102 6.19076 92.6846 7.15918C93.0671 8.11947 93.2583 9.19368 93.2583 10.3818ZM87.8384 10.6992C87.8384 10.3493 87.7855 10.0116 87.6797 9.68604C87.582 9.35238 87.4355 9.05941 87.2402 8.80713C87.0449 8.54671 86.8008 8.33919 86.5078 8.18457C86.223 8.02181 85.8934 7.94043 85.519 7.94043C85.1366 7.94043 84.7948 8.0096 84.4937 8.14795C84.1925 8.2863 83.9321 8.47754 83.7124 8.72168C83.5008 8.95768 83.3381 9.23844 83.2241 9.56396C83.1102 9.88135 83.0532 10.2191 83.0532 10.5771C83.0532 10.9189 83.1021 11.2607 83.1997 11.6025C83.2974 11.9443 83.4438 12.2536 83.6392 12.5303C83.8345 12.807 84.0745 13.0308 84.3594 13.2017C84.6523 13.3726 84.9901 13.458 85.3726 13.458C85.755 13.458 86.0968 13.3848 86.3979 13.2383C86.7072 13.0837 86.9676 12.8802 87.1792 12.6279C87.3908 12.3675 87.5535 12.0705 87.6675 11.7368C87.7814 11.4032 87.8384 11.0573 87.8384 10.6992ZM106.491 12.5059C106.491 13.6208 106.295 14.5973 105.905 15.4355C105.522 16.2656 104.993 16.9574 104.318 17.5107C103.651 18.0641 102.865 18.4792 101.962 18.7559C101.067 19.0326 100.102 19.1709 99.0688 19.1709C98.6701 19.1709 98.2306 19.118 97.7505 19.0122C97.2785 18.9064 96.7983 18.7762 96.3101 18.6216C95.8218 18.4588 95.3498 18.2879 94.894 18.1089C94.4465 17.9217 94.0477 17.7467 93.6978 17.584L94.2349 12.5547C94.9266 12.9697 95.6916 13.2871 96.5298 13.5068C97.3761 13.7184 98.2062 13.8242 99.02 13.8242C99.1746 13.8242 99.3618 13.8201 99.5815 13.812C99.8013 13.7957 100.009 13.7591 100.204 13.7021C100.408 13.637 100.578 13.5435 100.717 13.4214C100.855 13.2993 100.924 13.1243 100.924 12.8965C100.924 12.7419 100.875 12.6117 100.778 12.5059C100.68 12.3919 100.554 12.3024 100.399 12.2373C100.245 12.1641 100.07 12.1112 99.8745 12.0786C99.6792 12.0379 99.488 12.0094 99.3008 11.9932C99.1136 11.9769 98.9386 11.9688 98.7759 11.9688C98.6131 11.9688 98.4829 11.9688 98.3853 11.9688C97.6854 11.9688 97.0465 11.8467 96.4688 11.6025C95.8991 11.3584 95.4067 11.0207 94.9917 10.5894C94.5848 10.1499 94.2674 9.63314 94.0396 9.03906C93.8117 8.43685 93.6978 7.78581 93.6978 7.08594C93.6978 6.12565 93.889 5.26709 94.2715 4.51025C94.6621 3.74528 95.1789 3.09831 95.8218 2.56934C96.4728 2.03223 97.2174 1.62126 98.0557 1.33643C98.8939 1.0516 99.7606 0.90918 100.656 0.90918C101.055 0.90918 101.465 0.925456 101.889 0.958008C102.312 0.982422 102.731 1.03125 103.146 1.10449C103.569 1.17773 103.98 1.27132 104.379 1.38525C104.778 1.49919 105.156 1.6416 105.514 1.8125L105.05 6.76855C104.497 6.58138 103.915 6.42676 103.305 6.30469C102.702 6.17448 102.112 6.10938 101.535 6.10938C101.429 6.10938 101.291 6.11344 101.12 6.12158C100.957 6.12158 100.782 6.13379 100.595 6.1582C100.416 6.17448 100.233 6.20296 100.045 6.24365C99.8582 6.28434 99.6914 6.34131 99.5449 6.41455C99.3984 6.47965 99.2804 6.56917 99.1909 6.68311C99.1014 6.79704 99.0607 6.93132 99.0688 7.08594C99.077 7.26497 99.1421 7.41146 99.2642 7.52539C99.3944 7.63118 99.5571 7.71663 99.7524 7.78174C99.9559 7.8387 100.176 7.87939 100.412 7.90381C100.656 7.92822 100.896 7.9445 101.132 7.95264C101.368 7.95264 101.588 7.95264 101.791 7.95264C101.994 7.9445 102.161 7.94857 102.292 7.96484C102.943 8.00553 103.528 8.14388 104.049 8.37988C104.57 8.61589 105.01 8.9292 105.368 9.31982C105.734 9.71045 106.011 10.1784 106.198 10.7236C106.393 11.2607 106.491 11.8548 106.491 12.5059Z" fill="#CBCBCB"/>
</svg>
