<svg width="167" height="165" viewBox="0 0 167 165" fill="none" xmlns="http://www.w3.org/2000/svg">
<path fill-rule="evenodd" clip-rule="evenodd" d="M61.5963 2.66005C33.9266 10.1679 11.9647 31.6617 3.78976 59.2342C-2.66176 80.9962 0.330357 105.071 11.8947 124.442C24.4393 145.455 44.0034 159.096 68.777 164.104C76.5165 165.669 97.08 164.735 104.694 162.474C138.659 152.388 161.167 125.888 165.323 91.0895C166.267 83.1864 166.273 80.3206 165.358 73.525C163.363 58.7055 158.638 46.1232 150.87 34.9483C141.296 21.1783 124.35 8.71234 108.348 3.66986C94.1631 -0.800464 75.8123 -1.19649 61.5963 2.66005ZM92.1447 6.35073C100.967 7.45533 108.547 9.7026 116.584 13.5966C136.987 23.484 151.237 40.612 157.389 62.6418C160.232 72.821 160.681 87.7387 158.469 98.4839C155.731 111.782 149.399 124.049 139.777 134.697C130.387 145.088 118.287 152.742 104.767 156.843C99.3017 158.5 96.3714 158.829 84.6798 159.097C72.0735 159.386 70.4195 159.251 63.7554 157.38C16.0455 143.987 -7.25854 93.0789 14.0758 48.8565C28.0825 19.8227 60.175 2.35 92.1447 6.35073ZM70.1547 12.4767C54.428 15.5208 40.8034 23.3772 29.6981 35.8069C5.50229 62.888 5.69146 102.966 30.147 130.612C38.7706 140.36 49.4672 147.055 63.1785 151.288C69.5515 153.255 72.5049 153.686 80.69 153.843C96.6468 154.15 107.97 151.264 120.164 143.781C142.472 130.092 154.894 107.207 154.265 80.9556C153.796 61.4006 146.847 45.5273 132.791 31.9122C124.871 24.2392 118.846 20.231 109.635 16.507C98.067 11.8297 81.9808 10.1884 70.1547 12.4767ZM85.7705 33.0871C89.7278 35.4042 92.9819 41.9319 93.0388 47.6698C93.0617 49.941 91.7591 56.905 90.1442 63.1464C88.5294 69.3878 87.3028 74.5835 87.4174 74.6936C87.5328 74.8028 90.2675 70.2068 93.4955 64.4796C96.7234 58.7515 100.718 52.6893 102.372 51.0065C105.485 47.8406 110.802 45.3175 114.481 45.2599C118.014 45.2051 123.358 47.9661 125.168 50.7819C127.006 53.6422 127.546 59.3307 126.228 61.9442C125.566 63.2559 125.75 63.6464 127.289 64.2026C133.635 66.4955 136.659 75.3915 133.014 81.0425C129.381 86.6746 122.369 89.9508 115.69 89.1365C113.658 88.8895 107.666 87.5349 102.374 86.1265C97.0829 84.7182 92.4465 83.6809 92.072 83.8204C91.6975 83.9599 95.6979 86.4984 100.962 89.4628C116.581 98.2568 120.667 103.093 120.024 112.026C119.478 119.613 112.247 124.772 105.27 122.553C102.146 121.559 102.008 121.589 101.613 123.341C101.388 124.341 99.9454 126.319 98.4091 127.735C95.9514 130 95.0391 130.323 90.8151 130.424C86.4429 130.529 85.7242 130.29 82.7693 127.745C78.1939 123.805 76.5307 119.317 76.938 112.005C77.1173 108.796 77.9613 104.009 78.8149 101.367C81.7647 92.2347 79.7686 96.0467 75.9752 106.791C71.2697 120.118 70.5491 122.996 69.6233 132.141L68.8879 139.411L66.0762 139.478C63.3893 139.543 63.2499 139.407 62.9326 136.417C62.2863 130.327 64.711 121.905 70.6586 109.576C76.3821 97.7113 77.7826 93.8572 73.347 102.178C68.2801 111.684 62.6907 116.066 55.3557 116.284C50.7128 116.422 46.4328 114.22 44.1154 110.503C42.6206 108.106 42.2177 102.45 43.3775 100.152C44.0059 98.9069 43.6492 98.3771 41.2967 97.0635C32.7774 92.3067 33.0372 80.8557 41.7869 75.4249C47.37 71.9598 54.4547 72.0173 67.6952 75.6359C73.2259 77.1473 77.8941 78.233 78.0701 78.0491C78.2454 77.8644 74.2166 75.4216 69.1166 72.621C64.0166 69.8195 58.3239 66.2884 56.4669 64.7736C47.6673 57.5979 47.1006 45.4148 55.3341 40.4267C58.7472 38.3593 61.5771 38.0087 65.0214 39.2244C66.6505 39.8002 67.3694 39.7741 67.5659 39.1336C68.163 37.1885 72.0472 33.0911 74.3433 31.9836C77.5044 30.4606 82.0314 30.8969 85.7705 33.0871Z" fill="#114823"/>
</svg>
