<svg width="89" height="84" viewBox="0 0 89 84" fill="none" xmlns="http://www.w3.org/2000/svg">
<path fill-rule="evenodd" clip-rule="evenodd" d="M34.54 0.190429C27.3797 1.01427 20.3913 4.66692 15.7069 10.0335C12.2679 13.9735 9.88594 18.7639 8.86919 23.7848L8.48091 25.702L5.54222 25.7891C2.37449 25.883 2.03423 25.9709 1.06065 26.9457C0.263535 27.7441 0.008216 28.3884 0.000210091 29.6234C-0.0051852 30.4444 0.0928002 30.9481 0.356125 31.4533C0.772084 32.2512 1.98759 33.2558 2.71247 33.401C3.11764 33.4822 3.22242 33.6113 3.30526 34.1321C4.60779 42.3152 7.80945 48.8546 13.132 54.2035C16.8659 57.9559 21.6621 60.9933 26.36 62.5808C27.2694 62.8883 28.0705 63.1887 28.1405 63.2487C28.2103 63.3086 26.7572 65.8258 24.9113 68.8425L21.5553 74.3272L19.7922 74.4144C17.8976 74.508 17.4681 74.6873 16.7115 75.7008C16.389 76.1326 16.3479 76.4674 16.3056 79.0015C16.2614 81.6602 16.2813 81.8614 16.6544 82.5186C16.9127 82.9736 17.3198 83.352 17.8261 83.6079C18.5983 83.9981 18.6406 84 26.8955 84C35.0224 84 35.1984 83.9927 35.6477 83.6387C36.2301 83.1802 36.2748 82.2897 35.7402 81.8049C35.394 81.491 34.9256 81.4682 27.1686 81.3857L18.9633 81.2986L18.9143 79.1629L18.8654 77.0271L37.8849 77.0715L56.9043 77.1158V79.2072V81.2986L48.5999 81.3857C41.019 81.4652 40.2692 81.4992 39.9936 81.7754C39.5419 82.2279 39.5969 83.271 40.0938 83.6739C40.4743 83.9824 40.9466 84 48.8363 84C57.9665 84 57.9084 84.0061 58.7787 82.9702C59.5005 82.1111 59.6441 81.3509 59.5764 78.7473C59.5188 76.5413 59.4857 76.3481 59.0518 75.6921C58.3904 74.6917 57.6892 74.4144 55.8219 74.4144H54.27L50.9316 68.9403C49.0954 65.9295 47.5931 63.3968 47.5931 63.3121C47.5931 63.2274 47.9601 63.0599 48.4086 62.9399C51.0939 62.2206 55.3508 60.0527 58.5786 57.7603C60.5176 56.3833 64.6352 52.2406 66.0175 50.276C69.3182 45.5848 71.3552 40.7565 72.2363 35.5351L72.5477 33.6913L73.6454 33.5029C75.0974 33.2539 76.0717 32.7606 77.0533 31.7775C77.9673 30.8623 78.5093 29.8306 78.7535 28.5409C78.8454 28.0557 78.9206 25.8595 78.9206 23.6606V19.6623L78.3941 19.1351C77.9679 18.7083 77.7771 18.6304 77.3934 18.7264C76.3315 18.9917 76.3406 18.9497 76.2791 23.9311C76.2168 28.9881 76.1996 29.0721 75.0158 30.1129C74.1257 30.8956 73.374 31.0328 70.2704 30.9786L67.5208 30.9305L67.4859 29.6669L67.4511 28.4034H69.7806C71.0619 28.4034 72.3112 28.3269 72.5566 28.2334C72.8021 28.14 73.1594 27.8066 73.3505 27.4927C73.6878 26.9387 73.6981 26.6088 73.6986 16.2584C73.6992 9.14933 73.7611 5.43133 73.8845 5.1042C74.3252 3.93632 75.7939 2.96869 77.1366 2.96172L77.8763 2.95789V4.26502C77.8763 5.33913 77.8274 5.57215 77.6019 5.57215C77.451 5.57215 77.0985 5.80133 76.8187 6.08158L76.3099 6.59101V10.5258C76.3099 14.2283 76.3305 14.4812 76.658 14.8092C77.1269 15.2787 78.0693 15.2697 78.502 14.7914C78.797 14.4653 78.8395 14.0833 78.8878 11.3183L78.9423 8.21133L82.5427 8.15539C85.87 8.10345 86.1981 8.06981 86.8661 7.71218C89.2642 6.42806 89.7247 3.44797 87.8202 1.53834C86.6484 0.363493 86.3454 0.315217 80.5191 0.377436C75.5596 0.430418 75.5205 0.43373 74.5695 0.88286C73.3488 1.45957 72.2031 2.60688 71.6272 3.82931L71.1757 4.78787L71.0887 15.2449L71.0017 25.702L69.1539 25.7511L67.3061 25.8004L67.0149 24.2063C66.4601 21.1702 65.0931 17.4998 63.5094 14.7947C57.5484 4.61271 46.1308 -1.14319 34.54 0.190429ZM43.155 3.13531C50.1156 4.60156 55.8575 8.35651 60.0005 14.1518C60.9685 15.506 63.3988 20.1278 63.2312 20.2958C63.189 20.338 62.5894 19.9102 61.8986 19.3451C57.746 15.9473 52.1866 13.7518 44.8084 12.5956C42.3174 12.2054 33.5168 12.147 31.4271 12.5069C30.7199 12.6287 30.1117 12.6985 30.0751 12.6619C30.0386 12.6253 30.1651 12.2504 30.356 11.8288C30.8621 10.7116 30.836 8.89453 30.2972 7.7507C29.8099 6.71598 28.8224 5.69188 27.9027 5.26802C27.5378 5.09984 27.2372 4.91248 27.2348 4.85201C27.2323 4.79136 28.1895 4.42309 29.3622 4.03357C31.1832 3.42863 32.6367 3.1069 35.3232 2.71354C36.6427 2.52043 41.4696 2.78029 43.155 3.13531ZM85.9771 3.38575C86.212 3.62104 86.4044 4.01666 86.4044 4.26502C86.4044 4.51337 86.212 4.909 85.9771 5.14428C85.5627 5.55943 85.4741 5.57215 83.0184 5.57215H80.4869V4.26502V2.95789H83.0184C85.4741 2.95789 85.5627 2.97061 85.9771 3.38575ZM26.7046 7.62034C27.6718 8.10694 28.146 8.96232 28.058 10.0614C27.8183 13.0509 23.5875 13.1462 23.1364 10.1724C22.9283 8.79954 24.1953 7.31447 25.574 7.31534C25.8628 7.31534 26.3715 7.45267 26.7046 7.62034ZM20.5395 10.0776C20.5524 11.3939 21.2253 12.8062 22.2848 13.7401L23.0633 14.4263L21.7965 14.9056C18.7702 16.0505 15.5329 17.9162 13.4341 19.7251L12.4301 20.5902L12.7768 19.7096C13.9973 16.6087 16.0197 13.509 18.4987 10.9394C19.4972 9.9045 20.3625 9.05835 20.4219 9.05888C20.4811 9.0594 20.5342 9.51777 20.5395 10.0776ZM44.8892 15.2672C50.2046 15.9973 55.9772 18.1722 59.4062 20.7363C62.3184 22.9139 64.0894 25.3116 64.7151 27.9241L64.8298 28.4034H37.9178H11.0056L11.1239 27.7498C11.2974 26.7919 11.9818 25.3733 12.8753 24.1195C15.8686 19.9189 22.9968 16.4145 30.9074 15.2547C31.9248 15.1055 32.7968 14.9835 32.8452 14.9835C32.8935 14.9835 32.7371 15.4697 32.4974 16.0639C31.1293 19.4558 33.5772 23.0779 37.2376 23.0779C40.0052 23.0779 42.1346 21.0775 42.329 18.2949C42.4053 17.2044 42.3242 16.853 41.5981 15.129C41.4597 14.8007 41.5079 14.8026 44.8892 15.2672ZM38.7098 15.9628C39.7734 16.859 40.0416 18.0382 39.4384 19.1647C39.0969 19.8021 37.9011 20.5606 37.2376 20.5606C36.5742 20.5606 35.3783 19.8021 35.0369 19.1647C34.4336 18.0382 34.7018 16.859 35.7654 15.9628C36.2019 15.5949 36.4877 15.5063 37.2376 15.5063C37.9876 15.5063 38.2733 15.5949 38.7098 15.9628ZM8.2597 29.7105V31.0176H5.98846C4.33558 31.0176 3.58338 30.9483 3.22503 30.7627C2.42565 30.3487 2.29042 29.6094 2.87712 28.8626C3.23703 28.4044 3.2433 28.4034 5.7488 28.4034H8.2597V29.7105ZM28.1998 31.5961C27.245 32.8495 26.9579 34.8608 27.5043 36.4668C27.881 37.5738 28.9621 38.7454 30.1397 39.3223C32.6403 40.5475 35.7363 39.4082 36.996 36.799C37.7893 35.1562 37.4458 32.7382 36.2304 31.4098L35.8716 31.0176H50.3508H64.8298L64.7153 31.4969C63.9441 34.7227 61.1203 37.8766 56.9591 40.1588L55.7957 40.7971L55.9784 40.1346C56.237 39.1968 56.0442 37.7556 55.5155 36.6735C54.4164 34.4238 51.8928 33.3403 49.4251 34.0587C48.107 34.4425 46.5842 35.8969 46.1444 37.1922C45.4167 39.335 46.0784 41.6275 47.8167 42.9857C48.083 43.1938 48.2273 43.4096 48.1375 43.4652C47.8477 43.6445 44.0902 44.2322 41.8497 44.4485C39.0579 44.7183 34.1475 44.5609 31.1117 44.1044C22.5912 42.8233 15.5151 39.2663 12.5309 34.764C11.9179 33.8391 11.0444 31.789 11.0444 31.275C11.0444 31.0514 12.1984 31.0176 19.8423 31.0176H28.6403L28.1998 31.5961ZM34.0412 32.8699C35.1328 33.9174 35.092 35.5504 33.9491 36.5553C33.1386 37.268 32.3049 37.3975 31.3244 36.9632C30.3511 36.532 29.8421 35.7472 29.8421 34.6776C29.8421 32.4645 32.4489 31.3423 34.0412 32.8699ZM8.83682 35.3395C9.45989 38.7769 11.0358 42.6636 13.0909 45.8318C18.1416 53.6181 26.6933 58.6561 35.8173 59.2208C46.5172 59.8831 56.2781 55.1628 62.3569 46.3865C63.5673 44.6388 65.3968 40.9323 66.0389 38.9266C66.4477 37.65 67.2598 34.1966 67.2598 33.7352C67.2598 33.6784 67.8521 33.6319 68.5757 33.6319H69.8918L69.7782 34.4597C69.4285 37.0095 68.3347 40.6217 67.1099 43.2703C63.5402 50.9904 56.4638 57.3727 48.3603 60.1806C42.7086 62.139 35.8803 62.4496 30.2307 61.0051C24.232 59.4714 18.9211 56.392 14.6923 51.9955C10.1872 47.312 6.95787 40.8635 6.04171 34.7212L5.87916 33.6319H7.20309H8.5272L8.83682 35.3395ZM52.4288 36.9166C53.9543 38.0043 53.7787 40.3152 52.1058 41.1693C50.4293 42.0256 48.4657 40.818 48.464 38.9298C48.4621 36.9578 50.8129 35.7643 52.4288 36.9166ZM13.7157 39.8732C15.5131 41.4457 19.3785 43.5589 22.4796 44.6641L24.0815 45.235L23.1961 45.9987C21.9982 47.0321 21.408 48.3057 21.4033 49.8682C21.3993 51.2227 21.463 51.2295 19.7475 49.6915C16.9924 47.2213 14.3736 43.5162 12.9649 40.0952C12.3991 38.7212 12.3993 38.7212 13.7157 39.8732ZM62.612 40.5475C59.3527 47.9305 53.0543 53.417 45.2456 55.675C39.9445 57.2078 33.4529 56.9715 28.5355 55.0666L28.0134 54.8642L28.8187 54.4514C31.2582 53.2 32.2952 50.0868 31.0774 47.6693L30.5736 46.669L31.1209 46.7635C31.422 46.8154 33.0129 46.9552 34.6564 47.0743C40.9957 47.533 48.362 46.5455 53.8135 44.5062C57.0333 43.3017 60.3124 41.4325 62.2996 39.6693C62.7782 39.2445 63.197 38.9225 63.2302 38.9537C63.2633 38.9849 62.9852 39.702 62.612 40.5475ZM27.8148 47.7311C28.574 48.2324 28.9682 48.9529 28.9689 49.8403C28.9701 51.7972 27.1615 52.9586 25.4245 52.1165C24.0524 51.4514 23.5494 49.7453 24.3601 48.5063C25.0512 47.45 26.796 47.0586 27.8148 47.7311ZM32.9865 64.2362C35.3825 64.6046 40.2585 64.6031 42.7998 64.2332C44.3277 64.0108 44.7475 63.9992 44.9097 64.1743C45.2881 64.5828 51.1197 74.2523 51.0374 74.3347C50.9925 74.3797 45.0307 74.3964 37.7888 74.3719L24.622 74.3272L27.7899 69.1423C29.5324 66.2905 31.0061 63.9573 31.0649 63.9573C31.1237 63.9573 31.9883 64.0828 32.9865 64.2362Z" fill="#114823"/>
</svg>
