<svg width="133" height="17" viewBox="0 0 133 17" fill="none" xmlns="http://www.w3.org/2000/svg">
<path d="M16.9119 0.965791L15.9632 16.1031L11.2611 16.3093L11.3024 8.32822L9.17821 14.7626H7.36338L5.73416 9.00878L5.71353 15.6907L0.949608 15.835L1.15584 1.58448L6.45596 1.37825L8.55952 8.20448L11.3643 0.965791H16.9119ZM23.2431 1.48137L22.1089 15.5257L17.7574 15.7525V1.77009L23.2431 1.48137ZM37.9886 1.21327L37.2462 15.1957L31.843 15.6907L28.9557 8.20448L28.502 15.835H23.8618L24.233 1.21327L29.3888 0.965791L32.9566 8.39009L33.1216 1.37825L37.9886 1.21327ZM51.074 16L45.9182 16.2475L45.8769 11.4836H43.5053L43.3609 16H38.7414L39.1332 1.50199L44.0415 1.72884L43.7321 9.13252H46.0213L46.0419 1.17202L50.744 1.29576L51.074 16ZM65.0564 15.1132L59.9419 15.7731L59.3232 13.4427H56.9721L56.4566 15.7731L51.1977 15.2576L55.3017 1.52261L61.0349 1.23389L65.0564 15.1132ZM58.952 10.2874L58.1683 6.699L57.4052 10.2874H58.952ZM75.8319 10.5143C75.8319 11.4561 75.6669 12.281 75.337 12.989C75.0139 13.6902 74.5671 14.2745 73.9965 14.742C73.4328 15.2094 72.7694 15.56 72.0064 15.7938C71.2502 16.0275 70.4356 16.1444 69.5625 16.1444C69.2257 16.1444 68.8545 16.0997 68.4489 16.0103C68.0502 15.9209 67.6446 15.811 67.2321 15.6803C66.8197 15.5429 66.4209 15.3985 66.036 15.2473C65.6579 15.0891 65.321 14.9413 65.0255 14.8039L65.4792 10.5555C66.0635 10.9061 66.7097 11.1742 67.4177 11.3598C68.1327 11.5385 68.8338 11.6279 69.5213 11.6279C69.6519 11.6279 69.81 11.6245 69.9956 11.6176C70.1812 11.6039 70.3565 11.5729 70.5215 11.5248C70.6934 11.4698 70.8377 11.3907 70.9546 11.2876C71.0714 11.1845 71.1299 11.0367 71.1299 10.8442C71.1299 10.7136 71.0886 10.6036 71.0061 10.5143C70.9236 10.418 70.8171 10.3424 70.6865 10.2874C70.5559 10.2255 70.4081 10.1809 70.2431 10.1534C70.0781 10.119 69.9166 10.0949 69.7584 10.0812C69.6003 10.0674 69.4525 10.0606 69.315 10.0606C69.1776 10.0606 69.0676 10.0606 68.9851 10.0606C68.3939 10.0606 67.8542 9.95744 67.3662 9.75121C66.885 9.54498 66.4691 9.2597 66.1185 8.89536C65.7748 8.52414 65.5067 8.08762 65.3142 7.58579C65.1217 7.07709 65.0255 6.52714 65.0255 5.93595C65.0255 5.12477 65.187 4.39953 65.5101 3.76022C65.8401 3.11403 66.2766 2.56751 66.8197 2.12068C67.3696 1.66697 67.9986 1.31982 68.7067 1.07922C69.4147 0.838615 70.1468 0.718314 70.903 0.718314C71.2399 0.718314 71.587 0.732063 71.9445 0.75956C72.302 0.780183 72.656 0.821429 73.0066 0.883298C73.364 0.945168 73.7112 1.02422 74.048 1.12046C74.3849 1.2167 74.7045 1.33701 75.007 1.48137L74.6152 5.66785C74.1477 5.50974 73.6562 5.37913 73.1406 5.27601C72.6319 5.16602 72.1335 5.11103 71.6455 5.11103C71.5561 5.11103 71.4392 5.11446 71.2949 5.12134C71.1574 5.12134 71.0096 5.13165 70.8515 5.15227C70.7002 5.16602 70.5456 5.19008 70.3874 5.22445C70.2293 5.25882 70.0884 5.30694 69.9647 5.36881C69.8409 5.42381 69.7413 5.49943 69.6656 5.59567C69.59 5.69191 69.5556 5.80533 69.5625 5.93595C69.5694 6.08718 69.6244 6.21092 69.7275 6.30716C69.8375 6.39653 69.975 6.46871 70.14 6.5237C70.3118 6.57183 70.4974 6.6062 70.6968 6.62682C70.903 6.64744 71.1058 6.66119 71.3052 6.66807C71.5045 6.66807 71.6901 6.66807 71.862 6.66807C72.0339 6.66119 72.1748 6.66463 72.2848 6.67838C72.8347 6.71275 73.3297 6.82961 73.7696 7.02897C74.2096 7.22833 74.5808 7.49299 74.8833 7.82296C75.1926 8.15293 75.4263 8.5482 75.5845 9.00878C75.7494 9.46249 75.8319 9.96432 75.8319 10.5143ZM92.7016 6.05969C92.7016 6.59589 92.6535 7.08396 92.5572 7.52392C92.4679 7.95701 92.3235 8.35572 92.1241 8.72006C91.9248 9.0844 91.667 9.42124 91.3508 9.73059C91.0346 10.0399 90.653 10.3355 90.2062 10.6174L92.6603 14.9895L88.0202 15.8969L86.4322 11.5042L85.1536 11.5454L84.9679 15.835H80.534C80.5684 14.2677 80.5993 12.7072 80.6268 11.1536C80.6612 9.59998 80.699 8.0395 80.7402 6.47215C80.754 5.6816 80.7677 4.89792 80.7815 4.12112C80.7952 3.34432 80.8227 2.56064 80.864 1.77009C81.3452 1.59136 81.8195 1.44356 82.2869 1.32669C82.7544 1.20983 83.2219 1.12046 83.6893 1.05859C84.1636 0.989851 84.6414 0.945168 85.1226 0.924545C85.6107 0.897047 86.1091 0.883298 86.6178 0.883298C87.4015 0.883298 88.1576 0.993288 88.8863 1.21327C89.6219 1.42637 90.2715 1.74947 90.8352 2.18255C91.3989 2.61564 91.8492 3.15527 92.186 3.80146C92.5297 4.44765 92.7016 5.20039 92.7016 6.05969ZM88.082 6.38965C88.082 6.10093 88.0408 5.83627 87.9583 5.59567C87.8827 5.35506 87.7658 5.14883 87.6077 4.97698C87.4565 4.79824 87.264 4.66076 87.0303 4.56451C86.8034 4.4614 86.5353 4.40984 86.226 4.40984C86.0885 4.40984 85.9544 4.42015 85.8238 4.44078C85.6932 4.45452 85.566 4.47858 85.4423 4.51296L85.2773 8.34885H85.5248C85.8204 8.34885 86.1194 8.31104 86.4219 8.23542C86.7312 8.1598 87.0062 8.04294 87.2468 7.88483C87.4943 7.72672 87.6936 7.52392 87.8449 7.27645C88.003 7.02897 88.082 6.73337 88.082 6.38965ZM98.9916 1.48137L97.8574 15.5257L93.5059 15.7525V1.77009L98.9916 1.48137ZM109.478 1.13078C109.437 1.77696 109.399 2.41628 109.365 3.04872C109.331 3.68116 109.286 4.32047 109.231 4.96666L104.859 5.19352V6.49277H108.654L108.447 9.68934L104.838 9.79246L104.859 15.8969L99.6413 16L99.9712 1.13078H109.478ZM121.646 15.1132L116.532 15.7731L115.913 13.4427H113.562L113.046 15.7731L107.787 15.2576L111.891 1.52261L117.625 1.23389L121.646 15.1132ZM115.542 10.2874L114.758 6.699L113.995 10.2874H115.542ZM132.422 10.5143C132.422 11.4561 132.257 12.281 131.927 12.989C131.604 13.6902 131.157 14.2745 130.586 14.742C130.022 15.2094 129.359 15.56 128.596 15.7938C127.84 16.0275 127.025 16.1444 126.152 16.1444C125.815 16.1444 125.444 16.0997 125.039 16.0103C124.64 15.9209 124.234 15.811 123.822 15.6803C123.409 15.5429 123.011 15.3985 122.626 15.2473C122.248 15.0891 121.911 14.9413 121.615 14.8039L122.069 10.5555C122.653 10.9061 123.299 11.1742 124.007 11.3598C124.722 11.5385 125.424 11.6279 126.111 11.6279C126.242 11.6279 126.4 11.6245 126.585 11.6176C126.771 11.6039 126.946 11.5729 127.111 11.5248C127.283 11.4698 127.427 11.3907 127.544 11.2876C127.661 11.1845 127.72 11.0367 127.72 10.8442C127.72 10.7136 127.678 10.6036 127.596 10.5143C127.513 10.418 127.407 10.3424 127.276 10.2874C127.146 10.2255 126.998 10.1809 126.833 10.1534C126.668 10.119 126.506 10.0949 126.348 10.0812C126.19 10.0674 126.042 10.0606 125.905 10.0606C125.767 10.0606 125.657 10.0606 125.575 10.0606C124.984 10.0606 124.444 9.95744 123.956 9.75121C123.475 9.54498 123.059 9.2597 122.708 8.89536C122.364 8.52414 122.096 8.08762 121.904 7.58579C121.711 7.07709 121.615 6.52714 121.615 5.93595C121.615 5.12477 121.777 4.39953 122.1 3.76022C122.43 3.11403 122.866 2.56751 123.409 2.12068C123.959 1.66697 124.588 1.31982 125.296 1.07922C126.004 0.838615 126.737 0.718314 127.493 0.718314C127.83 0.718314 128.177 0.732063 128.534 0.75956C128.892 0.780183 129.246 0.821429 129.596 0.883298C129.954 0.945168 130.301 1.02422 130.638 1.12046C130.975 1.2167 131.294 1.33701 131.597 1.48137L131.205 5.66785C130.737 5.50974 130.246 5.37913 129.73 5.27601C129.222 5.16602 128.723 5.11103 128.235 5.11103C128.146 5.11103 128.029 5.11446 127.885 5.12134C127.747 5.12134 127.599 5.13165 127.441 5.15227C127.29 5.16602 127.135 5.19008 126.977 5.22445C126.819 5.25882 126.678 5.30694 126.554 5.36881C126.431 5.42381 126.331 5.49943 126.255 5.59567C126.18 5.69191 126.145 5.80533 126.152 5.93595C126.159 6.08718 126.214 6.21092 126.317 6.30716C126.427 6.39653 126.565 6.46871 126.73 6.5237C126.901 6.57183 127.087 6.6062 127.286 6.62682C127.493 6.64744 127.695 6.66119 127.895 6.66807C128.094 6.66807 128.28 6.66807 128.452 6.66807C128.624 6.66119 128.764 6.66463 128.874 6.67838C129.424 6.71275 129.919 6.82961 130.359 7.02897C130.799 7.22833 131.17 7.49299 131.473 7.82296C131.782 8.15293 132.016 8.5482 132.174 9.00878C132.339 9.46249 132.422 9.96432 132.422 10.5143Z" fill="#CBCBCB"/>
</svg>
