<svg width="570" height="136" viewBox="0 0 570 136" fill="none" xmlns="http://www.w3.org/2000/svg">
<path d="M30.6896 31.0892L19.6694 32.5112L18.3363 27.4899H13.2705L12.1596 32.5112L0.828261 31.4003L9.67113 1.80554L22.0245 1.18343L30.6896 31.0892ZM17.5364 20.6911L15.8478 12.9591L14.2037 20.6911H17.5364ZM57.4404 28.0231C56.7443 28.897 55.8851 29.6599 54.8631 30.3116C53.8411 30.9633 52.745 31.504 51.5748 31.9335C50.4046 32.3631 49.2049 32.6889 47.9754 32.9111C46.746 33.1185 45.5759 33.2222 44.465 33.2222C42.3172 33.2222 40.3398 32.8593 38.5327 32.1335C36.7256 31.4077 35.1629 30.4005 33.8446 29.1118C32.5411 27.8083 31.5191 26.2605 30.7785 24.4682C30.0379 22.6759 29.6676 20.7207 29.6676 18.6026C29.6676 16.988 29.8527 15.4179 30.223 13.8923C30.5933 12.3666 31.1192 10.9373 31.8005 9.60416C32.4967 8.27106 33.341 7.04905 34.3334 5.93814C35.3258 4.82723 36.4516 3.87184 37.7106 3.07198C38.9696 2.27212 40.3472 1.65742 41.8432 1.22787C43.354 0.7835 44.9538 0.561317 46.6423 0.561317C47.2793 0.561317 47.9606 0.590942 48.6864 0.65019C49.4122 0.694627 50.1306 0.7835 50.8416 0.91681C51.5674 1.03531 52.271 1.20565 52.9523 1.42783C53.6337 1.65001 54.2558 1.92404 54.8187 2.24991L54.1966 10.7373C53.3671 10.4262 52.508 10.2189 51.6192 10.1152C50.7453 9.99668 49.8862 9.93743 49.0419 9.93743C47.8569 9.93743 46.746 10.1004 45.7092 10.4262C44.6871 10.7373 43.791 11.2039 43.0208 11.826C42.2653 12.4481 41.6655 13.2257 41.2211 14.1589C40.7767 15.0921 40.5545 16.1734 40.5545 17.4028C40.5545 18.173 40.6582 18.921 40.8656 19.6468C41.073 20.3578 41.384 20.9947 41.7988 21.5576C42.2283 22.1056 42.7541 22.55 43.3763 22.8907C44.0132 23.2314 44.7464 23.4017 45.5759 23.4017C46.1387 23.4017 46.7164 23.3276 47.3089 23.1795C47.9162 23.0314 48.4346 22.7796 48.8642 22.4241L48.953 20.6911L43.6207 20.6022L43.8873 13.9367C46.0943 13.8627 48.3013 13.8034 50.5083 13.759C52.7153 13.6997 54.9372 13.6257 57.1738 13.5368L57.4404 28.0231ZM86.613 15.9808C86.613 17.3287 86.4575 18.6322 86.1464 19.8912C85.8354 21.1354 85.3836 22.3056 84.7911 23.4017C84.2135 24.4978 83.5025 25.505 82.6582 26.4234C81.8287 27.3269 80.8881 28.1046 79.8365 28.7563C78.7996 29.408 77.6665 29.9191 76.4371 30.2894C75.2076 30.6449 73.9042 30.8226 72.5266 30.8226C71.1935 30.8226 69.9197 30.6523 68.7051 30.3116C67.5053 29.9709 66.3796 29.4969 65.3279 28.8896C64.2763 28.2675 63.3209 27.5269 62.4618 26.6678C61.6175 25.7939 60.8917 24.8311 60.2844 23.7794C59.6919 22.7129 59.2253 21.5724 58.8846 20.3578C58.5587 19.1432 58.3958 17.8768 58.3958 16.5585C58.3958 15.2698 58.5513 14.0108 58.8624 12.7814C59.1735 11.5371 59.6178 10.367 60.1955 9.27088C60.788 8.17478 61.499 7.16755 62.3285 6.2492C63.1579 5.33084 64.0837 4.53839 65.1057 3.87184C66.1426 3.20529 67.2609 2.68687 68.4607 2.31656C69.6605 1.94626 70.9269 1.7611 72.26 1.7611C74.4078 1.7611 76.363 2.09438 78.1256 2.76093C79.9031 3.42747 81.4139 4.38286 82.6582 5.62708C83.9172 6.8565 84.8874 8.35253 85.5688 10.1152C86.2649 11.863 86.613 13.8182 86.613 15.9808ZM76.7481 16.5585C76.7481 15.9216 76.6518 15.3068 76.4593 14.7144C76.2815 14.1071 76.0149 13.5738 75.6594 13.1146C75.3039 12.6407 74.8596 12.2629 74.3263 11.9815C73.8079 11.6853 73.208 11.5371 72.5266 11.5371C71.8305 11.5371 71.2084 11.663 70.6603 11.9149C70.1123 12.1667 69.6383 12.5147 69.2383 12.9591C68.8532 13.3887 68.557 13.8997 68.3496 14.4922C68.1422 15.0699 68.0385 15.6846 68.0385 16.3363C68.0385 16.9584 68.1274 17.5805 68.3052 18.2026C68.4829 18.8247 68.7495 19.3876 69.105 19.8912C69.4605 20.3948 69.8975 20.8022 70.4159 21.1132C70.9491 21.4243 71.5638 21.5798 72.26 21.5798C72.9562 21.5798 73.5783 21.4465 74.1264 21.1799C74.6892 20.8984 75.1632 20.5281 75.5483 20.069C75.9334 19.595 76.2297 19.0543 76.4371 18.447C76.6444 17.8397 76.7481 17.2102 76.7481 16.5585ZM114.208 11.5816C114.208 12.7369 114.104 13.7886 113.897 14.7366C113.705 15.6697 113.393 16.5289 112.964 17.3139C112.534 18.0989 111.979 18.8247 111.298 19.4913C110.616 20.1578 109.794 20.7948 108.831 21.4021L114.119 30.8226L104.121 32.7778L100.699 23.3128L97.9443 23.4017L97.5444 32.6445H87.9906C88.0646 29.2673 88.1313 25.905 88.1905 22.5574C88.2646 19.2099 88.346 15.8475 88.4349 12.4703C88.4645 10.7669 88.4942 9.07832 88.5238 7.40455C88.5534 5.73077 88.6127 4.04218 88.7015 2.33878C89.7384 1.95366 90.7604 1.6352 91.7677 1.38339C92.7749 1.13159 93.7821 0.939028 94.7893 0.805718C95.8114 0.657597 96.8408 0.561317 97.8777 0.516881C98.9294 0.457632 100.003 0.428008 101.099 0.428008C102.788 0.428008 104.417 0.665003 105.987 1.13899C107.572 1.59817 108.972 2.29434 110.187 3.22751C111.401 4.16068 112.371 5.32343 113.097 6.71578C113.838 8.10812 114.208 9.73006 114.208 11.5816ZM104.254 12.2926C104.254 11.6705 104.165 11.1002 103.988 10.5818C103.825 10.0633 103.573 9.61897 103.232 9.24866C102.906 8.86355 102.492 8.5673 101.988 8.35993C101.499 8.13775 100.922 8.02666 100.255 8.02666C99.9588 8.02666 99.67 8.04888 99.3885 8.09331C99.1071 8.12294 98.8331 8.17478 98.5665 8.24884L98.211 16.514H98.7442C99.3811 16.514 100.025 16.4326 100.677 16.2696C101.344 16.1067 101.936 15.8549 102.455 15.5142C102.988 15.1735 103.417 14.7366 103.743 14.2033C104.084 13.6701 104.254 13.0332 104.254 12.2926ZM143.781 31.0892L132.76 32.5112L131.427 27.4899H126.362L125.251 32.5112L113.919 31.4003L122.762 1.80554L135.116 1.18343L143.781 31.0892ZM130.627 20.6911L128.939 12.9591L127.295 20.6911H130.627ZM178.997 25.0903C178.997 26.3197 178.767 27.3788 178.308 28.2675C177.863 29.1562 177.264 29.9117 176.508 30.5338C175.753 31.1559 174.879 31.6669 173.886 32.0668C172.909 32.4519 171.887 32.7556 170.82 32.9778C169.754 33.2 168.68 33.3481 167.599 33.4221C166.532 33.4962 165.532 33.5332 164.599 33.5332C163.681 33.5332 162.725 33.4962 161.733 33.4221C160.755 33.3629 159.778 33.2518 158.8 33.0889C157.823 32.9259 156.86 32.7112 155.912 32.4445C154.964 32.1631 154.068 31.815 153.223 31.4003L153.179 2.78314C154.008 2.44246 154.89 2.13881 155.823 1.8722C156.756 1.59076 157.704 1.36118 158.667 1.18343C159.644 0.990871 160.615 0.850155 161.577 0.761282C162.54 0.657597 163.473 0.605754 164.377 0.605754C165.429 0.605754 166.488 0.672409 167.554 0.805718C168.635 0.939028 169.672 1.16121 170.665 1.47227C171.657 1.78332 172.583 2.19066 173.442 2.69427C174.301 3.18307 175.049 3.79037 175.686 4.51617C176.338 5.24197 176.841 6.08626 177.197 7.04905C177.567 8.01185 177.752 9.12276 177.752 10.3818C177.752 11.2113 177.634 11.9889 177.397 12.7147C177.16 13.4405 176.819 14.0922 176.375 14.6699C175.93 15.2476 175.39 15.7438 174.753 16.1585C174.116 16.5585 173.398 16.8547 172.598 17.0473C173.561 17.2991 174.434 17.6694 175.22 18.1582C176.019 18.647 176.693 19.2395 177.241 19.9357C177.804 20.6318 178.234 21.4169 178.53 22.2908C178.841 23.1647 178.997 24.0979 178.997 25.0903ZM167.71 12.4259C167.71 11.9963 167.621 11.6334 167.443 11.3372C167.265 11.0261 167.043 10.7743 166.777 10.5818C166.525 10.3892 166.243 10.2485 165.932 10.1596C165.636 10.0707 165.369 10.0263 165.132 10.0263C164.836 10.0263 164.547 10.0707 164.266 10.1596C163.984 10.2485 163.71 10.3522 163.444 10.4707L163.311 15.4031C163.651 15.4031 164.073 15.3735 164.577 15.3143C165.081 15.255 165.562 15.1291 166.021 14.9365C166.495 14.7292 166.895 14.4329 167.221 14.0478C167.547 13.6479 167.71 13.1072 167.71 12.4259ZM164.555 19.669C164.125 19.669 163.71 19.7135 163.311 19.8023L163.222 24.8681C163.444 24.9125 163.659 24.957 163.866 25.0014C164.088 25.031 164.303 25.0459 164.51 25.0459C164.821 25.0459 165.162 25.0162 165.532 24.957C165.903 24.8829 166.251 24.7496 166.577 24.5571C166.902 24.3497 167.169 24.0757 167.376 23.735C167.599 23.3943 167.71 22.9425 167.71 22.3797C167.71 21.8168 167.599 21.3576 167.376 21.0021C167.169 20.6466 166.91 20.3726 166.599 20.1801C166.288 19.9727 165.947 19.8394 165.577 19.7801C165.206 19.7061 164.866 19.669 164.555 19.669ZM208.214 31.0892L197.193 32.5112L195.86 27.4899H190.795L189.684 32.5112L178.352 31.4003L187.195 1.80554L199.549 1.18343L208.214 31.0892ZM195.06 20.6911L193.372 12.9591L191.728 20.6911H195.06ZM231.454 21.6242C231.454 23.6535 231.098 25.4088 230.387 26.89C229.691 28.3564 228.729 29.571 227.499 30.5338C226.285 31.4818 224.855 32.1853 223.211 32.6445C221.582 33.0889 219.826 33.3111 217.945 33.3111C217.219 33.3111 216.42 33.2148 215.546 33.0222C214.687 32.8297 213.813 32.5927 212.924 32.3112C212.035 32.015 211.176 31.7039 210.347 31.3781C209.532 31.0374 208.806 30.7189 208.169 30.4227L209.147 21.7131C210.406 22.4685 211.798 23.0462 213.324 23.4461C214.864 23.8313 216.375 24.0238 217.856 24.0238C218.138 24.0238 218.478 24.0164 218.878 24.0016C219.278 23.972 219.656 23.9053 220.012 23.8016C220.382 23.6831 220.693 23.5128 220.945 23.2906C221.197 23.0684 221.322 22.75 221.322 22.3352C221.322 22.0538 221.234 21.8168 221.056 21.6242C220.878 21.4169 220.648 21.2539 220.367 21.1354C220.086 21.0021 219.767 20.9059 219.412 20.8466C219.056 20.7725 218.708 20.7207 218.367 20.6911C218.027 20.6615 217.708 20.6466 217.412 20.6466C217.116 20.6466 216.879 20.6466 216.701 20.6466C215.427 20.6466 214.264 20.4467 213.213 20.0467C212.176 19.6468 211.28 19.084 210.524 18.3582C209.784 17.6175 209.206 16.7288 208.791 15.692C208.377 14.6403 208.169 13.4775 208.169 12.2037C208.169 10.4559 208.517 8.89317 209.213 7.51564C209.924 6.12329 210.865 4.94572 212.035 3.98293C213.22 3.00533 214.575 2.25731 216.101 1.73889C217.627 1.22046 219.204 0.961246 220.834 0.961246C221.559 0.961246 222.307 0.990871 223.078 1.05012C223.848 1.09456 224.611 1.18343 225.366 1.31674C226.136 1.45005 226.884 1.62039 227.61 1.82776C228.336 2.03513 229.025 2.29434 229.677 2.6054L228.832 11.626C227.825 11.2853 226.766 11.0039 225.655 10.7817C224.559 10.5447 223.485 10.4262 222.433 10.4262C222.241 10.4262 221.989 10.4336 221.678 10.4485C221.382 10.4485 221.063 10.4707 220.723 10.5151C220.397 10.5447 220.063 10.5966 219.723 10.6706C219.382 10.7447 219.078 10.8484 218.812 10.9817C218.545 11.1002 218.33 11.2631 218.167 11.4705C218.005 11.6779 217.93 11.9223 217.945 12.2037C217.96 12.5296 218.079 12.7814 218.301 12.9591C218.538 13.1369 218.834 13.2702 219.189 13.359C219.56 13.4331 219.96 13.4701 220.389 13.4701C220.834 13.4701 221.271 13.4627 221.7 13.4479C222.13 13.4183 222.53 13.3961 222.9 13.3813C223.27 13.3516 223.574 13.3442 223.811 13.359C224.996 13.4331 226.062 13.6849 227.01 14.1145C227.958 14.544 228.758 15.1143 229.41 15.8253C230.076 16.5363 230.58 17.388 230.921 18.3804C231.276 19.358 231.454 20.4393 231.454 21.6242ZM255.894 1.67223L255.672 11.0928L249.051 11.3594L248.251 31.978L238.875 32.4668L238.031 11.8482L231.41 12.2037L231.676 1.71667L255.894 1.67223ZM282.289 31.0892L271.269 32.5112L269.936 27.4899H264.87L263.759 32.5112L252.428 31.4003L261.271 1.80554L273.624 1.18343L282.289 31.0892ZM269.136 20.6911L267.448 12.9591L265.803 20.6911H269.136ZM312.839 2.64984L312.04 12.0259C311.61 11.9075 311.188 11.826 310.773 11.7815C310.358 11.7371 309.936 11.7149 309.507 11.7149C308.455 11.7149 307.448 11.8482 306.485 12.1148C305.537 12.3814 304.693 12.7888 303.952 13.3368C303.226 13.8849 302.641 14.581 302.197 15.4253C301.767 16.2548 301.553 17.2398 301.553 18.3804C301.553 19.2099 301.671 19.9357 301.908 20.5578C302.16 21.1651 302.508 21.6761 302.952 22.0908C303.412 22.4908 303.96 22.7944 304.597 23.0018C305.248 23.2091 305.967 23.3128 306.752 23.3128C307.3 23.3128 307.863 23.261 308.44 23.1573C309.018 23.0388 309.596 22.8833 310.173 22.6907C310.751 22.4982 311.306 22.276 311.84 22.0242C312.373 21.7724 312.869 21.5057 313.328 21.2243L312.973 31.6669C312.395 31.9631 311.773 32.2298 311.106 32.4668C310.44 32.6889 309.751 32.8815 309.04 33.0444C308.344 33.2222 307.64 33.3555 306.929 33.4444C306.233 33.5332 305.567 33.5777 304.93 33.5777C302.826 33.5777 300.908 33.1852 299.175 32.4001C297.457 31.6151 295.976 30.5486 294.732 29.2007C293.502 27.838 292.547 26.2605 291.865 24.4682C291.184 22.6759 290.843 20.7651 290.843 18.7359C290.843 16.3067 291.184 14.0404 291.865 11.9371C292.562 9.83374 293.576 8.01185 294.909 6.47138C296.257 4.9161 297.916 3.7015 299.886 2.82758C301.871 1.93885 304.145 1.49448 306.707 1.49448C307.729 1.49448 308.766 1.57595 309.818 1.73889C310.869 1.90182 311.877 2.20547 312.839 2.64984ZM342.034 15.9808C342.034 17.3287 341.879 18.6322 341.568 19.8912C341.257 21.1354 340.805 22.3056 340.212 23.4017C339.635 24.4978 338.924 25.505 338.079 26.4234C337.25 27.3269 336.309 28.1046 335.258 28.7563C334.221 29.408 333.088 29.9191 331.858 30.2894C330.629 30.6449 329.325 30.8226 327.948 30.8226C326.615 30.8226 325.341 30.6523 324.126 30.3116C322.927 29.9709 321.801 29.4969 320.749 28.8896C319.698 28.2675 318.742 27.5269 317.883 26.6678C317.039 25.7939 316.313 24.8311 315.706 23.7794C315.113 22.7129 314.647 21.5724 314.306 20.3578C313.98 19.1432 313.817 17.8768 313.817 16.5585C313.817 15.2698 313.973 14.0108 314.284 12.7814C314.595 11.5371 315.039 10.367 315.617 9.27088C316.209 8.17478 316.92 7.16755 317.75 6.2492C318.579 5.33084 319.505 4.53839 320.527 3.87184C321.564 3.20529 322.682 2.68687 323.882 2.31656C325.082 1.94626 326.348 1.7611 327.681 1.7611C329.829 1.7611 331.784 2.09438 333.547 2.76093C335.324 3.42747 336.835 4.38286 338.079 5.62708C339.338 6.8565 340.309 8.35253 340.99 10.1152C341.686 11.863 342.034 13.8182 342.034 15.9808ZM332.169 16.5585C332.169 15.9216 332.073 15.3068 331.881 14.7144C331.703 14.1071 331.436 13.5738 331.081 13.1146C330.725 12.6407 330.281 12.2629 329.748 11.9815C329.229 11.6853 328.629 11.5371 327.948 11.5371C327.252 11.5371 326.63 11.663 326.082 11.9149C325.534 12.1667 325.06 12.5147 324.66 12.9591C324.275 13.3887 323.978 13.8997 323.771 14.4922C323.564 15.0699 323.46 15.6846 323.46 16.3363C323.46 16.9584 323.549 17.5805 323.726 18.2026C323.904 18.8247 324.171 19.3876 324.526 19.8912C324.882 20.3948 325.319 20.8022 325.837 21.1132C326.37 21.4243 326.985 21.5798 327.681 21.5798C328.377 21.5798 329 21.4465 329.548 21.1799C330.111 20.8984 330.584 20.5281 330.97 20.069C331.355 19.595 331.651 19.0543 331.858 18.447C332.066 17.8397 332.169 17.2102 332.169 16.5585ZM370.896 21.7576C370.896 23.4313 370.874 25.0903 370.829 26.7344C370.8 28.3638 370.748 30.0079 370.674 31.6669L357.876 31.4447C358.32 28.823 358.705 26.2086 359.031 23.6017C359.357 20.9799 359.52 18.3359 359.52 15.6697C359.52 15.4772 359.513 15.1661 359.498 14.7366C359.483 14.307 359.453 13.8256 359.409 13.2924C359.365 12.7443 359.298 12.1889 359.209 11.626C359.135 11.0483 359.024 10.5225 358.876 10.0485C358.742 9.57453 358.572 9.18941 358.365 8.89317C358.172 8.58211 357.935 8.42659 357.654 8.42659C357.15 8.42659 356.721 8.57471 356.365 8.87095C356.024 9.1672 355.736 9.55231 355.499 10.0263C355.276 10.4855 355.099 11.0039 354.965 11.5816C354.832 12.1593 354.728 12.7369 354.654 13.3146C354.595 13.8923 354.551 14.4403 354.521 14.9588C354.506 15.4624 354.499 15.8771 354.499 16.203C354.425 18.8247 354.365 21.4317 354.321 24.0238C354.277 26.6011 354.217 29.2081 354.143 31.8446L342.812 32.3335C343.108 27.1048 343.39 21.9057 343.656 16.7362C343.938 11.5668 344.16 6.36769 344.323 1.13899L354.81 0.605754L354.721 4.16068C355.136 3.65706 355.58 3.18307 356.054 2.73871C356.543 2.29434 357.061 1.91663 357.609 1.60558C358.157 1.27971 358.735 1.0279 359.342 0.850155C359.964 0.657597 360.616 0.561317 361.298 0.561317C362.557 0.561317 363.66 0.768688 364.608 1.18343C365.556 1.59817 366.371 2.16103 367.052 2.87202C367.733 3.583 368.304 4.4273 368.763 5.4049C369.222 6.36769 369.592 7.39714 369.874 8.49324C370.155 9.58934 370.37 10.7373 370.518 11.9371C370.666 13.122 370.763 14.2922 370.807 15.4476C370.866 16.6029 370.896 17.7212 370.896 18.8025C370.896 19.8838 370.896 20.8688 370.896 21.7576ZM394.025 1.40561C393.936 2.79796 393.855 4.17549 393.781 5.53821C393.707 6.90093 393.61 8.27847 393.492 9.67081L384.071 10.1596V12.9591H392.248L391.803 19.8468L384.027 20.069L384.071 32.3335L372.829 32.5556L373.54 1.40561H394.025ZM405.845 1.71667L404.29 31.978L394.914 32.4668L394.025 2.33878L405.845 1.71667ZM433.707 11.5816C433.707 12.7369 433.603 13.7886 433.396 14.7366C433.203 15.6697 432.892 16.5289 432.463 17.3139C432.033 18.0989 431.478 18.8247 430.796 19.4913C430.115 20.1578 429.293 20.7948 428.33 21.4021L433.618 30.8226L423.62 32.7778L420.198 23.3128L417.443 23.4017L417.043 32.6445H407.489C407.563 29.2673 407.63 25.905 407.689 22.5574C407.763 19.2099 407.845 15.8475 407.934 12.4703C407.963 10.7669 407.993 9.07832 408.023 7.40455C408.052 5.73077 408.111 4.04218 408.2 2.33878C409.237 1.95366 410.259 1.6352 411.266 1.38339C412.274 1.13159 413.281 0.939028 414.288 0.805718C415.31 0.657597 416.34 0.561317 417.376 0.516881C418.428 0.457632 419.502 0.428008 420.598 0.428008C422.287 0.428008 423.916 0.665003 425.486 1.13899C427.071 1.59817 428.471 2.29434 429.685 3.22751C430.9 4.16068 431.87 5.32343 432.596 6.71578C433.337 8.10812 433.707 9.73006 433.707 11.5816ZM423.753 12.2926C423.753 11.6705 423.664 11.1002 423.487 10.5818C423.324 10.0633 423.072 9.61897 422.731 9.24866C422.405 8.86355 421.99 8.5673 421.487 8.35993C420.998 8.13775 420.42 8.02666 419.754 8.02666C419.458 8.02666 419.169 8.04888 418.887 8.09331C418.606 8.12294 418.332 8.17478 418.065 8.24884L417.71 16.514H418.243C418.88 16.514 419.524 16.4326 420.176 16.2696C420.843 16.1067 421.435 15.8549 421.953 15.5142C422.487 15.1735 422.916 14.7366 423.242 14.2033C423.583 13.6701 423.753 13.0332 423.753 12.2926ZM474.1 17.936C474.1 20.0542 474.033 22.1649 473.9 24.2682C473.766 26.3715 473.611 28.4823 473.433 30.6004L462.013 31.1337C462.354 28.5563 462.657 25.979 462.924 23.4017C463.205 20.8096 463.346 18.2174 463.346 15.6253C463.346 15.4624 463.339 15.1809 463.324 14.781C463.309 14.3663 463.279 13.8997 463.235 13.3813C463.205 12.8628 463.154 12.3296 463.08 11.7815C463.02 11.2187 462.931 10.7077 462.813 10.2485C462.709 9.7745 462.576 9.38938 462.413 9.09314C462.25 8.79689 462.057 8.64877 461.835 8.64877C461.317 8.64877 460.91 8.84873 460.613 9.24866C460.317 9.63378 460.095 10.1004 459.947 10.6484C459.813 11.1965 459.732 11.7593 459.702 12.337C459.673 12.8999 459.658 13.359 459.658 13.7145C459.658 14.3366 459.673 14.9588 459.702 15.5809C459.732 16.203 459.747 16.8399 459.747 17.4916C459.747 19.7875 459.688 22.076 459.569 24.3571C459.465 26.6382 459.332 28.9266 459.169 31.2225L448.638 31.6225C448.978 29.0451 449.275 26.4752 449.526 23.9127C449.793 21.3354 449.926 18.7507 449.926 16.1585C449.926 15.9956 449.919 15.6994 449.904 15.2698C449.889 14.8403 449.86 14.3589 449.815 13.8256C449.786 13.2924 449.734 12.7369 449.66 12.1593C449.586 11.5816 449.489 11.0557 449.371 10.5818C449.267 10.093 449.134 9.69303 448.971 9.38197C448.808 9.07092 448.608 8.91539 448.371 8.91539C448.001 8.91539 447.69 9.06351 447.438 9.35975C447.186 9.64119 446.979 10.0115 446.816 10.4707C446.668 10.9298 446.549 11.4409 446.46 12.0037C446.386 12.5518 446.327 13.0924 446.282 13.6257C446.253 14.1589 446.231 14.6551 446.216 15.1143C446.216 15.5587 446.208 15.8919 446.194 16.1141L445.705 32.3335H434.507C434.744 29.8302 434.981 27.3195 435.218 24.8015C435.47 22.2834 435.684 19.7727 435.862 17.2695C436.055 14.7514 436.21 12.2333 436.329 9.71525C436.447 7.19718 436.506 4.6791 436.506 2.16103L447.082 1.71667L447.038 4.29399C447.364 3.87925 447.734 3.46451 448.149 3.04976C448.564 2.62021 449.001 2.2425 449.46 1.91663C449.934 1.57595 450.43 1.30193 450.948 1.09456C451.482 0.887185 452.03 0.7835 452.592 0.7835C453.318 0.7835 453.97 0.842749 454.548 0.961246C455.125 1.06493 455.644 1.25008 456.103 1.5167C456.577 1.78332 456.992 2.15363 457.347 2.62762C457.703 3.08679 458.014 3.67188 458.28 4.38286C458.754 3.86443 459.228 3.38304 459.702 2.93867C460.191 2.49431 460.702 2.1166 461.235 1.80554C461.769 1.47967 462.346 1.22787 462.968 1.05012C463.591 0.872373 464.279 0.7835 465.035 0.7835C466.471 0.7835 467.693 1.06493 468.701 1.62779C469.708 2.17585 470.545 2.90905 471.211 3.8274C471.893 4.74576 472.419 5.79742 472.789 6.9824C473.174 8.16737 473.463 9.39678 473.655 10.6706C473.848 11.9445 473.966 13.2109 474.011 14.47C474.07 15.729 474.1 16.8843 474.1 17.936ZM504.161 31.0892L493.141 32.5112L491.808 27.4899H486.742L485.631 32.5112L474.3 31.4003L483.143 1.80554L495.496 1.18343L504.161 31.0892ZM491.008 20.6911L489.319 12.9591L487.675 20.6911H491.008ZM530.667 11.5816C530.667 12.7369 530.564 13.7886 530.356 14.7366C530.164 15.6697 529.853 16.5289 529.423 17.3139C528.994 18.0989 528.438 18.8247 527.757 19.4913C527.076 20.1578 526.253 20.7948 525.291 21.4021L530.579 30.8226L520.58 32.7778L517.159 23.3128L514.404 23.4017L514.004 32.6445H504.45C504.524 29.2673 504.591 25.905 504.65 22.5574C504.724 19.2099 504.805 15.8475 504.894 12.4703C504.924 10.7669 504.954 9.07832 504.983 7.40455C505.013 5.73077 505.072 4.04218 505.161 2.33878C506.198 1.95366 507.22 1.6352 508.227 1.38339C509.234 1.13159 510.241 0.939028 511.249 0.805718C512.271 0.657597 513.3 0.561317 514.337 0.516881C515.389 0.457632 516.463 0.428008 517.559 0.428008C519.247 0.428008 520.877 0.665003 522.447 1.13899C524.032 1.59817 525.431 2.29434 526.646 3.22751C527.861 4.16068 528.831 5.32343 529.557 6.71578C530.297 8.10812 530.667 9.73006 530.667 11.5816ZM520.714 12.2926C520.714 11.6705 520.625 11.1002 520.447 10.5818C520.284 10.0633 520.032 9.61897 519.692 9.24866C519.366 8.86355 518.951 8.5673 518.447 8.35993C517.959 8.13775 517.381 8.02666 516.714 8.02666C516.418 8.02666 516.129 8.04888 515.848 8.09331C515.566 8.12294 515.292 8.17478 515.026 8.24884L514.67 16.514H515.204C515.84 16.514 516.485 16.4326 517.137 16.2696C517.803 16.1067 518.396 15.8549 518.914 15.5142C519.447 15.1735 519.877 14.7366 520.203 14.2033C520.543 13.6701 520.714 13.0332 520.714 12.2926ZM569.127 31.0892L558.107 32.5112L556.774 27.4899H551.708L550.597 32.5112L539.266 31.4003L548.109 1.80554L560.462 1.18343L569.127 31.0892ZM555.974 20.6911L554.285 12.9591L552.641 20.6911H555.974ZM212.991 48.6498L212.191 58.0259C211.761 57.9075 211.339 57.826 210.924 57.7815C210.51 57.7371 210.087 57.7149 209.658 57.7149C208.606 57.7149 207.599 57.8482 206.636 58.1148C205.688 58.3814 204.844 58.7888 204.103 59.3368C203.377 59.8849 202.792 60.581 202.348 61.4253C201.918 62.2548 201.704 63.2398 201.704 64.3804C201.704 65.2099 201.822 65.9357 202.059 66.5578C202.311 67.1651 202.659 67.6761 203.103 68.0908C203.563 68.4908 204.111 68.7944 204.748 69.0018C205.399 69.2091 206.118 69.3128 206.903 69.3128C207.451 69.3128 208.014 69.261 208.591 69.1573C209.169 69.0388 209.747 68.8833 210.324 68.6907C210.902 68.4982 211.458 68.276 211.991 68.0242C212.524 67.7724 213.02 67.5057 213.479 67.2243L213.124 77.6669C212.546 77.9631 211.924 78.2298 211.258 78.4668C210.591 78.6889 209.902 78.8815 209.191 79.0444C208.495 79.2222 207.791 79.3555 207.08 79.4444C206.384 79.5332 205.718 79.5777 205.081 79.5777C202.978 79.5777 201.059 79.1852 199.326 78.4001C197.608 77.6151 196.127 76.5486 194.883 75.2007C193.653 73.838 192.698 72.2605 192.017 70.4682C191.335 68.6759 190.994 66.7651 190.994 64.7359C190.994 62.3067 191.335 60.0404 192.017 57.9371C192.713 55.8337 193.727 54.0118 195.06 52.4714C196.408 50.9161 198.067 49.7015 200.037 48.8276C202.022 47.9389 204.296 47.4945 206.858 47.4945C207.88 47.4945 208.917 47.576 209.969 47.7389C211.021 47.9018 212.028 48.2055 212.991 48.6498ZM242.185 61.9808C242.185 63.3287 242.03 64.6322 241.719 65.8912C241.408 67.1354 240.956 68.3056 240.363 69.4017C239.786 70.4978 239.075 71.505 238.231 72.4234C237.401 73.3269 236.46 74.1046 235.409 74.7563C234.372 75.408 233.239 75.9191 232.009 76.2894C230.78 76.6449 229.477 76.8226 228.099 76.8226C226.766 76.8226 225.492 76.6523 224.277 76.3116C223.078 75.9709 221.952 75.4969 220.9 74.8896C219.849 74.2675 218.893 73.5269 218.034 72.6678C217.19 71.7939 216.464 70.8311 215.857 69.7794C215.264 68.7129 214.798 67.5724 214.457 66.3578C214.131 65.1432 213.968 63.8768 213.968 62.5585C213.968 61.2698 214.124 60.0108 214.435 58.7814C214.746 57.5371 215.19 56.367 215.768 55.2709C216.36 54.1748 217.071 53.1676 217.901 52.2492C218.73 51.3308 219.656 50.5384 220.678 49.8718C221.715 49.2053 222.833 48.6869 224.033 48.3166C225.233 47.9463 226.499 47.7611 227.832 47.7611C229.98 47.7611 231.935 48.0944 233.698 48.7609C235.475 49.4275 236.986 50.3829 238.231 51.6271C239.49 52.8565 240.46 54.3525 241.141 56.1152C241.837 57.863 242.185 59.8182 242.185 61.9808ZM232.32 62.5585C232.32 61.9216 232.224 61.3068 232.032 60.7144C231.854 60.1071 231.587 59.5738 231.232 59.1146C230.876 58.6407 230.432 58.2629 229.899 57.9815C229.38 57.6853 228.78 57.5371 228.099 57.5371C227.403 57.5371 226.781 57.663 226.233 57.9149C225.685 58.1667 225.211 58.5147 224.811 58.9591C224.426 59.3887 224.129 59.8997 223.922 60.4922C223.715 61.0699 223.611 61.6846 223.611 62.3363C223.611 62.9584 223.7 63.5805 223.878 64.2026C224.055 64.8247 224.322 65.3876 224.677 65.8912C225.033 66.3948 225.47 66.8022 225.988 67.1132C226.521 67.4243 227.136 67.5798 227.832 67.5798C228.529 67.5798 229.151 67.4465 229.699 67.1799C230.262 66.8984 230.736 66.5281 231.121 66.069C231.506 65.595 231.802 65.0543 232.009 64.447C232.217 63.8397 232.32 63.2102 232.32 62.5585ZM282.178 63.936C282.178 66.0542 282.112 68.1649 281.978 70.2682C281.845 72.3715 281.689 74.4823 281.512 76.6004L270.092 77.1337C270.432 74.5563 270.736 71.979 271.002 69.4017C271.284 66.8096 271.425 64.2174 271.425 61.6253C271.425 61.4624 271.417 61.1809 271.402 60.781C271.388 60.3663 271.358 59.8997 271.314 59.3813C271.284 58.8628 271.232 58.3296 271.158 57.7815C271.099 57.2187 271.01 56.7077 270.891 56.2485C270.788 55.7745 270.654 55.3894 270.491 55.0931C270.329 54.7969 270.136 54.6488 269.914 54.6488C269.395 54.6488 268.988 54.8487 268.692 55.2487C268.396 55.6338 268.173 56.1004 268.025 56.6484C267.892 57.1965 267.81 57.7593 267.781 58.337C267.751 58.8999 267.736 59.359 267.736 59.7145C267.736 60.3366 267.751 60.9588 267.781 61.5809C267.81 62.203 267.825 62.8399 267.825 63.4916C267.825 65.7875 267.766 68.076 267.648 70.3571C267.544 72.6382 267.411 74.9266 267.248 77.2225L256.716 77.6225C257.057 75.0451 257.353 72.4752 257.605 69.9127C257.871 67.3354 258.005 64.7507 258.005 62.1585C258.005 61.9956 257.997 61.6994 257.983 61.2698C257.968 60.8403 257.938 60.3589 257.894 59.8256C257.864 59.2924 257.812 58.7369 257.738 58.1593C257.664 57.5816 257.568 57.0557 257.449 56.5818C257.346 56.093 257.212 55.693 257.049 55.382C256.886 55.0709 256.686 54.9154 256.449 54.9154C256.079 54.9154 255.768 55.0635 255.516 55.3598C255.265 55.6412 255.057 56.0115 254.894 56.4707C254.746 56.9298 254.628 57.4409 254.539 58.0037C254.465 58.5518 254.405 59.0924 254.361 59.6257C254.331 60.1589 254.309 60.6551 254.294 61.1143C254.294 61.5587 254.287 61.8919 254.272 62.1141L253.783 78.3335H242.585C242.822 75.8302 243.059 73.3195 243.296 70.8015C243.548 68.2834 243.763 65.7727 243.941 63.2695C244.133 60.7514 244.289 58.2333 244.407 55.7152C244.526 53.1972 244.585 50.6791 244.585 48.161L255.161 47.7167L255.116 50.294C255.442 49.8792 255.813 49.4645 256.227 49.0498C256.642 48.6202 257.079 48.2425 257.538 47.9166C258.012 47.576 258.508 47.3019 259.027 47.0946C259.56 46.8872 260.108 46.7835 260.671 46.7835C261.397 46.7835 262.049 46.8427 262.626 46.9612C263.204 47.0649 263.722 47.2501 264.181 47.5167C264.655 47.7833 265.07 48.1536 265.426 48.6276C265.781 49.0868 266.092 49.6719 266.359 50.3829C266.833 49.8644 267.307 49.383 267.781 48.9387C268.27 48.4943 268.781 48.1166 269.314 47.8055C269.847 47.4797 270.425 47.2279 271.047 47.0501C271.669 46.8724 272.358 46.7835 273.113 46.7835C274.55 46.7835 275.772 47.0649 276.779 47.6278C277.786 48.1758 278.623 48.909 279.29 49.8274C279.971 50.7458 280.497 51.7974 280.867 52.9824C281.252 54.1674 281.541 55.3968 281.734 56.6706C281.926 57.9445 282.045 59.2109 282.089 60.47C282.149 61.729 282.178 62.8843 282.178 63.936ZM310.107 58.5147C310.107 59.9515 309.892 61.2254 309.462 62.3363C309.033 63.4472 308.44 64.4248 307.685 65.2691C306.944 66.0986 306.07 66.8022 305.063 67.3798C304.056 67.9427 302.975 68.4093 301.819 68.7796C300.679 69.1351 299.494 69.4017 298.264 69.5795C297.035 69.7424 295.828 69.8313 294.643 69.8461V79.3111H284.289C284.289 77.6225 284.289 75.9783 284.289 74.3786C284.304 72.7789 284.311 71.194 284.311 69.6239C284.326 68.039 284.333 66.4467 284.333 64.847C284.348 63.2472 284.363 61.5957 284.378 59.8923C284.408 58.0852 284.415 56.2781 284.4 54.471C284.385 52.6639 284.422 50.842 284.511 49.0053C286.407 48.4425 288.303 48.0203 290.199 47.7389C292.095 47.4575 294.05 47.3167 296.065 47.3167C297.205 47.3167 298.346 47.413 299.486 47.6056C300.627 47.7833 301.716 48.0722 302.752 48.4721C303.804 48.872 304.774 49.3756 305.663 49.9829C306.567 50.5754 307.344 51.2864 307.996 52.1159C308.648 52.9454 309.159 53.8933 309.529 54.9598C309.914 56.0263 310.107 57.2113 310.107 58.5147ZM300.242 59.2702C300.242 58.3074 299.945 57.5594 299.353 57.0261C298.775 56.4781 298.02 56.204 297.087 56.204C296.776 56.204 296.45 56.2337 296.109 56.2929C295.783 56.3374 295.472 56.3966 295.176 56.4707L294.909 62.9584C295.117 62.988 295.317 63.0028 295.509 63.0028C295.702 63.0028 295.902 63.0028 296.109 63.0028C296.642 63.0028 297.153 62.914 297.642 62.7362C298.146 62.5585 298.59 62.3067 298.975 61.9808C299.36 61.6401 299.664 61.2476 299.886 60.8032C300.123 60.3441 300.242 59.833 300.242 59.2702ZM337.413 57.5816C337.413 58.7369 337.309 59.7886 337.102 60.7366C336.909 61.6697 336.598 62.5289 336.169 63.3139C335.739 64.0989 335.184 64.8247 334.502 65.4913C333.821 66.1578 332.999 66.7948 332.036 67.4021L337.324 76.8226L327.326 78.7778L323.904 69.3128L321.149 69.4017L320.749 78.6445H311.195C311.269 75.2673 311.336 71.905 311.395 68.5574C311.469 65.2099 311.551 61.8475 311.64 58.4703C311.669 56.7669 311.699 55.0783 311.729 53.4045C311.758 51.7308 311.817 50.0422 311.906 48.3388C312.943 47.9537 313.965 47.6352 314.972 47.3834C315.98 47.1316 316.987 46.939 317.994 46.8057C319.016 46.6576 320.046 46.5613 321.082 46.5169C322.134 46.4576 323.208 46.428 324.304 46.428C325.993 46.428 327.622 46.665 329.192 47.139C330.777 47.5982 332.177 48.2943 333.391 49.2275C334.606 50.1607 335.576 51.3234 336.302 52.7158C337.043 54.1081 337.413 55.7301 337.413 57.5816ZM327.459 58.2926C327.459 57.6705 327.37 57.1002 327.193 56.5818C327.03 56.0633 326.778 55.619 326.437 55.2487C326.111 54.8635 325.696 54.5673 325.193 54.3599C324.704 54.1377 324.126 54.0267 323.46 54.0267C323.164 54.0267 322.875 54.0489 322.593 54.0933C322.312 54.1229 322.038 54.1748 321.771 54.2488L321.416 62.514H321.949C322.586 62.514 323.23 62.4326 323.882 62.2696C324.549 62.1067 325.141 61.8549 325.659 61.5142C326.193 61.1735 326.622 60.7366 326.948 60.2033C327.289 59.6701 327.459 59.0332 327.459 58.2926ZM366.985 77.0892L355.965 78.5112L354.632 73.4899H349.566L348.455 78.5112L337.124 77.4003L345.967 47.8055L358.32 47.1834L366.985 77.0892ZM353.832 66.6911L352.144 58.9591L350.499 66.6911H353.832ZM378.65 45.9836L376.828 69.3573H368.607L367.763 45.9836H378.65ZM377.184 76.2005C377.184 76.8522 377.058 77.4595 376.806 78.0224C376.554 78.5853 376.213 79.0741 375.784 79.4888C375.369 79.9184 374.88 80.2516 374.317 80.4886C373.755 80.7404 373.155 80.8663 372.518 80.8663C371.866 80.8663 371.259 80.7404 370.696 80.4886C370.133 80.2516 369.637 79.9184 369.207 79.4888C368.793 79.0741 368.459 78.5853 368.207 78.0224C367.97 77.4595 367.852 76.8522 367.852 76.2005C367.852 75.5636 367.97 74.9563 368.207 74.3786C368.459 73.8009 368.793 73.3047 369.207 72.89C369.637 72.4604 370.133 72.1197 370.696 71.8679C371.259 71.6161 371.866 71.4902 372.518 71.4902C373.155 71.4902 373.755 71.6161 374.317 71.8679C374.88 72.1197 375.369 72.4604 375.784 72.89C376.213 73.3047 376.554 73.8009 376.806 74.3786C377.058 74.9563 377.184 75.5636 377.184 76.2005Z" fill="#31B55C"/>
<path d="M177.185 123.613C177.185 125.072 176.912 126.329 176.367 127.384C175.84 128.438 175.128 129.335 174.231 130.073C173.335 130.812 172.298 131.418 171.12 131.893C169.96 132.35 168.747 132.71 167.481 132.974C166.216 133.237 164.941 133.413 163.658 133.501C162.393 133.589 161.206 133.633 160.099 133.633C159.009 133.633 157.875 133.589 156.697 133.501C155.537 133.431 154.377 133.299 153.217 133.105C152.057 132.912 150.914 132.657 149.789 132.341C148.664 132.007 147.601 131.594 146.599 131.102L146.546 97.1406C147.53 96.7363 148.576 96.376 149.684 96.0596C150.791 95.7256 151.916 95.4531 153.059 95.2422C154.219 95.0137 155.37 94.8467 156.513 94.7412C157.655 94.6182 158.763 94.5566 159.835 94.5566C161.083 94.5566 162.34 94.6357 163.605 94.7939C164.889 94.9521 166.119 95.2158 167.297 95.585C168.475 95.9541 169.573 96.4375 170.593 97.0352C171.612 97.6152 172.5 98.3359 173.256 99.1973C174.029 100.059 174.627 101.061 175.049 102.203C175.488 103.346 175.708 104.664 175.708 106.158C175.708 107.143 175.567 108.065 175.286 108.927C175.005 109.788 174.601 110.562 174.073 111.247C173.546 111.933 172.904 112.521 172.148 113.014C171.393 113.488 170.54 113.84 169.591 114.068C170.733 114.367 171.771 114.807 172.702 115.387C173.651 115.967 174.451 116.67 175.102 117.496C175.77 118.322 176.279 119.254 176.631 120.291C177 121.328 177.185 122.436 177.185 123.613ZM163.79 108.584C163.79 108.074 163.685 107.644 163.474 107.292C163.263 106.923 162.999 106.624 162.683 106.396C162.384 106.167 162.05 106 161.681 105.895C161.329 105.789 161.013 105.736 160.731 105.736C160.38 105.736 160.037 105.789 159.703 105.895C159.369 106 159.044 106.123 158.728 106.264L158.569 112.117C158.974 112.117 159.475 112.082 160.072 112.012C160.67 111.941 161.241 111.792 161.786 111.563C162.349 111.317 162.823 110.966 163.21 110.509C163.597 110.034 163.79 109.393 163.79 108.584ZM160.046 117.18C159.536 117.18 159.044 117.232 158.569 117.338L158.464 123.35C158.728 123.402 158.982 123.455 159.229 123.508C159.492 123.543 159.747 123.561 159.993 123.561C160.362 123.561 160.767 123.525 161.206 123.455C161.646 123.367 162.059 123.209 162.445 122.98C162.832 122.734 163.148 122.409 163.395 122.005C163.658 121.601 163.79 121.064 163.79 120.396C163.79 119.729 163.658 119.184 163.395 118.762C163.148 118.34 162.841 118.015 162.472 117.786C162.103 117.54 161.698 117.382 161.259 117.312C160.819 117.224 160.415 117.18 160.046 117.18ZM210.565 112.803C210.565 114.402 210.381 115.949 210.012 117.443C209.643 118.92 209.106 120.309 208.403 121.609C207.718 122.91 206.874 124.105 205.872 125.195C204.888 126.268 203.771 127.19 202.523 127.964C201.293 128.737 199.948 129.344 198.489 129.783C197.03 130.205 195.483 130.416 193.849 130.416C192.267 130.416 190.755 130.214 189.313 129.81C187.89 129.405 186.554 128.843 185.306 128.122C184.058 127.384 182.924 126.505 181.904 125.485C180.902 124.448 180.041 123.306 179.32 122.058C178.617 120.792 178.063 119.438 177.659 117.997C177.272 116.556 177.079 115.053 177.079 113.488C177.079 111.959 177.264 110.465 177.633 109.006C178.002 107.529 178.529 106.141 179.215 104.84C179.918 103.539 180.762 102.344 181.746 101.254C182.73 100.164 183.829 99.2236 185.042 98.4326C186.272 97.6416 187.6 97.0264 189.023 96.5869C190.447 96.1475 191.95 95.9277 193.532 95.9277C196.081 95.9277 198.401 96.3232 200.493 97.1143C202.603 97.9053 204.396 99.0391 205.872 100.516C207.366 101.975 208.518 103.75 209.326 105.842C210.152 107.916 210.565 110.236 210.565 112.803ZM198.858 113.488C198.858 112.732 198.744 112.003 198.516 111.3C198.305 110.579 197.988 109.946 197.566 109.401C197.145 108.839 196.617 108.391 195.984 108.057C195.369 107.705 194.657 107.529 193.849 107.529C193.022 107.529 192.284 107.679 191.634 107.978C190.983 108.276 190.421 108.689 189.946 109.217C189.489 109.727 189.138 110.333 188.892 111.036C188.646 111.722 188.522 112.451 188.522 113.225C188.522 113.963 188.628 114.701 188.839 115.439C189.05 116.178 189.366 116.846 189.788 117.443C190.21 118.041 190.729 118.524 191.344 118.894C191.977 119.263 192.706 119.447 193.532 119.447C194.358 119.447 195.097 119.289 195.747 118.973C196.415 118.639 196.978 118.199 197.435 117.654C197.892 117.092 198.243 116.45 198.489 115.729C198.735 115.009 198.858 114.262 198.858 113.488ZM244.078 130.732L231 132.42L229.418 126.461H223.406L222.088 132.42L208.641 131.102L219.135 95.9805L233.795 95.2422L244.078 130.732ZM228.469 118.393L226.465 109.217L224.514 118.393H228.469ZM282.179 118.973C282.179 121.381 281.757 123.49 280.913 125.301C280.087 127.094 278.944 128.588 277.485 129.783C276.044 130.979 274.348 131.875 272.396 132.473C270.463 133.07 268.38 133.369 266.147 133.369C265.286 133.369 264.337 133.255 263.3 133.026C262.28 132.798 261.243 132.517 260.188 132.183C259.134 131.831 258.114 131.462 257.13 131.075C256.163 130.671 255.302 130.293 254.546 129.941L255.706 119.078C257.2 119.975 258.853 120.66 260.663 121.135C262.491 121.592 264.284 121.82 266.042 121.82C266.376 121.82 266.78 121.812 267.255 121.794C267.729 121.759 268.178 121.68 268.6 121.557C269.039 121.416 269.408 121.214 269.707 120.95C270.006 120.687 270.155 120.309 270.155 119.816C270.155 119.482 270.05 119.201 269.839 118.973C269.628 118.727 269.355 118.533 269.021 118.393C268.688 118.234 268.31 118.12 267.888 118.05C267.466 117.962 267.053 117.9 266.648 117.865C266.244 117.83 265.866 117.812 265.515 117.812C265.163 117.812 264.882 117.812 264.671 117.812C263.159 117.812 261.779 117.549 260.531 117.021C259.301 116.494 258.237 115.765 257.341 114.833C256.462 113.884 255.776 112.768 255.284 111.484C254.792 110.184 254.546 108.777 254.546 107.266C254.546 105.191 254.959 103.337 255.785 101.702C256.629 100.05 257.745 98.6523 259.134 97.5098C260.54 96.3496 262.148 95.4619 263.959 94.8467C265.77 94.2314 267.642 93.9238 269.575 93.9238C270.437 93.9238 271.324 93.959 272.238 94.0293C273.152 94.082 274.058 94.1875 274.954 94.3457C275.868 94.5039 276.756 94.7061 277.617 94.9521C278.479 95.1982 279.296 95.5059 280.069 95.875L279.067 106.58C277.872 106.176 276.615 105.842 275.297 105.578C273.996 105.297 272.722 105.156 271.474 105.156C271.245 105.156 270.946 105.165 270.577 105.183C270.226 105.183 269.848 105.209 269.443 105.262C269.057 105.297 268.661 105.358 268.257 105.446C267.853 105.534 267.492 105.657 267.176 105.815C266.859 105.956 266.604 106.149 266.411 106.396C266.218 106.642 266.13 106.932 266.147 107.266C266.165 107.652 266.306 107.969 266.569 108.215C266.851 108.443 267.202 108.628 267.624 108.769C268.063 108.892 268.538 108.979 269.048 109.032C269.575 109.085 270.094 109.12 270.604 109.138C271.113 109.138 271.588 109.138 272.027 109.138C272.467 109.12 272.827 109.129 273.108 109.164C274.515 109.252 275.78 109.551 276.905 110.061C278.03 110.57 278.979 111.247 279.753 112.091C280.544 112.935 281.142 113.945 281.546 115.123C281.968 116.283 282.179 117.566 282.179 118.973ZM316.456 112.803C316.456 114.402 316.271 115.949 315.902 117.443C315.533 118.92 314.997 120.309 314.294 121.609C313.608 122.91 312.765 124.105 311.763 125.195C310.778 126.268 309.662 127.19 308.414 127.964C307.184 128.737 305.839 129.344 304.38 129.783C302.921 130.205 301.374 130.416 299.739 130.416C298.157 130.416 296.646 130.214 295.204 129.81C293.78 129.405 292.444 128.843 291.196 128.122C289.948 127.384 288.814 126.505 287.795 125.485C286.793 124.448 285.932 123.306 285.211 122.058C284.508 120.792 283.954 119.438 283.55 117.997C283.163 116.556 282.97 115.053 282.97 113.488C282.97 111.959 283.154 110.465 283.523 109.006C283.893 107.529 284.42 106.141 285.105 104.84C285.809 103.539 286.652 102.344 287.637 101.254C288.621 100.164 289.72 99.2236 290.933 98.4326C292.163 97.6416 293.49 97.0264 294.914 96.5869C296.338 96.1475 297.841 95.9277 299.423 95.9277C301.972 95.9277 304.292 96.3232 306.384 97.1143C308.493 97.9053 310.286 99.0391 311.763 100.516C313.257 101.975 314.408 103.75 315.217 105.842C316.043 107.916 316.456 110.236 316.456 112.803ZM304.749 113.488C304.749 112.732 304.635 112.003 304.406 111.3C304.195 110.579 303.879 109.946 303.457 109.401C303.035 108.839 302.508 108.391 301.875 108.057C301.26 107.705 300.548 107.529 299.739 107.529C298.913 107.529 298.175 107.679 297.524 107.978C296.874 108.276 296.312 108.689 295.837 109.217C295.38 109.727 295.028 110.333 294.782 111.036C294.536 111.722 294.413 112.451 294.413 113.225C294.413 113.963 294.519 114.701 294.729 115.439C294.94 116.178 295.257 116.846 295.679 117.443C296.101 118.041 296.619 118.524 297.234 118.894C297.867 119.263 298.597 119.447 299.423 119.447C300.249 119.447 300.987 119.289 301.638 118.973C302.306 118.639 302.868 118.199 303.325 117.654C303.782 117.092 304.134 116.45 304.38 115.729C304.626 115.009 304.749 114.262 304.749 113.488ZM349.204 107.582C349.204 108.953 349.081 110.201 348.835 111.326C348.606 112.434 348.237 113.453 347.728 114.385C347.218 115.316 346.559 116.178 345.75 116.969C344.941 117.76 343.966 118.516 342.823 119.236L349.099 130.416L337.233 132.736L333.173 121.504L329.903 121.609L329.429 132.578H318.091C318.179 128.57 318.258 124.58 318.328 120.607C318.416 116.635 318.513 112.645 318.618 108.637C318.653 106.615 318.688 104.611 318.724 102.625C318.759 100.639 318.829 98.6348 318.935 96.6133C320.165 96.1562 321.378 95.7783 322.573 95.4795C323.769 95.1807 324.964 94.9521 326.159 94.7939C327.372 94.6182 328.594 94.5039 329.824 94.4512C331.072 94.3809 332.347 94.3457 333.647 94.3457C335.651 94.3457 337.585 94.627 339.448 95.1895C341.329 95.7344 342.99 96.5605 344.432 97.668C345.873 98.7754 347.024 100.155 347.886 101.808C348.765 103.46 349.204 105.385 349.204 107.582ZM337.392 108.426C337.392 107.688 337.286 107.011 337.075 106.396C336.882 105.78 336.583 105.253 336.179 104.813C335.792 104.356 335.3 104.005 334.702 103.759C334.122 103.495 333.437 103.363 332.646 103.363C332.294 103.363 331.951 103.39 331.617 103.442C331.283 103.478 330.958 103.539 330.642 103.627L330.22 113.436H330.853C331.608 113.436 332.373 113.339 333.146 113.146C333.938 112.952 334.641 112.653 335.256 112.249C335.889 111.845 336.398 111.326 336.785 110.693C337.189 110.061 337.392 109.305 337.392 108.426ZM378.973 95.8223L378.709 107.002L370.852 107.318L369.902 131.787L358.775 132.367L357.773 107.898L349.916 108.32L350.232 95.875L378.973 95.8223ZM409.374 111.695C409.374 113.225 409.269 114.754 409.058 116.283C406.052 116.477 403.063 116.793 400.093 117.232C397.122 117.654 394.151 118.076 391.181 118.498C391.638 119.764 392.35 120.774 393.316 121.53C394.301 122.286 395.47 122.664 396.823 122.664C397.526 122.664 398.291 122.532 399.117 122.269C399.961 122.005 400.796 121.68 401.622 121.293C402.448 120.889 403.239 120.458 403.995 120.001C404.751 119.544 405.401 119.131 405.946 118.762L404.681 130.732C403.995 131.26 403.248 131.708 402.439 132.077C401.648 132.446 400.822 132.745 399.961 132.974C399.1 133.202 398.229 133.369 397.351 133.475C396.472 133.58 395.61 133.633 394.767 133.633C393.026 133.633 391.436 133.396 389.994 132.921C388.553 132.446 387.243 131.787 386.065 130.943C384.905 130.082 383.886 129.071 383.007 127.911C382.128 126.751 381.398 125.485 380.818 124.114C380.238 122.743 379.799 121.293 379.5 119.764C379.201 118.234 379.052 116.688 379.052 115.123C379.052 113.488 379.201 111.854 379.5 110.219C379.799 108.584 380.247 107.011 380.845 105.499C381.46 103.987 382.225 102.59 383.139 101.307C384.07 100.006 385.151 98.8721 386.382 97.9053C387.612 96.9385 389.001 96.1826 390.548 95.6377C392.112 95.0928 393.835 94.8203 395.716 94.8203C397.28 94.8203 398.704 95.04 399.987 95.4795C401.288 95.9014 402.439 96.499 403.441 97.2725C404.461 98.0283 405.34 98.9336 406.078 99.9883C406.834 101.043 407.449 102.203 407.924 103.469C408.416 104.717 408.776 106.044 409.005 107.45C409.251 108.839 409.374 110.254 409.374 111.695ZM398.827 110.324C398.827 109.832 398.774 109.331 398.669 108.821C398.563 108.294 398.388 107.819 398.142 107.397C397.913 106.976 397.605 106.633 397.219 106.369C396.832 106.088 396.349 105.947 395.769 105.947C395.065 105.947 394.441 106.141 393.896 106.527C393.369 106.896 392.912 107.371 392.525 107.951C392.139 108.514 391.822 109.129 391.576 109.797C391.33 110.465 391.146 111.08 391.022 111.643L398.827 110.904V110.324ZM424.034 93.8184L421.872 121.557H412.116L411.114 93.8184H424.034ZM422.294 129.678C422.294 130.451 422.145 131.172 421.846 131.84C421.547 132.508 421.143 133.088 420.633 133.58C420.141 134.09 419.561 134.485 418.893 134.767C418.225 135.065 417.513 135.215 416.757 135.215C415.983 135.215 415.263 135.065 414.595 134.767C413.927 134.485 413.338 134.09 412.828 133.58C412.336 133.088 411.94 132.508 411.642 131.84C411.36 131.172 411.22 130.451 411.22 129.678C411.22 128.922 411.36 128.201 411.642 127.516C411.94 126.83 412.336 126.241 412.828 125.749C413.338 125.239 413.927 124.835 414.595 124.536C415.263 124.237 415.983 124.088 416.757 124.088C417.513 124.088 418.225 124.237 418.893 124.536C419.561 124.835 420.141 125.239 420.633 125.749C421.143 126.241 421.547 126.83 421.846 127.516C422.145 128.201 422.294 128.922 422.294 129.678Z" fill="#114823"/>
</svg>
