<svg width="116" height="17" viewBox="0 0 116 17" fill="none" xmlns="http://www.w3.org/2000/svg">
<path d="M11.4744 10.7205C11.4744 11.6623 11.3094 12.4769 10.9794 13.1643C10.6563 13.8449 10.2095 14.4086 9.63893 14.8554C9.07523 15.2954 8.41185 15.6219 7.6488 15.835C6.89262 16.0412 6.07801 16.1444 5.20497 16.1444C4.86813 16.1444 4.49691 16.0997 4.09132 16.0103C3.69261 15.9209 3.28702 15.811 2.87456 15.6803C2.4621 15.5429 2.06339 15.3985 1.67843 15.2473C1.30034 15.0891 0.963493 14.9413 0.667896 14.8039L1.1216 10.7617C1.70592 11.1123 2.35211 11.3804 3.06017 11.566C3.7751 11.7448 4.47629 11.8341 5.16372 11.8341C5.29434 11.8341 5.45245 11.8307 5.63805 11.8238C5.82366 11.8101 5.99896 11.7791 6.16394 11.731C6.3358 11.676 6.48016 11.597 6.59703 11.4939C6.71389 11.3907 6.77232 11.2429 6.77232 11.0505C6.77232 10.9199 6.73108 10.8099 6.64858 10.7205C6.56609 10.6243 6.45954 10.5486 6.32893 10.4936C6.19831 10.4318 6.05051 10.3871 5.88553 10.3596C5.72055 10.3252 5.559 10.3012 5.40089 10.2874C5.24278 10.2737 5.09498 10.2668 4.95749 10.2668C4.82001 10.2668 4.71002 10.2668 4.62752 10.2668C4.03633 10.2668 3.49669 10.174 3.00861 9.98838C2.52741 9.80277 2.11151 9.54155 1.76092 9.2047C1.4172 8.86098 1.1491 8.44852 0.956619 7.96732C0.764137 7.47924 0.667896 6.9396 0.667896 6.34841C0.667896 5.53724 0.829443 4.81199 1.15254 4.17268C1.48251 3.52649 1.91903 2.97998 2.4621 2.53314C3.01205 2.07944 3.64105 1.73228 4.34911 1.49168C5.05717 1.25108 5.78929 1.13078 6.54547 1.13078C6.88231 1.13078 7.22947 1.14452 7.58693 1.17202C7.9444 1.19264 8.29843 1.23389 8.64902 1.29576C9.00649 1.35763 9.35364 1.43668 9.69048 1.53292C10.0273 1.62917 10.347 1.74947 10.6495 1.89383L10.2576 6.08031C9.79016 5.9222 9.29865 5.79159 8.78307 5.68847C8.27437 5.57848 7.77598 5.52349 7.2879 5.52349C7.19853 5.52349 7.08167 5.52692 6.93731 5.5338C6.79982 5.5338 6.65202 5.54411 6.49391 5.56473C6.34267 5.57848 6.188 5.60254 6.02989 5.63691C5.87178 5.67129 5.73086 5.71941 5.60712 5.78127C5.48338 5.83627 5.3837 5.91189 5.30808 6.00813C5.23247 6.10437 5.19809 6.2178 5.20497 6.34841C5.21184 6.49964 5.26684 6.61651 5.36995 6.699C5.47994 6.78149 5.61743 6.84336 5.78241 6.88461C5.95427 6.91898 6.13988 6.93617 6.33924 6.93617C6.54547 6.93617 6.74826 6.93273 6.94762 6.92585C7.14697 6.91211 7.33258 6.90179 7.50444 6.89492C7.6763 6.88117 7.81722 6.87773 7.92721 6.88461C8.47716 6.91898 8.97211 7.03584 9.41207 7.2352C9.85203 7.43456 10.2232 7.69922 10.5257 8.02919C10.8351 8.35916 11.0688 8.75443 11.2269 9.21501C11.3919 9.66872 11.4744 10.1705 11.4744 10.7205ZM23.6523 7.66828C23.6523 8.26635 23.611 8.86442 23.5286 9.46249C22.353 9.53811 21.1844 9.66185 20.0226 9.83371C18.8609 9.99869 17.6991 10.1637 16.5373 10.3287C16.7161 10.8236 16.9945 11.2189 17.3726 11.5145C17.7575 11.8101 18.2147 11.9579 18.744 11.9579C19.019 11.9579 19.318 11.9063 19.6411 11.8032C19.9711 11.7001 20.2976 11.5729 20.6207 11.4217C20.9438 11.2636 21.2531 11.0951 21.5487 10.9164C21.8443 10.7377 22.0987 10.5761 22.3118 10.4318L21.8168 15.1132C21.5487 15.3194 21.2566 15.4947 20.9404 15.6391C20.631 15.7835 20.3079 15.9003 19.9711 15.9897C19.6342 16.0791 19.294 16.1444 18.9502 16.1856C18.6065 16.2269 18.2697 16.2475 17.9397 16.2475C17.2591 16.2475 16.637 16.1547 16.0733 15.9691C15.5096 15.7835 14.9975 15.5257 14.5369 15.1957C14.0832 14.8589 13.6845 14.4636 13.3408 14.0099C12.997 13.5562 12.7118 13.0612 12.4849 12.525C12.2581 11.9888 12.0862 11.4217 11.9693 10.8236C11.8525 10.2255 11.794 9.6206 11.794 9.00878C11.794 8.36947 11.8525 7.73015 11.9693 7.09084C12.0862 6.45152 12.2615 5.83627 12.4952 5.24508C12.7358 4.65388 13.0349 4.10737 13.3923 3.60554C13.7567 3.09684 14.1794 2.65344 14.6606 2.27535C15.1418 1.89727 15.6849 1.60167 16.2899 1.38856C16.9017 1.17546 17.5754 1.06891 18.3109 1.06891C18.9227 1.06891 19.4796 1.15484 19.9814 1.32669C20.4901 1.49168 20.9404 1.72541 21.3322 2.02788C21.7309 2.32348 22.0746 2.6775 22.3634 3.08997C22.659 3.50243 22.8996 3.95613 23.0852 4.45109C23.2776 4.93917 23.4186 5.45818 23.5079 6.00813C23.6042 6.5512 23.6523 7.10459 23.6523 7.66828ZM19.5277 7.13209C19.5277 6.9396 19.5071 6.74368 19.4658 6.54433C19.4246 6.3381 19.3558 6.15249 19.2596 5.98751C19.1702 5.82252 19.0499 5.68847 18.8987 5.58536C18.7474 5.47537 18.5584 5.42037 18.3315 5.42037C18.0566 5.42037 17.8125 5.49599 17.5994 5.64722C17.3932 5.79159 17.2145 5.97719 17.0632 6.20405C16.912 6.42403 16.7883 6.66463 16.692 6.92585C16.5958 7.18708 16.5236 7.42768 16.4755 7.64766L19.5277 7.35894V7.13209ZM33.3761 10.5349L32.943 15.1132L24.2607 15.7938L24.5906 1.06891H29.9526L29.1896 10.5349H33.3761ZM45.3684 7.66828C45.3684 8.26635 45.3271 8.86442 45.2446 9.46249C44.0691 9.53811 42.9005 9.66185 41.7387 9.83371C40.577 9.99869 39.4152 10.1637 38.2534 10.3287C38.4322 10.8236 38.7106 11.2189 39.0887 11.5145C39.4736 11.8101 39.9308 11.9579 40.4601 11.9579C40.7351 11.9579 41.0341 11.9063 41.3572 11.8032C41.6872 11.7001 42.0137 11.5729 42.3368 11.4217C42.6599 11.2636 42.9692 11.0951 43.2648 10.9164C43.5604 10.7377 43.8148 10.5761 44.0279 10.4318L43.5329 15.1132C43.2648 15.3194 42.9727 15.4947 42.6564 15.6391C42.3471 15.7835 42.024 15.9003 41.6872 15.9897C41.3503 16.0791 41.01 16.1444 40.6663 16.1856C40.3226 16.2269 39.9858 16.2475 39.6558 16.2475C38.9752 16.2475 38.3531 16.1547 37.7894 15.9691C37.2257 15.7835 36.7136 15.5257 36.253 15.1957C35.7993 14.8589 35.4006 14.4636 35.0568 14.0099C34.7131 13.5562 34.4278 13.0612 34.201 12.525C33.9741 11.9888 33.8023 11.4217 33.6854 10.8236C33.5685 10.2255 33.5101 9.6206 33.5101 9.00878C33.5101 8.36947 33.5685 7.73015 33.6854 7.09084C33.8023 6.45152 33.9776 5.83627 34.2113 5.24508C34.4519 4.65388 34.7509 4.10737 35.1084 3.60554C35.4727 3.09684 35.8955 2.65344 36.3767 2.27535C36.8579 1.89727 37.401 1.60167 38.0059 1.38856C38.6178 1.17546 39.2914 1.06891 40.027 1.06891C40.6388 1.06891 41.1956 1.15484 41.6975 1.32669C42.2062 1.49168 42.6564 1.72541 43.0483 2.02788C43.447 2.32348 43.7907 2.6775 44.0794 3.08997C44.375 3.50243 44.6156 3.95613 44.8012 4.45109C44.9937 4.93917 45.1346 5.45818 45.224 6.00813C45.3203 6.5512 45.3684 7.10459 45.3684 7.66828ZM41.2438 7.13209C41.2438 6.9396 41.2231 6.74368 41.1819 6.54433C41.1406 6.3381 41.0719 6.15249 40.9757 5.98751C40.8863 5.82252 40.766 5.68847 40.6148 5.58536C40.4635 5.47537 40.2745 5.42037 40.0476 5.42037C39.7727 5.42037 39.5286 5.49599 39.3155 5.64722C39.1093 5.79159 38.9305 5.97719 38.7793 6.20405C38.6281 6.42403 38.5043 6.66463 38.4081 6.92585C38.3119 7.18708 38.2397 7.42768 38.1915 7.64766L41.2438 7.35894V7.13209ZM55.8861 1.91445L55.5149 6.26592C55.3156 6.21092 55.1196 6.17311 54.9272 6.15249C54.7347 6.13187 54.5388 6.12156 54.3394 6.12156C53.8513 6.12156 53.3839 6.18342 52.937 6.30716C52.4971 6.4309 52.1052 6.61995 51.7615 6.8743C51.4247 7.12865 51.1531 7.45174 50.9469 7.84358C50.7476 8.22854 50.6479 8.68569 50.6479 9.21501C50.6479 9.59998 50.7029 9.93682 50.8129 10.2255C50.9297 10.5074 51.0913 10.7446 51.2975 10.937C51.5106 11.1226 51.765 11.2636 52.0606 11.3598C52.363 11.4561 52.6964 11.5042 53.0608 11.5042C53.3151 11.5042 53.5764 11.4801 53.8445 11.432C54.1126 11.377 54.3807 11.3048 54.6488 11.2155C54.9169 11.1261 55.1746 11.023 55.4221 10.9061C55.6696 10.7892 55.8999 10.6655 56.113 10.5349L55.948 15.3813C55.6799 15.5188 55.3912 15.6425 55.0818 15.7525C54.7725 15.8556 54.4528 15.945 54.1229 16.0206C53.7998 16.1031 53.4732 16.165 53.1433 16.2062C52.8202 16.2475 52.5108 16.2681 52.2152 16.2681C51.2391 16.2681 50.3488 16.0859 49.5445 15.7216C48.7471 15.3572 48.0597 14.8623 47.4822 14.2367C46.9117 13.6043 46.4683 12.8722 46.1521 12.0404C45.8358 11.2086 45.6777 10.3218 45.6777 9.38C45.6777 8.2526 45.8358 7.20083 46.1521 6.22467C46.4751 5.24851 46.946 4.40297 47.5647 3.68803C48.1903 2.96623 48.9602 2.40253 49.8745 1.99694C50.7957 1.58448 51.8509 1.37825 53.0402 1.37825C53.5145 1.37825 53.9957 1.41606 54.4838 1.49168C54.9718 1.5673 55.4393 1.70822 55.8861 1.91445ZM62.2587 1.48137L61.5369 15.5257L57.1854 15.7525L56.7729 1.77009L62.2587 1.48137ZM75.7461 8.10137C75.7461 8.72693 75.674 9.33188 75.5296 9.9162C75.3852 10.4936 75.1756 11.0367 74.9006 11.5454C74.6325 12.0541 74.3025 12.5216 73.9107 12.9478C73.5257 13.3671 73.0892 13.728 72.6011 14.0305C72.1199 14.333 71.594 14.5701 71.0235 14.742C70.4529 14.907 69.8479 14.9895 69.2086 14.9895C68.5899 14.9895 67.9987 14.9104 67.435 14.7523C66.8782 14.5942 66.3558 14.3742 65.8677 14.0924C65.3796 13.8036 64.9362 13.4599 64.5375 13.0612C64.1457 12.6556 63.8088 12.2088 63.527 11.7207C63.252 11.2258 63.0355 10.6964 62.8774 10.1327C62.7261 9.56904 62.6505 8.98129 62.6505 8.36947C62.6505 7.7714 62.7227 7.18708 62.867 6.61651C63.0114 6.03906 63.2176 5.49599 63.4857 4.98729C63.7607 4.47858 64.0907 4.01113 64.4756 3.58492C64.8606 3.15871 65.2902 2.79093 65.7646 2.48159C66.2458 2.17224 66.7648 1.93164 67.3216 1.75978C67.8784 1.58792 68.4662 1.50199 69.0849 1.50199C70.0817 1.50199 70.9891 1.65666 71.8071 1.96601C72.6321 2.27535 73.3332 2.71875 73.9107 3.2962C74.495 3.86677 74.9453 4.56108 75.2615 5.37913C75.5846 6.1903 75.7461 7.09771 75.7461 8.10137ZM71.1678 8.36947C71.1678 8.07387 71.1231 7.78859 71.0338 7.51361C70.9513 7.23176 70.8275 6.98429 70.6626 6.77118C70.4976 6.5512 70.2913 6.37591 70.0439 6.24529C69.8033 6.10781 69.5248 6.03906 69.2086 6.03906C68.8855 6.03906 68.5968 6.09749 68.3425 6.21436C68.0881 6.33122 67.8681 6.49277 67.6825 6.699C67.5038 6.89836 67.3663 7.13552 67.2701 7.4105C67.1738 7.6786 67.1257 7.96388 67.1257 8.26635C67.1257 8.55508 67.1669 8.8438 67.2494 9.13252C67.3319 9.42124 67.4557 9.68247 67.6207 9.9162C67.7856 10.1499 67.9884 10.339 68.229 10.4833C68.4765 10.6277 68.7618 10.6999 69.0849 10.6999C69.408 10.6999 69.6967 10.638 69.9511 10.5143C70.2123 10.3837 70.4323 10.2118 70.611 9.99869C70.7897 9.77871 70.9272 9.5278 71.0235 9.24595C71.1197 8.9641 71.1678 8.67194 71.1678 8.36947ZM89.1408 10.7824C89.1408 11.5592 89.1305 12.3291 89.1099 13.0921C89.0961 13.8483 89.0721 14.6114 89.0377 15.3813L83.0983 15.2782C83.3045 14.0614 83.4832 12.8481 83.6345 11.6382C83.7857 10.4215 83.8613 9.19439 83.8613 7.95701C83.8613 7.86764 83.8579 7.72328 83.851 7.52392C83.8441 7.32457 83.8304 7.10115 83.8098 6.85367C83.7891 6.59932 83.7582 6.34153 83.717 6.08031C83.6826 5.81221 83.631 5.56817 83.5623 5.34819C83.5004 5.12821 83.4214 4.94948 83.3251 4.81199C83.2357 4.66763 83.1258 4.59545 82.9951 4.59545C82.7614 4.59545 82.5621 4.66419 82.3971 4.80168C82.239 4.93917 82.1049 5.1179 81.9949 5.33788C81.8918 5.55098 81.8093 5.79159 81.7475 6.05969C81.6856 6.32779 81.6375 6.59589 81.6031 6.86399C81.5756 7.13209 81.555 7.38644 81.5412 7.62704C81.5343 7.86077 81.5309 8.05325 81.5309 8.20448C81.4965 9.42124 81.469 10.6311 81.4484 11.8341C81.4278 13.0303 81.4003 14.2402 81.3659 15.4638L76.107 15.6907C76.2445 13.264 76.3751 10.8511 76.4989 8.45196C76.6295 6.05281 76.7326 3.63991 76.8082 1.21327L81.6753 0.965791L81.634 2.61564C81.8265 2.38191 82.0327 2.16193 82.2527 1.9557C82.4796 1.74947 82.7202 1.57417 82.9745 1.42981C83.2289 1.27857 83.497 1.16171 83.7788 1.07922C84.0675 0.989851 84.37 0.945168 84.6862 0.945168C85.2706 0.945168 85.7827 1.04141 86.2227 1.23389C86.6626 1.42637 87.0407 1.6876 87.3569 2.01757C87.6731 2.34754 87.9378 2.73937 88.1509 3.19308C88.364 3.63991 88.5359 4.11768 88.6665 4.62638C88.7971 5.13509 88.8968 5.66785 88.9655 6.22467C89.0343 6.77462 89.0789 7.31769 89.0996 7.85389C89.1271 8.39009 89.1408 8.90911 89.1408 9.41093C89.1408 9.91276 89.1408 10.3699 89.1408 10.7824ZM103.123 15.1132L98.0087 15.7731L97.39 13.4427H95.039L94.5234 15.7731L89.2646 15.2576L93.3685 1.52261L99.1018 1.23389L103.123 15.1132ZM97.0188 10.2874L96.2351 6.699L95.4721 10.2874H97.0188ZM115.425 6.05969C115.425 6.59589 115.377 7.08396 115.281 7.52392C115.191 7.95701 115.047 8.35572 114.847 8.72006C114.648 9.0844 114.39 9.42124 114.074 9.73059C113.758 10.0399 113.376 10.3355 112.93 10.6174L115.384 14.9895L110.743 15.8969L109.155 11.5042L107.877 11.5454L107.691 15.835H103.257C103.292 14.2677 103.323 12.7072 103.35 11.1536C103.384 9.59998 103.422 8.0395 103.464 6.47215C103.477 5.6816 103.491 4.89792 103.505 4.12112C103.519 3.34432 103.546 2.56064 103.587 1.77009C104.068 1.59136 104.543 1.44356 105.01 1.32669C105.478 1.20983 105.945 1.12046 106.413 1.05859C106.887 0.989851 107.365 0.945168 107.846 0.924545C108.334 0.897047 108.832 0.883298 109.341 0.883298C110.125 0.883298 110.881 0.993288 111.61 1.21327C112.345 1.42637 112.995 1.74947 113.559 2.18255C114.122 2.61564 114.572 3.15527 114.909 3.80146C115.253 4.44765 115.425 5.20039 115.425 6.05969ZM110.805 6.38965C110.805 6.10093 110.764 5.83627 110.682 5.59567C110.606 5.35506 110.489 5.14883 110.331 4.97698C110.18 4.79824 109.987 4.66076 109.754 4.56451C109.527 4.4614 109.259 4.40984 108.949 4.40984C108.812 4.40984 108.678 4.42015 108.547 4.44078C108.417 4.45452 108.289 4.47858 108.166 4.51296L108.001 8.34885H108.248C108.544 8.34885 108.843 8.31104 109.145 8.23542C109.455 8.1598 109.73 8.04294 109.97 7.88483C110.218 7.72672 110.417 7.52392 110.568 7.27645C110.726 7.02897 110.805 6.73337 110.805 6.38965Z" fill="#CBCBCB"/>
</svg>
